<svg width="73" height="41" viewBox="0 0 73 41" fill="none" xmlns="http://www.w3.org/2000/svg">
<rect width="73" height="41" rx="5" fill="#D9D9D9"/>
<g clip-path="url(#clip0_1714_2445)">
<path d="M60.3333 38.9998H12.6667C11.6942 38.9998 10.7616 38.61 10.0739 37.9161C9.38631 37.2223 9 36.2811 9 35.2998V19.7352H11.6415L12.2374 18.2798H13.5711L14.1654 19.729H19.3629V18.6267L19.8274 19.7367H22.5254L22.9899 18.6082V19.7336H35.9042V17.3533H36.1486C36.3228 17.3595 36.3732 17.3749 36.3732 17.6678V19.7367H43.0542V19.1833C43.7371 19.5332 44.5422 19.7383 45.3963 19.7383L45.5414 19.7367H45.5337H48.3449L48.9468 18.2876H50.2806L50.8688 19.7367H56.2863V18.3585L57.1051 19.7367H61.4379V10.6347H57.1494V11.7093L56.549 10.6347H52.1399V11.7093L51.5883 10.6347H45.6346C44.7327 10.5908 43.8344 10.778 43.0236 11.1789L43.0557 11.1651V10.6347H38.949V11.1651C38.4517 10.7701 37.8241 10.5811 37.1936 10.6363H37.2028H22.1954L21.1886 12.9873L20.1543 10.6363H15.4274V11.7108L14.9064 10.6363H10.8731L9.00458 14.9529V5.70293C9.00458 4.72163 9.39089 3.78052 10.0785 3.08663C10.7662 2.39275 11.6988 2.00293 12.6713 2.00293H60.3379C61.3104 2.00293 62.243 2.39275 62.9306 3.08663C63.6183 3.78052 64.0046 4.72163 64.0046 5.70293V21.8596H61.1431C61.0952 21.8575 61.0438 21.8565 60.9888 21.8565C60.3257 21.8565 59.71 22.0569 59.1967 22.4007L59.2089 22.393V21.8596H54.9769C54.3157 21.8224 53.6615 22.012 53.1207 22.3976L53.1299 22.3915V21.8581H45.5735V22.3915C44.9544 22.0406 44.2561 21.8568 43.5461 21.8581H43.4865H43.4896H38.5044V22.3915C37.8533 21.9701 37.0803 21.7828 36.3106 21.8596L36.3243 21.8581H30.7464L29.4692 23.2517L28.2744 21.8581H19.9419V30.9662H28.1186L29.434 29.551L30.6731 30.9662H35.7132V28.8341H36.416C37.0918 28.862 37.766 28.7481 38.396 28.4996L38.3624 28.5119V30.9693H42.5179V28.5967H42.7181C42.9717 28.5967 42.9976 28.6059 42.9976 28.8649V30.9708H55.6262L55.7806 30.9739C56.5047 30.9739 57.18 30.755 57.7422 30.3804L57.7285 30.3881V30.9708H61.7343L61.9253 30.9739C62.6754 30.9739 63.3889 30.8182 64.0367 30.5361L64.0015 30.55V35.3014C64.0015 36.2827 63.6152 37.2238 62.9276 37.9177C62.24 38.6116 61.3073 39.0014 60.3349 39.0014L60.3333 38.9998ZM41.2437 29.6897H39.6885V23.1608H43.2574C43.9019 23.1005 44.551 23.2099 45.1411 23.4783L45.1167 23.4691C45.5949 23.7343 45.9142 24.2399 45.9142 24.8196L45.9111 24.9229V24.9183L45.9126 24.9768C45.9126 25.7261 45.465 26.3705 44.8233 26.6511L44.8111 26.6557C45.1182 26.7667 45.3749 26.9563 45.5658 27.2015L45.5689 27.2046C45.7841 27.565 45.8744 27.9875 45.8256 28.4055L45.8271 28.3963V29.6882H44.2749V28.8711C44.35 28.4262 44.2615 27.9689 44.0258 27.5853L44.0304 27.5931C43.8691 27.4695 43.6847 27.3803 43.4883 27.3307C43.2919 27.2812 43.0875 27.2723 42.8876 27.3048L42.8968 27.3032H41.2437V29.6882V29.6897ZM41.2437 24.5097V25.9758H43.1229C43.3883 26.0006 43.6553 25.9526 43.896 25.8371L43.8868 25.8417C43.985 25.7776 44.0658 25.6897 44.1218 25.586C44.1779 25.4824 44.2074 25.3662 44.2076 25.2482L44.2061 25.2127C44.2146 25.0948 44.1893 24.9783 44.1333 24.8745C44.0772 24.7706 43.9927 24.6852 43.8899 24.6284L43.8868 24.6269C43.6543 24.5245 43.4002 24.4821 43.1474 24.5036H43.1535L41.2437 24.5097ZM27.4556 29.6882H21.3337V23.1608H27.5518L29.4539 25.3006L31.4201 23.1608H36.3594C38.1133 23.1608 38.9658 23.8653 38.9658 25.3114C38.9658 26.7837 38.0843 27.499 36.2769 27.499H34.3443V29.6866H31.3392L29.4356 27.5298L27.4556 29.6882ZM32.8043 23.8607L30.4301 26.4353L32.8043 29.0931V23.8607ZM22.8753 27.0288V28.3269H26.6764L28.4333 26.4121L26.7436 24.5097H22.8738V25.6968H26.2685V27.0273L22.8753 27.0288ZM34.3443 24.5113V26.1732H36.3411C36.9522 26.1732 37.3036 25.8587 37.3036 25.3098C37.3036 24.7857 36.9767 24.5097 36.3579 24.5097L34.3443 24.5113ZM61.9024 29.6913H58.9171V28.2883H61.8901C62.1126 28.3191 62.3381 28.2604 62.5181 28.1249L62.5165 28.1265C62.5741 28.0729 62.6199 28.0078 62.6512 27.9353C62.6825 27.8629 62.6986 27.7846 62.6983 27.7056V27.6809C62.6982 27.6029 62.6814 27.5259 62.649 27.4551C62.6165 27.3843 62.5693 27.3214 62.5104 27.2708C62.3532 27.1537 62.1574 27.1019 61.9635 27.1259H61.9665L61.6808 27.1167C60.2844 27.0797 58.7032 27.0365 58.7032 25.1048C58.7032 24.1644 59.2868 23.1608 60.92 23.1608H64.0015V24.5513H61.1828C60.9651 24.5275 60.7454 24.5716 60.5533 24.6778L60.5594 24.6747C60.4841 24.7249 60.4236 24.7946 60.3841 24.8765C60.3446 24.9584 60.3276 25.0495 60.3349 25.1403V25.1387V25.1557C60.3349 25.2596 60.3673 25.3608 60.4277 25.4449C60.488 25.5291 60.5732 25.5919 60.671 25.6243L60.674 25.6259C60.8676 25.6868 61.0705 25.7119 61.2729 25.6999H61.2683L62.1071 25.7215C62.7394 25.6573 63.3712 25.8473 63.8656 26.2503L63.861 26.2472C63.9068 26.2842 63.947 26.3248 63.9817 26.369L63.9832 26.3705L64.0015 28.8557C63.7443 29.1583 63.4175 29.3926 63.0496 29.538C62.6817 29.6835 62.2841 29.7355 61.8917 29.6897L61.9024 29.6913ZM55.8692 29.6913H52.8564V28.2883H55.8539C56.0782 28.3175 56.305 28.259 56.4879 28.1249L56.4849 28.1265C56.5421 28.0727 56.5877 28.0076 56.6188 27.9351C56.6498 27.8627 56.6656 27.7845 56.6651 27.7056V27.6902C56.6654 27.6108 56.6487 27.5323 56.6163 27.4599C56.5839 27.3876 56.5364 27.3231 56.4772 27.2708C56.316 27.156 56.1188 27.1044 55.9226 27.1259H55.9257L55.6415 27.1167C54.2497 27.0797 52.67 27.0365 52.67 25.1048C52.67 24.1644 53.2506 23.1608 54.8807 23.1608H57.979V24.5513H55.1435C54.9273 24.5284 54.7093 24.5725 54.5186 24.6778L54.5247 24.6747C54.4445 24.7304 54.3806 24.807 54.3399 24.8963C54.2992 24.9856 54.2832 25.0844 54.2935 25.1821C54.3039 25.2799 54.3402 25.373 54.3986 25.4517C54.4571 25.5303 54.5355 25.5916 54.6256 25.629L54.6286 25.6305C54.8246 25.6924 55.0302 25.7174 55.2351 25.7045H55.2306L56.0632 25.7261C56.6989 25.6628 57.334 25.8532 57.8324 26.2564L57.8278 26.2518C57.9959 26.4384 58.1237 26.6583 58.2032 26.8974C58.2826 27.1365 58.3119 27.3897 58.2892 27.6408V27.6331C58.2938 28.9944 57.4764 29.6882 55.8646 29.6882L55.8692 29.6913ZM51.9306 29.6913H46.7667V23.1592H51.926V24.5082H48.3097V25.6953H51.8419V27.0257H48.3097V28.3238L51.9306 28.33V29.6866V29.6913ZM54.9403 18.4587H51.7915L51.1896 17.0033H47.9782L47.3946 18.4587H45.5857C44.7733 18.5019 43.9734 18.2436 43.3368 17.7326L43.3444 17.7372C43.0418 17.4005 42.8122 17.0037 42.6701 16.5724C42.5281 16.141 42.4768 15.6845 42.5194 15.232L42.5179 15.2443C42.4774 14.7834 42.5308 14.319 42.6748 13.8797C42.8187 13.4404 43.0503 13.0354 43.3551 12.6898L43.3521 12.6928C43.6728 12.4095 44.0479 12.196 44.454 12.0655C44.8601 11.935 45.2885 11.8903 45.7125 11.9343L45.7003 11.9328H47.1975V13.3249H45.7308C45.5162 13.2967 45.2981 13.3168 45.092 13.3837C44.886 13.4506 44.6972 13.5627 44.5392 13.7119L44.5407 13.7103C44.215 14.1329 44.0565 14.6626 44.0961 15.1965V15.1888C44.0479 15.7374 44.2006 16.2848 44.5254 16.7274L44.5208 16.7212C44.8243 16.9721 45.2133 17.0928 45.604 17.0573H45.5979H46.2915L48.4778 11.9236H50.8L53.4171 18.0902V11.9236H55.7714L58.4878 16.4684V11.9236H60.0767V18.4479H57.8706L54.9372 13.5485V18.4479L54.9403 18.4587ZM49.5946 13.0351L48.5297 15.6374H50.664L49.5946 13.0351ZM34.6239 18.4556H33.0778V11.9282H36.6344C37.2837 11.8604 37.939 11.9718 38.5304 12.2504L38.5075 12.2411C38.7449 12.3743 38.9427 12.569 39.0808 12.805C39.2188 13.041 39.292 13.3099 39.2928 13.5839L39.2897 13.6918V13.6872V13.735C39.2898 14.0911 39.1881 14.4396 38.9968 14.7388C38.8055 15.0379 38.5327 15.275 38.2111 15.4216L38.1989 15.4262C38.506 15.5434 38.7642 15.7315 38.9613 15.972L38.9643 15.9751C39.1838 16.3361 39.2738 16.7622 39.2194 17.1822L39.221 17.1729V18.4541H37.6611L37.655 17.6308V17.5075C37.7119 17.1049 37.6235 16.6951 37.406 16.3528L37.4106 16.3605C37.2485 16.2409 37.0648 16.1547 36.8697 16.1068C36.6747 16.0589 36.4722 16.0503 36.2739 16.0814L36.2831 16.0799H34.6254V18.4541L34.6239 18.4556ZM34.6239 13.2864V14.7356H36.5C36.7651 14.7658 37.0331 14.7176 37.2715 14.5968L37.2639 14.5999C37.3615 14.5395 37.4421 14.455 37.4983 14.3544C37.5544 14.2538 37.5842 14.1403 37.5847 14.0248L37.5832 13.9817C37.591 13.8645 37.5646 13.7492 37.5073 13.647C37.45 13.5448 37.3643 13.4618 37.2608 13.4082L37.2578 13.4066C37.0257 13.3045 36.7722 13.2621 36.5199 13.2833H36.5244L34.6239 13.2864ZM18.2522 18.4556H15.1111L14.5168 17.0003H11.2963L10.6974 18.4556H9.01681L11.7867 11.9282H14.0829L16.7122 18.1056V11.9282H19.2346L21.2574 16.3543L23.1167 11.9282H25.691V18.4525H24.1021L24.099 13.3465L21.8578 18.4541H20.5011L18.2538 13.3388V18.4541L18.2522 18.4556ZM12.8989 13.0351L11.8463 15.6374H13.9576L12.8989 13.0351ZM41.7556 18.4541H40.1789V11.9282H41.7571V18.4525L41.7556 18.4541ZM31.9992 18.4541H26.8444V11.9282H32.0083V13.2848H28.3906V14.4611H31.9213V15.8008H28.3875V17.1051H32.0053V18.4525L31.9992 18.4541Z" fill="#000080"/>
</g>
<defs>
<clipPath id="clip0_1714_2445">
<rect width="55" height="37" fill="white" transform="translate(9 2)"/>
</clipPath>
</defs>
</svg>
