<svg width="46" height="46" viewBox="0 0 46 46" fill="none" xmlns="http://www.w3.org/2000/svg">
<path d="M25.5751 18.2639L24.3168 17.8448C24.2787 17.8316 24.2448 17.8083 24.2189 17.7774C24.1929 17.7465 24.1758 17.7091 24.1694 17.6692C24.163 17.6294 24.1675 17.5885 24.1824 17.551C24.1974 17.5136 24.2222 17.4808 24.2543 17.4563C24.5659 17.1829 24.8139 16.8445 24.9808 16.4649C25.1477 16.0854 25.2293 15.6739 25.2201 15.2593C25.2735 14.6128 25.0707 13.9712 24.6554 13.4729C24.2401 12.9745 23.6456 12.6593 23.0001 12.5952C22.3545 12.6593 21.76 12.9745 21.3447 13.4729C20.9295 13.9713 20.7267 14.6129 20.7801 15.2594C20.7708 15.6739 20.8525 16.0854 21.0193 16.465C21.1862 16.8445 21.4342 17.1829 21.7459 17.4563C21.778 17.4808 21.8028 17.5136 21.8177 17.5511C21.8327 17.5886 21.8372 17.6294 21.8308 17.6693C21.8243 17.7091 21.8072 17.7465 21.7813 17.7774C21.7553 17.8083 21.7215 17.8316 21.6833 17.8448L20.4251 18.2639C20.1189 18.3659 19.8387 18.5335 19.6038 18.7549C19.369 18.9763 19.1853 19.2462 19.0654 19.5458L18.8035 20.2007C18.7765 20.2681 18.7665 20.341 18.7743 20.4132C18.7821 20.4853 18.8074 20.5544 18.8481 20.6145C18.8888 20.6746 18.9436 20.7238 19.0077 20.7578C19.0718 20.7918 19.1433 20.8096 19.2158 20.8095C20.3151 21.6103 21.6401 22.0417 23.0001 22.0417C24.3601 22.0417 25.6851 21.6103 26.7844 20.8095C26.8566 20.8079 26.9275 20.7893 26.9913 20.7555C27.0552 20.7216 27.1102 20.6733 27.1522 20.6144C27.193 20.5544 27.2185 20.4853 27.2263 20.4131C27.234 20.341 27.2239 20.268 27.1967 20.2007L26.9348 19.5458C26.8149 19.2462 26.6312 18.9762 26.3963 18.7548C26.1615 18.5335 25.8812 18.3659 25.5751 18.2639Z" fill="#7FBDE7"/>
<path d="M7.66683 37.375C7.54097 37.3751 7.41634 37.3503 7.30005 37.3021C7.18377 37.254 7.07811 37.1834 6.98911 37.0944C6.90012 37.0054 6.82953 36.8998 6.78138 36.7835C6.73323 36.6672 6.70846 36.5426 6.7085 36.4167V9.63108C6.70848 8.75911 7.00742 7.91348 7.55546 7.23525L9.88953 4.3172C10.246 3.86579 10.7005 3.50138 11.2186 3.25152C11.7368 3.00167 12.3049 2.87292 12.8801 2.87503H35.4585C36.4748 2.87611 37.4492 3.28032 38.1679 3.99898C38.8865 4.71763 39.2907 5.69203 39.2918 6.70836V29.7084C39.2918 29.9625 39.1909 30.2063 39.0111 30.386C38.8314 30.5657 38.5877 30.6667 38.3335 30.6667C38.0793 30.6667 37.8356 30.5657 37.6559 30.386C37.4761 30.2063 37.3752 29.9625 37.3752 29.7084V6.70836C37.3746 6.20021 37.1725 5.71303 36.8131 5.35371C36.4538 4.99439 35.9666 4.79227 35.4585 4.79169H12.8801C12.5933 4.79059 12.31 4.85482 12.0516 4.97953C11.7933 5.10423 11.5668 5.28612 11.3893 5.5114L9.04771 8.43785C8.77438 8.77547 8.62522 9.19669 8.62516 9.63108V36.4167C8.6252 36.5426 8.60043 36.6672 8.55228 36.7835C8.50413 36.8998 8.43354 37.0054 8.34455 37.0944C8.25555 37.1834 8.14989 37.254 8.03361 37.3021C7.91732 37.3503 7.79269 37.3751 7.66683 37.375Z" fill="#232323"/>
<path d="M11.5002 10.5417H7.66683C7.41266 10.5417 7.16891 10.4407 6.98919 10.261C6.80946 10.0813 6.7085 9.8375 6.7085 9.58333C6.7085 9.32916 6.80946 9.08541 6.98919 8.90569C7.16891 8.72596 7.41266 8.625 7.66683 8.625H11.5002V3.87166C11.5002 3.6175 11.6011 3.37374 11.7809 3.19402C11.9606 3.0143 12.2043 2.91333 12.4585 2.91333C12.7127 2.91333 12.9564 3.0143 13.1361 3.19402C13.3159 3.37374 13.4168 3.6175 13.4168 3.87166V8.625C13.4162 9.13315 13.2141 9.62032 12.8548 9.97964C12.4955 10.339 12.0083 10.5411 11.5002 10.5417Z" fill="#232323"/>
<path d="M25.3958 7.66667C25.9251 7.66667 26.3542 7.23761 26.3542 6.70833C26.3542 6.17906 25.9251 5.75 25.3958 5.75C24.8666 5.75 24.4375 6.17906 24.4375 6.70833C24.4375 7.23761 24.8666 7.66667 25.3958 7.66667Z" fill="#232323"/>
<path d="M21.5626 7.66667C22.0919 7.66667 22.5209 7.23761 22.5209 6.70833C22.5209 6.17906 22.0919 5.75 21.5626 5.75C21.0333 5.75 20.6042 6.17906 20.6042 6.70833C20.6042 7.23761 21.0333 7.66667 21.5626 7.66667Z" fill="#232323"/>
<path d="M17.7293 7.66667C18.2586 7.66667 18.6877 7.23761 18.6877 6.70833C18.6877 6.17906 18.2586 5.75 17.7293 5.75C17.2001 5.75 16.771 6.17906 16.771 6.70833C16.771 7.23761 17.2001 7.66667 17.7293 7.66667Z" fill="#232323"/>
<path d="M29.2293 7.66667C29.7586 7.66667 30.1877 7.23761 30.1877 6.70833C30.1877 6.17906 29.7586 5.75 29.2293 5.75C28.7001 5.75 28.271 6.17906 28.271 6.70833C28.271 7.23761 28.7001 7.66667 29.2293 7.66667Z" fill="#232323"/>
<path d="M33.0626 7.66667C33.5919 7.66667 34.0209 7.23761 34.0209 6.70833C34.0209 6.17906 33.5919 5.75 33.0626 5.75C32.5333 5.75 32.1042 6.17906 32.1042 6.70833C32.1042 7.23761 32.5333 7.66667 33.0626 7.66667Z" fill="#232323"/>
<path d="M37.9367 43.1259H10.5418C10.416 43.1259 10.2913 43.1012 10.1751 43.053C10.0588 43.0049 9.95311 42.9343 9.86411 42.8453C9.77512 42.7563 9.70453 42.6506 9.65638 42.5343C9.60823 42.4181 9.58346 42.2934 9.5835 42.1676V36.4176C9.5835 36.1634 9.68446 35.9196 9.86419 35.7399C10.0439 35.5602 10.2877 35.4592 10.5418 35.4592C10.796 35.4592 11.0398 35.5602 11.2195 35.7399C11.3992 35.9196 11.5002 36.1634 11.5002 36.4176V41.2092H37.9367L39.8534 39.2926L37.9367 37.3759H15.3335C15.0793 37.3759 14.8356 37.2749 14.6559 37.0952C14.4761 36.9155 14.3752 36.6717 14.3752 36.4176C14.3752 36.1634 14.4761 35.9196 14.6559 35.7399C14.8356 35.5602 15.0793 35.4592 15.3335 35.4592H37.9367C38.1885 35.4586 38.4379 35.5078 38.6705 35.6042C38.9031 35.7006 39.1143 35.8422 39.2918 36.0207L41.886 38.6149C41.9751 38.7039 42.0457 38.8095 42.0938 38.9258C42.142 39.0421 42.1668 39.1667 42.1668 39.2925C42.1668 39.4184 42.142 39.543 42.0938 39.6592C42.0457 39.7755 41.9751 39.8811 41.886 39.9701L39.2918 42.5643C39.1143 42.7429 38.9031 42.8845 38.6705 42.9809C38.4379 43.0773 38.1885 43.1266 37.9367 43.1259Z" fill="#232323"/>
<path d="M10.5417 43.1249H6.70841C6.20026 43.1243 5.71309 42.9222 5.35377 42.5629C4.99445 42.2036 4.79233 41.7164 4.79175 41.2083V37.3749C4.79233 36.8668 4.99445 36.3796 5.35377 36.0203C5.71309 35.661 6.20026 35.4588 6.70841 35.4583H10.5417C10.6676 35.4582 10.7922 35.483 10.9085 35.5311C11.0248 35.5793 11.1305 35.6499 11.2195 35.7389C11.3085 35.8279 11.3791 35.9335 11.4272 36.0498C11.4753 36.1661 11.5001 36.2907 11.5001 36.4166V42.1666C11.5001 42.2924 11.4753 42.4171 11.4272 42.5334C11.3791 42.6496 11.3085 42.7553 11.2195 42.8443C11.1305 42.9333 11.0248 43.0039 10.9085 43.052C10.7922 43.1002 10.6676 43.125 10.5417 43.1249ZM6.70841 37.3749V41.2083H9.58342V37.3749H6.70841Z" fill="#232323"/>
<path d="M35.4583 43.1249C35.3325 43.125 35.2078 43.1002 35.0916 43.052C34.9753 43.0039 34.8696 42.9333 34.7806 42.8443C34.6916 42.7553 34.621 42.6496 34.5729 42.5334C34.5247 42.4171 34.5 42.2924 34.5 42.1666V36.4166C34.5 36.1624 34.601 35.9187 34.7807 35.7389C34.9604 35.5592 35.2042 35.4583 35.4583 35.4583C35.7125 35.4583 35.9563 35.5592 36.136 35.7389C36.3157 35.9187 36.4167 36.1624 36.4167 36.4166V42.1666C36.4167 42.2924 36.3919 42.4171 36.3438 42.5334C36.2956 42.6496 36.225 42.7553 36.1361 42.8443C36.0471 42.9333 35.9414 43.0039 35.8251 43.052C35.7088 43.1002 35.5842 43.125 35.4583 43.1249Z" fill="#232323"/>
<path d="M31.6252 40.2499H10.5418C10.2877 40.2499 10.0439 40.149 9.86419 39.9692C9.68446 39.7895 9.5835 39.5458 9.5835 39.2916C9.5835 39.0374 9.68446 38.7937 9.86419 38.6139C10.0439 38.4342 10.2877 38.3333 10.5418 38.3333H31.6252C31.8793 38.3333 32.1231 38.4342 32.3028 38.6139C32.4825 38.7937 32.5835 39.0374 32.5835 39.2916C32.5835 39.5458 32.4825 39.7895 32.3028 39.9692C32.1231 40.149 31.8793 40.2499 31.6252 40.2499Z" fill="#232323"/>
<path d="M23.0001 22.9999C21.6733 22.9999 20.3763 22.6065 19.2731 21.8694C18.17 21.1322 17.3101 20.0845 16.8024 18.8588C16.2947 17.633 16.1618 16.2841 16.4206 14.9829C16.6795 13.6816 17.3184 12.4863 18.2566 11.5481C19.1948 10.6099 20.3901 9.971 21.6914 9.71215C22.9926 9.45331 24.3415 9.58616 25.5673 10.0939C26.793 10.6016 27.8407 11.4615 28.5779 12.5646C29.315 13.6678 29.7084 14.9648 29.7084 16.2916C29.7063 18.0701 28.9989 19.7752 27.7413 21.0328C26.4837 22.2904 24.7786 22.9978 23.0001 22.9999ZM23.0001 11.4999C22.0524 11.4999 21.126 11.7809 20.338 12.3075C19.55 12.834 18.9358 13.5823 18.5732 14.4579C18.2105 15.3335 18.1156 16.2969 18.3005 17.2264C18.4854 18.1559 18.9417 19.0097 19.6119 19.6798C20.282 20.3499 21.1358 20.8063 22.0653 20.9912C22.9948 21.1761 23.9582 21.0812 24.8338 20.7185C25.7093 20.3558 26.4577 19.7417 26.9842 18.9537C27.5107 18.1657 27.7918 17.2393 27.7918 16.2916C27.7903 15.0212 27.2849 13.8033 26.3867 12.905C25.4884 12.0067 24.2705 11.5014 23.0001 11.4999Z" fill="#7FBDE7"/>
<path d="M23.4792 33.0624H13.8958C13.6417 33.0624 13.3979 32.9615 13.2182 32.7817C13.0385 32.602 12.9375 32.3583 12.9375 32.1041C12.9375 31.8499 13.0385 31.6062 13.2182 31.4264C13.3979 31.2467 13.6417 31.1458 13.8958 31.1458H23.4792C23.7333 31.1458 23.9771 31.2467 24.1568 31.4264C24.3365 31.6062 24.4375 31.8499 24.4375 32.1041C24.4375 32.3583 24.3365 32.602 24.1568 32.7817C23.9771 32.9615 23.7333 33.0624 23.4792 33.0624Z" fill="#7FBDE7"/>
<path d="M32.1042 29.7084H13.8958C13.6417 29.7084 13.3979 29.6074 13.2182 29.4277C13.0385 29.248 12.9375 29.0042 12.9375 28.7501C12.9375 28.4959 13.0385 28.2522 13.2182 28.0724C13.3979 27.8927 13.6417 27.7917 13.8958 27.7917H32.1042C32.3583 27.7917 32.6021 27.8927 32.7818 28.0724C32.9615 28.2522 33.0625 28.4959 33.0625 28.7501C33.0625 29.0042 32.9615 29.248 32.7818 29.4277C32.6021 29.6074 32.3583 29.7084 32.1042 29.7084Z" fill="#7FBDE7"/>
<path d="M32.1042 26.3542H13.8958C13.6417 26.3542 13.3979 26.2532 13.2182 26.0735C13.0385 25.8938 12.9375 25.65 12.9375 25.3958C12.9375 25.1417 13.0385 24.8979 13.2182 24.7182C13.3979 24.5385 13.6417 24.4375 13.8958 24.4375H32.1042C32.3583 24.4375 32.6021 24.5385 32.7818 24.7182C32.9615 24.8979 33.0625 25.1417 33.0625 25.3958C33.0625 25.65 32.9615 25.8938 32.7818 26.0735C32.6021 26.2532 32.3583 26.3542 32.1042 26.3542Z" fill="#7FBDE7"/>
<path d="M38.3333 33.5417C38.8626 33.5417 39.2917 33.1126 39.2917 32.5833C39.2917 32.0541 38.8626 31.625 38.3333 31.625C37.8041 31.625 37.375 32.0541 37.375 32.5833C37.375 33.1126 37.8041 33.5417 38.3333 33.5417Z" fill="#232323"/>
</svg>
