<svg width="123" height="123" viewBox="0 0 123 123" fill="none" xmlns="http://www.w3.org/2000/svg">
<rect width="123" height="123" rx="61.5" fill="#38419A"/>
<g clip-path="url(#clip0_101_1800)">
<path d="M52.5938 56.75C55.2063 56.75 57.3438 54.6125 57.3438 52V49.0312C57.3438 48.675 57.1062 48.4375 56.75 48.4375C56.3938 48.4375 56.1562 48.675 56.1562 49.0312V52C56.1562 53.9594 54.5531 55.5625 52.5938 55.5625C50.6344 55.5625 49.0312 53.9594 49.0312 52V50.2188C49.0312 49.8625 48.7937 49.625 48.4375 49.625C48.0812 49.625 47.8438 49.8625 47.8438 50.2188V52C47.8438 54.6125 49.9813 56.75 52.5938 56.75Z" fill="white"/>
<path d="M48.4375 48.4375H54.375C56.0375 48.4375 57.3438 47.1312 57.3438 45.4688V44.2812C57.3438 43.925 57.1062 43.6875 56.75 43.6875H50.8125C49.15 43.6875 47.8438 44.9937 47.8438 46.6562V47.8438C47.8438 48.2 48.0812 48.4375 48.4375 48.4375ZM49.0312 46.6562C49.0312 45.6469 49.8031 44.875 50.8125 44.875H56.1562V45.4688C56.1562 46.4781 55.3844 47.25 54.375 47.25H49.0312V46.6562Z" fill="white"/>
<path d="M52.6531 60.2531C53.7812 60.2531 54.7906 59.7781 55.5031 58.8875C55.6812 58.65 55.6812 58.2344 55.3844 58.0563C55.1469 57.8781 54.7312 57.8781 54.5531 58.175C54.0781 58.7688 53.3656 59.0656 52.6531 59.0656C51.9406 59.0656 51.2281 58.7094 50.7531 58.175C50.575 57.9375 50.1594 57.8781 49.9219 58.0563C49.6844 58.2344 49.625 58.65 49.8031 58.8875C50.5156 59.7781 51.525 60.2531 52.6531 60.2531Z" fill="white"/>
<path d="M56.8094 58.5312C56.8094 58.8875 57.0469 59.125 57.4031 59.125C58.8281 59.125 60.0156 60.1344 60.3125 61.5H51.4062C50.3969 61.5 49.625 62.2719 49.625 63.2812V68.625H47.8438C47.4875 68.625 47.25 68.8625 47.25 69.2188C47.25 69.575 47.4875 69.8125 47.8438 69.8125H49.625V72.7812C49.625 73.1375 49.8625 73.375 50.2188 73.375C50.575 73.375 50.8125 73.1375 50.8125 72.7812V63.2812C50.8125 62.925 51.05 62.6875 51.4062 62.6875H62.0938C62.45 62.6875 62.6875 62.925 62.6875 63.2812V72.7812C62.6875 73.1375 62.925 73.375 63.2812 73.375C63.6375 73.375 63.875 73.1375 63.875 72.7812V63.2812C63.875 62.2719 63.1031 61.5 62.0938 61.5H61.5C61.2031 59.4812 59.4812 57.9375 57.4031 57.9375C57.0469 57.9375 56.8094 58.175 56.8094 58.5312Z" fill="white"/>
<path d="M44.2812 73.375C44.6375 73.375 44.875 73.1375 44.875 72.7812V62.0938C44.875 60.4313 46.1813 59.125 47.8438 59.125C48.2 59.125 48.4375 58.8875 48.4375 58.5312C48.4375 58.175 48.2 57.9375 47.8438 57.9375C45.5281 57.9375 43.6875 59.7781 43.6875 62.0938V72.7812C43.6875 73.1375 43.925 73.375 44.2812 73.375Z" fill="white"/>
<path d="M79.9062 74.5625H43.0938C42.7375 74.5625 42.5 74.8 42.5 75.1562V78.7188C42.5 79.075 42.7375 79.3125 43.0938 79.3125H79.9062C80.2625 79.3125 80.5 79.075 80.5 78.7188V75.1562C80.5 74.8 80.2625 74.5625 79.9062 74.5625ZM79.3125 78.125H43.6875V75.75H79.3125V78.125Z" fill="white"/>
<path d="M79.9062 46.6562H69.2188C67.5562 46.6562 66.25 47.9625 66.25 49.625V62.6875C66.25 64.35 67.5562 65.6562 69.2188 65.6562H79.9062C80.2625 65.6562 80.5 65.4188 80.5 65.0625V60.3125V47.25C80.5 46.8937 80.2625 46.6562 79.9062 46.6562ZM79.3125 62.0938H69.2188C68.8625 62.0938 68.625 62.3313 68.625 62.6875C68.625 63.0438 68.8625 63.2812 69.2188 63.2812H79.3125V64.4688H69.2188C68.2094 64.4688 67.4375 63.6969 67.4375 62.6875C67.4375 61.6781 68.2094 60.9062 69.2188 60.9062H79.3125V62.0938ZM79.3125 59.7188H69.2188C68.5656 59.7188 67.9125 59.9563 67.4375 60.3125V49.625C67.4375 48.6156 68.2094 47.8438 69.2188 47.8438H79.3125V59.7188Z" fill="white"/>
<path d="M68.625 49.625V57.9375C68.625 58.2937 68.8625 58.5312 69.2188 58.5312C69.575 58.5312 69.8125 58.2937 69.8125 57.9375V49.625C69.8125 49.2687 69.575 49.0312 69.2188 49.0312C68.8625 49.0312 68.625 49.2687 68.625 49.625Z" fill="white"/>
<path d="M71.5938 52.5938H77.5312C77.8875 52.5938 78.125 52.3563 78.125 52V49.625C78.125 49.2687 77.8875 49.0312 77.5312 49.0312H71.5938C71.2375 49.0312 71 49.2687 71 49.625V52C71 52.3563 71.2375 52.5938 71.5938 52.5938ZM72.1875 50.2188H76.9375V51.4062H72.1875V50.2188Z" fill="white"/>
<path d="M53.4844 68.3281C53.4844 70.1094 54.9688 71.5938 56.75 71.5938C58.5312 71.5938 60.0156 70.1094 60.0156 68.3281C60.0156 66.5469 58.5312 65.0625 56.75 65.0625C54.9688 65.0625 53.4844 66.4875 53.4844 68.3281ZM58.8281 68.3281C58.8281 69.4563 57.8781 70.4062 56.75 70.4062C55.6219 70.4062 54.6719 69.4563 54.6719 68.3281C54.6719 67.2 55.6219 66.25 56.75 66.25C57.8781 66.25 58.8281 67.1406 58.8281 68.3281Z" fill="white"/>
</g>
<defs>
<clipPath id="clip0_101_1800">
<rect width="38" height="38" fill="white" transform="translate(42.5 42.5)"/>
</clipPath>
</defs>
</svg>
