<svg width="39" height="39" viewBox="0 0 39 39" fill="none" xmlns="http://www.w3.org/2000/svg">
<path d="M19.5 33.75C21.3714 33.75 23.2244 33.3815 24.9533 32.6653C26.6822 31.9492 28.2531 30.8995 29.5763 29.5763C30.8995 28.2531 31.9492 26.6822 32.6653 24.9533C33.3815 23.2244 33.75 21.3714 33.75 19.5C33.75 17.6287 33.3815 15.7757 32.6653 14.0468C31.9492 12.3179 30.8995 10.747 29.5763 9.42377C28.2531 8.10053 26.6822 7.05089 24.9533 6.33476C23.2244 5.61863 21.3714 5.25004 19.5 5.25004C15.7207 5.25004 12.0962 6.75138 9.42377 9.42377C6.75138 12.0962 5.25004 15.7207 5.25004 19.5C5.25004 23.2794 6.75138 26.9039 9.42377 29.5763C12.0962 32.2487 15.7207 33.75 19.5 33.75ZM36.9167 19.5C36.9167 29.1188 29.1188 36.9167 19.5 36.9167C9.88129 36.9167 2.08337 29.1188 2.08337 19.5C2.08337 9.88129 9.88129 2.08337 19.5 2.08337C29.1188 2.08337 36.9167 9.88129 36.9167 19.5ZM24.25 26.4889L17.9167 20.1555V9.20837H21.0834V18.8445L26.4889 24.25L24.25 26.4889Z" fill="white"/>
</svg>
