<svg width="57" height="57" viewBox="0 0 57 57" fill="none" xmlns="http://www.w3.org/2000/svg">
<path d="M32.4685 6.74609H6.21851C4.76876 6.74609 3.59351 7.92135 3.59351 9.37109V42.6211C3.59351 44.0708 4.76876 45.2461 6.21851 45.2461H32.4685C33.9183 45.2461 35.0935 44.0708 35.0935 42.6211V9.37109C35.0935 7.92135 33.9183 6.74609 32.4685 6.74609Z" fill="#3FB5C4"/>
<path d="M36.8435 11.1211H10.5935C9.14376 11.1211 7.96851 12.2963 7.96851 13.7461V46.9961C7.96851 48.4458 9.14376 49.6211 10.5935 49.6211H36.8435C38.2933 49.6211 39.4685 48.4458 39.4685 46.9961V13.7461C39.4685 12.2963 38.2933 11.1211 36.8435 11.1211Z" fill="#5AC6D4"/>
<path d="M43.8435 18.1211V51.3711C43.8441 51.6693 43.793 51.9653 43.6926 52.2461C43.5117 52.7578 43.1766 53.2008 42.7336 53.5142C42.2905 53.8276 41.7612 53.9959 41.2185 53.9961H14.9685C14.2724 53.9959 13.6048 53.7193 13.1125 53.2271C12.6203 52.7348 12.3437 52.0672 12.3435 51.3711V23.3711L20.2185 15.4961H41.2185C41.9146 15.4963 42.5822 15.7729 43.0745 16.2651C43.5667 16.7574 43.8433 17.425 43.8435 18.1211Z" fill="#60D1E0"/>
<path d="M43.8435 18.1211V28.1212L41.2185 30.3711V25.1211H35.9685C35.0402 25.1211 34.15 24.7523 33.4936 24.096C32.8373 23.4396 32.4685 22.5494 32.4685 21.6211V15.4961H41.2185C41.9146 15.4963 42.5822 15.7729 43.0745 16.2651C43.5667 16.7574 43.8433 17.425 43.8435 18.1211Z" fill="#5AC6D4"/>
<path d="M43.8435 42.6211H29.8435L25.4685 45.2461L29.8435 47.8711H43.8435V42.6211Z" fill="#5AC6D4"/>
<path d="M43.8435 50.4961V51.3711C43.8441 51.6693 43.793 51.9653 43.6926 52.2461H42.0935V50.4961H43.8435Z" fill="#5AC6D4"/>
<path d="M18.4685 32.9961C17.9493 32.9961 17.4418 32.8421 17.0101 32.5537C16.5785 32.2653 16.242 31.8553 16.0433 31.3756C15.8446 30.896 15.7927 30.3682 15.8939 29.859C15.9952 29.3498 16.2452 28.8821 16.6124 28.5149C16.9795 28.1478 17.4472 27.8978 17.9564 27.7965C18.4656 27.6952 18.9934 27.7472 19.4731 27.9459C19.9527 28.1446 20.3627 28.481 20.6511 28.9127C20.9396 29.3444 21.0935 29.8519 21.0935 30.3711C21.0927 31.067 20.8159 31.7343 20.3238 32.2264C19.8317 32.7185 19.1645 32.9953 18.4685 32.9961ZM18.4685 29.4961C18.2954 29.4961 18.1263 29.5474 17.9824 29.6436C17.8385 29.7397 17.7263 29.8764 17.6601 30.0362C17.5939 30.1961 17.5766 30.3721 17.6103 30.5418C17.6441 30.7115 17.7274 30.8674 17.8498 30.9898C17.9722 31.1122 18.1281 31.1955 18.2978 31.2293C18.4675 31.263 18.6435 31.2457 18.8034 31.1795C18.9632 31.1133 19.0999 31.0011 19.196 30.8572C19.2922 30.7133 19.3435 30.5442 19.3435 30.3711C19.3432 30.1391 19.251 29.9167 19.0869 29.7527C18.9229 29.5886 18.7005 29.4964 18.4685 29.4961Z" fill="#3B9DC7"/>
<path d="M22.8435 27.7461H36.8435V29.4961H22.8435V27.7461Z" fill="#3B9DC7"/>
<path d="M22.8435 31.2461H40.3435V32.9961H22.8435V31.2461Z" fill="#3B9DC7"/>
<path d="M18.4685 41.7461C17.9493 41.7461 17.4418 41.5921 17.0101 41.3037C16.5785 41.0153 16.242 40.6053 16.0433 40.1256C15.8446 39.646 15.7927 39.1182 15.8939 38.609C15.9952 38.0998 16.2452 37.6321 16.6124 37.2649C16.9795 36.8978 17.4472 36.6478 17.9564 36.5465C18.4656 36.4452 18.9934 36.4972 19.4731 36.6959C19.9527 36.8946 20.3627 37.231 20.6511 37.6627C20.9396 38.0944 21.0935 38.6019 21.0935 39.1211C21.0927 39.817 20.8159 40.4843 20.3238 40.9764C19.8317 41.4685 19.1645 41.7453 18.4685 41.7461ZM18.4685 38.2461C18.2954 38.2461 18.1263 38.2974 17.9824 38.3936C17.8385 38.4897 17.7263 38.6264 17.6601 38.7862C17.5939 38.9461 17.5766 39.1221 17.6103 39.2918C17.6441 39.4615 17.7274 39.6174 17.8498 39.7398C17.9722 39.8622 18.1281 39.9455 18.2978 39.9793C18.4675 40.013 18.6435 39.9957 18.8034 39.9295C18.9632 39.8633 19.0999 39.7511 19.196 39.6072C19.2922 39.4633 19.3435 39.2942 19.3435 39.1211C19.3432 38.8891 19.251 38.6667 19.0869 38.5027C18.9229 38.3386 18.7005 38.2464 18.4685 38.2461Z" fill="#3B9DC7"/>
<path d="M22.8435 36.4961H40.3435V38.2461H22.8435V36.4961Z" fill="#3B9DC7"/>
<path d="M18.4685 50.4961C17.9493 50.4961 17.4418 50.3421 17.0101 50.0537C16.5785 49.7653 16.242 49.3553 16.0433 48.8756C15.8446 48.396 15.7927 47.8682 15.8939 47.359C15.9952 46.8498 16.2452 46.3821 16.6124 46.0149C16.9795 45.6478 17.4472 45.3978 17.9564 45.2965C18.4656 45.1952 18.9934 45.2472 19.4731 45.4459C19.9527 45.6446 20.3627 45.981 20.6511 46.4127C20.9396 46.8444 21.0935 47.3519 21.0935 47.8711C21.0927 48.567 20.8159 49.2343 20.3238 49.7264C19.8317 50.2185 19.1645 50.4953 18.4685 50.4961ZM18.4685 46.9961C18.2954 46.9961 18.1263 47.0474 17.9824 47.1436C17.8385 47.2397 17.7263 47.3764 17.6601 47.5362C17.5939 47.6961 17.5766 47.8721 17.6103 48.0418C17.6441 48.2115 17.7274 48.3674 17.8498 48.4898C17.9722 48.6122 18.1281 48.6955 18.2978 48.7293C18.4675 48.763 18.6435 48.7457 18.8034 48.6795C18.9632 48.6133 19.0999 48.5011 19.196 48.3572C19.2922 48.2133 19.3435 48.0442 19.3435 47.8711C19.3432 47.6391 19.251 47.4167 19.0869 47.2527C18.9229 47.0886 18.7005 46.9964 18.4685 46.9961Z" fill="#3B9DC7"/>
<path d="M22.8435 48.7461H38.5935V50.4961H22.8435V48.7461Z" fill="#3B9DC7"/>
<path d="M22.8435 18.9961H28.0935V20.7461H22.8435V18.9961Z" fill="#3B9DC7"/>
<path d="M22.8435 22.4961H28.0935V24.2461H22.8435V22.4961Z" fill="#3B9DC7"/>
<path d="M28.0935 40.8711H51.7185C52.4147 40.8711 53.0824 41.1477 53.5747 41.6399C54.0669 42.1322 54.3435 42.7999 54.3435 43.4961C54.3435 44.1923 54.0669 44.86 53.5747 45.3522C53.0824 45.8445 52.4147 46.1211 51.7185 46.1211H28.0935V40.8711Z" fill="#6E3D26"/>
<path d="M51.7185 43.4961H28.0935V46.1211H51.7185C52.4147 46.1211 53.0824 45.8445 53.5747 45.3522C54.0669 44.86 54.3435 44.1923 54.3435 43.4961C54.344 43.0352 54.2226 42.5824 53.9914 42.1836C53.7612 42.5827 53.4299 42.9142 53.0309 43.1446C52.6319 43.375 52.1793 43.4962 51.7185 43.4961Z" fill="#5C2E1A"/>
<path d="M28.0935 40.8711L23.7185 43.4961L28.0935 46.1211V40.8711Z" fill="#FFB531"/>
<path d="M49.0935 50.4961H40.3435V48.7461H49.0935C49.3255 48.7458 49.5479 48.6536 49.7119 48.4895C49.876 48.3255 49.9682 48.1031 49.9685 47.8711V40.8711H51.7185V47.8711C51.7177 48.567 51.4409 49.2343 50.9488 49.7264C50.4567 50.2185 49.7895 50.4953 49.0935 50.4961Z" fill="#FFB531"/>
<path d="M36.8435 40.8711H38.5935V46.1211H36.8435V40.8711Z" fill="#FFB531"/>
<path d="M54.3435 6.7461V19.8711C54.3435 20.7994 53.9748 21.6896 53.3184 22.346C52.662 23.0023 51.7718 23.3711 50.8435 23.3711H45.5935L39.4685 28.6211V23.3711H34.2185C33.3539 23.371 32.52 23.0509 31.8774 22.4725C31.2348 21.8942 30.829 21.0984 30.7382 20.2386C30.725 20.1165 30.7184 19.9939 30.7185 19.8711V6.7461C30.7185 5.81784 31.0873 4.9276 31.7436 4.27122C32.4 3.61485 33.2902 3.2461 34.2185 3.2461H50.8435C51.3033 3.24543 51.7587 3.33551 52.1837 3.51117C52.6086 3.68683 52.9947 3.94461 53.3199 4.26975C53.645 4.59488 53.9028 4.98098 54.0784 5.40592C54.2541 5.83086 54.3442 6.28628 54.3435 6.7461Z" fill="#FFB531"/>
<path d="M54.3436 6.74613V19.8711C54.3436 20.7994 53.9748 21.6896 53.3185 22.346C52.6621 23.0024 51.7719 23.3711 50.8436 23.3711H45.5936L39.4686 28.6211V23.3711H34.2186C33.354 23.371 32.5201 23.051 31.8775 22.4726C31.2349 21.8942 30.8291 21.0984 30.7383 20.2386C39.5758 17.6793 47.8227 12.9958 54.01 5.25098C54.2301 5.71868 54.344 6.22925 54.3436 6.74613Z" fill="#FFA912"/>
<path d="M42.9685 17.2461H41.2185V15.9025C41.2171 15.3812 41.3191 14.8647 41.5186 14.383C41.7181 13.9013 42.0112 13.464 42.3808 13.0963L44.0687 11.4084C44.379 11.0982 44.5903 10.7028 44.6759 10.2725C44.7615 9.84212 44.7176 9.39604 44.5496 8.99065C44.3817 8.58526 44.0974 8.23876 43.7325 7.99499C43.3677 7.75121 42.9387 7.62109 42.4999 7.62109H41.6871C41.0989 7.62179 40.535 7.85575 40.1191 8.27166C39.7032 8.68757 39.4692 9.25147 39.4685 9.83966V11.1211H37.7185V9.83966C37.7197 8.78749 38.1382 7.77876 38.8822 7.03477C39.6262 6.29078 40.6349 5.87228 41.6871 5.87109H42.4999C43.2849 5.87108 44.0522 6.10382 44.7048 6.53989C45.3574 6.97596 45.8661 7.59577 46.1665 8.32094C46.4669 9.04611 46.5455 9.84407 46.3923 10.6139C46.2392 11.3837 45.8612 12.0909 45.3062 12.6459L43.6183 14.3338C43.4116 14.5393 43.2478 14.7838 43.1363 15.0531C43.0247 15.3223 42.9677 15.6111 42.9685 15.9025V17.2461Z" fill="#F35244"/>
<path d="M41.2185 18.9961H42.9685V20.7461H41.2185V18.9961Z" fill="#F35244"/>
<path d="M12.3435 23.3711H17.5935C18.2897 23.3711 18.9574 23.0945 19.4497 22.6022C19.9419 22.11 20.2185 21.4423 20.2185 20.7461V15.4961L12.3435 23.3711Z" fill="#9FE4ED"/>
</svg>
