<svg width="73" height="41" viewBox="0 0 73 41" fill="none" xmlns="http://www.w3.org/2000/svg">
<rect width="73" height="41" rx="5" fill="#D9D9D9"/>
<g clip-path="url(#clip0_1714_2436)">
<path d="M23.7719 35.8459V33.7941C23.7719 33.0075 23.2916 32.4946 22.4683 32.4946C22.0568 32.4946 21.6108 32.6314 21.3021 33.076C21.0621 32.6998 20.7191 32.4946 20.2046 32.4946C19.8615 32.4946 19.5186 32.5971 19.2441 32.9733V32.563H18.5238V35.8459H19.2441V34.0334C19.2441 33.4522 19.5529 33.1785 20.0332 33.1785C20.5132 33.1785 20.7535 33.4863 20.7535 34.0334V35.8459H21.4738V34.0334C21.4738 33.4522 21.8166 33.1785 22.2626 33.1785C22.7429 33.1785 22.9829 33.4863 22.9829 34.0334V35.8459H23.7719ZM34.4393 32.563H33.2732V31.5713H32.5529V32.563H31.9011V33.2126H32.5527V34.7174C32.5527 35.4699 32.8615 35.9143 33.6847 35.9143C33.9935 35.9143 34.3363 35.8118 34.5766 35.675L34.3707 35.0594C34.1649 35.1962 33.9249 35.2304 33.7533 35.2304C33.4104 35.2304 33.2732 35.0253 33.2732 34.6832V33.2126H34.4393V32.563ZM40.5449 32.4945C40.1333 32.4945 39.859 32.6998 39.6874 32.9733V32.563H38.9671V35.8459H39.6874V33.9993C39.6874 33.4522 39.9274 33.1444 40.3733 33.1444C40.5105 33.1444 40.6821 33.1787 40.8193 33.2128L41.0251 32.5289C40.8879 32.4946 40.6821 32.4946 40.5449 32.4946M31.318 32.8367C30.9749 32.5973 30.4947 32.4948 29.9802 32.4948C29.1571 32.4948 28.6083 32.9051 28.6083 33.5549C28.6083 34.1021 29.0199 34.4098 29.7402 34.5124L30.0832 34.5467C30.4605 34.6149 30.6663 34.7176 30.6663 34.8886C30.6663 35.1279 30.3919 35.299 29.9116 35.299C29.4313 35.299 29.0541 35.1279 28.814 34.957L28.471 35.5041C28.8483 35.7777 29.3629 35.9145 29.8772 35.9145C30.8377 35.9145 31.3866 35.47 31.3866 34.8544C31.3866 34.273 30.9407 33.9652 30.2546 33.8627L29.9116 33.8284C29.6029 33.7941 29.3629 33.7259 29.3629 33.5208C29.3629 33.2813 29.6029 33.1445 29.9802 33.1445C30.3919 33.1445 30.8035 33.3154 31.0093 33.4181L31.318 32.8367ZM50.4579 32.4948C50.0461 32.4948 49.7718 32.7 49.6002 32.9735V32.5632H48.8799V35.8461H49.6002V33.9995C49.6002 33.4524 49.8404 33.1445 50.2861 33.1445C50.4235 33.1445 50.5951 33.1788 50.7322 33.2129L50.938 32.5291C50.8008 32.4948 50.5951 32.4948 50.4579 32.4948ZM41.2652 34.2046C41.2652 35.1963 41.9511 35.9145 43.0146 35.9145C43.4947 35.9145 43.8377 35.8119 44.1807 35.5384L43.8377 34.957C43.5633 35.1622 43.289 35.2647 42.9802 35.2647C42.3971 35.2647 41.9855 34.8544 41.9855 34.2046C41.9855 33.5891 42.3971 33.1787 42.9802 33.1445C43.289 33.1445 43.5633 33.247 43.8377 33.4524L44.1807 32.871C43.8377 32.5973 43.4947 32.4948 43.0146 32.4948C41.9511 32.4948 41.2652 33.2129 41.2652 34.2046ZM47.9196 34.2046V32.5632H47.1993V32.9735C46.9591 32.6658 46.6161 32.4948 46.1702 32.4948C45.2441 32.4948 44.5238 33.2129 44.5238 34.2046C44.5238 35.1963 45.2441 35.9145 46.1702 35.9145C46.6504 35.9145 46.9935 35.7436 47.1993 35.4357V35.8461H47.9196V34.2046ZM45.2783 34.2046C45.2783 33.6233 45.6557 33.1445 46.273 33.1445C46.8561 33.1445 47.2679 33.5891 47.2679 34.2046C47.2679 34.786 46.8561 35.2647 46.273 35.2647C45.6557 35.2304 45.2783 34.786 45.2783 34.2046ZM36.669 32.4948C35.7085 32.4948 35.0224 33.1787 35.0224 34.2046C35.0224 35.2306 35.7083 35.9145 36.7032 35.9145C37.1833 35.9145 37.6636 35.7777 38.041 35.47L37.6979 34.957C37.4235 35.1622 37.0805 35.299 36.7376 35.299C36.2916 35.299 35.8457 35.0938 35.7427 34.5123H38.1782V34.2389C38.2126 33.1787 37.5952 32.4948 36.669 32.4948ZM36.6688 33.1103C37.1146 33.1103 37.4235 33.384 37.4919 33.897H35.7769C35.8455 33.4524 36.1543 33.1103 36.6688 33.1103ZM54.5394 34.2046V31.2637H53.8191V32.9735C53.579 32.6658 53.236 32.4948 52.7901 32.4948C51.864 32.4948 51.1436 33.2129 51.1436 34.2046C51.1436 35.1963 51.864 35.9145 52.7901 35.9145C53.2704 35.9145 53.6133 35.7436 53.8191 35.4357V35.8461H54.5394V34.2046ZM51.8983 34.2046C51.8983 33.6233 52.2755 33.1445 52.893 33.1445C53.4761 33.1445 53.8877 33.5891 53.8877 34.2046C53.8877 34.786 53.4761 35.2647 52.893 35.2647C52.2755 35.2304 51.8983 34.786 51.8983 34.2046ZM27.8191 34.2046V32.5632H27.0988V32.9735C26.8586 32.6658 26.5157 32.4948 26.0697 32.4948C25.1436 32.4948 24.4233 33.2129 24.4233 34.2046C24.4233 35.1963 25.1436 35.9145 26.0697 35.9145C26.5501 35.9145 26.893 35.7436 27.0988 35.4357V35.8461H27.8191V34.2046ZM25.1436 34.2046C25.1436 33.6233 25.521 33.1445 26.1383 33.1445C26.7215 33.1445 27.1332 33.5891 27.1332 34.2046C27.1332 34.786 26.7215 35.2647 26.1383 35.2647C25.521 35.2304 25.1436 34.786 25.1436 34.2046Z" fill="black"/>
<path d="M31.0778 7.63281H41.8824V26.9885H31.0778V7.63281Z" fill="#FF5F00"/>
<path d="M31.7639 17.311C31.7639 13.3784 33.6161 9.89021 36.463 7.63313C34.3708 5.99169 31.7297 5 28.8484 5C22.0223 5 16.5 10.5057 16.5 17.311C16.5 24.1164 22.0223 29.6221 28.8483 29.6221C31.7295 29.6221 34.3706 28.6304 36.463 26.9888C33.6161 24.766 31.7639 21.2437 31.7639 17.311Z" fill="#EB001B"/>
<path d="M56.4603 17.311C56.4603 24.1163 50.9379 29.6221 44.112 29.6221C41.2308 29.6221 38.5897 28.6304 36.4973 26.9888C39.3786 24.7319 41.1965 21.2437 41.1965 17.311C41.1965 13.3784 39.3442 9.89021 36.4973 7.63313C38.5895 5.99169 41.2308 5 44.112 5C50.9379 5 56.4603 10.54 56.4603 17.311Z" fill="#F79E1B"/>
</g>
<defs>
<clipPath id="clip0_1714_2436">
<rect width="40" height="31" fill="white" transform="translate(16.5 5)"/>
</clipPath>
</defs>
</svg>
