<svg width="140" height="42" viewBox="0 0 140 42" fill="none" xmlns="http://www.w3.org/2000/svg">
<g clip-path="url(#clip0_1714_2360)">
<path d="M134.815 42.0003H5.18552C4.50273 42.007 3.82546 41.8758 3.19334 41.6144C2.56122 41.3529 1.98694 40.9664 1.50411 40.4776C1.02128 39.9887 0.639586 39.4072 0.381364 38.7672C0.123141 38.1272 -0.0064252 37.4414 0.000245046 36.7501V5.25041C-0.0064252 4.55907 0.123141 3.87333 0.381364 3.2333C0.639586 2.59327 1.02128 2.01181 1.50411 1.52293C1.98694 1.03406 2.56122 0.647589 3.19334 0.386136C3.82546 0.124682 4.50273 -0.00650559 5.18552 0.000248112H134.815C135.498 -0.00650559 136.175 0.124682 136.807 0.386136C137.439 0.647589 138.014 1.03406 138.496 1.52293C138.979 2.01181 139.361 2.59327 139.619 3.2333C139.877 3.87333 140.007 4.55907 140 5.25041V36.7501C140.007 37.4414 139.877 38.1272 139.619 38.7672C139.361 39.4072 138.979 39.9887 138.496 40.4776C138.014 40.9664 137.439 41.3529 136.807 41.6144C136.175 41.8758 135.498 42.007 134.815 42.0003Z" fill="black"/>
<path d="M134.815 0.839819C135.967 0.847629 137.069 1.31439 137.884 2.13907C138.698 2.96375 139.159 4.08002 139.167 5.24627V36.7498C139.159 37.9161 138.698 39.0324 137.884 39.857C137.069 40.6817 135.967 41.1485 134.815 41.1563H5.18552C4.03368 41.1485 2.93121 40.6817 2.11672 39.857C1.30223 39.0324 0.841239 37.9161 0.833525 36.7498V5.25016C0.841239 4.08391 1.30223 2.96764 2.11672 2.14296C2.93121 1.31827 4.03368 0.851517 5.18552 0.843707L134.815 0.839819ZM134.815 0H5.18552C3.81155 0.00410276 2.49501 0.558561 1.52345 1.54227C0.551903 2.52598 0.0042971 3.85899 0.000245046 5.25016V36.7498C-0.0064252 37.4412 0.123141 38.1269 0.381364 38.7669C0.639586 39.407 1.02128 39.9884 1.50411 40.4773C1.98694 40.9662 2.56122 41.3527 3.19334 41.6141C3.82546 41.8756 4.50273 42.0068 5.18552 42H134.815C135.498 42.0068 136.175 41.8756 136.807 41.6141C137.439 41.3527 138.014 40.9662 138.496 40.4773C138.979 39.9884 139.361 39.407 139.619 38.7669C139.877 38.1269 140.007 37.4412 140 36.7498V5.25016C139.996 3.85899 139.449 2.52598 138.477 1.54227C137.505 0.558561 136.189 0.00410276 134.815 0Z" fill="#A6A6A6"/>
<path d="M49.0675 10.7272C49.0913 11.1116 49.0388 11.497 48.913 11.8605C48.7873 12.224 48.5908 12.5583 48.3353 12.8436C47.8817 13.3058 47.3025 13.6208 46.6714 13.7485C46.0404 13.8762 45.386 13.8107 44.7918 13.5605C44.1976 13.3103 43.6905 12.8866 43.3349 12.3435C42.9794 11.8004 42.7916 11.1624 42.7955 10.5108C42.7924 10.0792 42.8742 9.65136 43.036 9.25212C43.1979 8.85287 43.4366 8.49022 43.7382 8.1853C44.0398 7.88037 44.3984 7.63927 44.793 7.47602C45.1875 7.31278 45.6102 7.23066 46.0365 7.23446C46.4734 7.23911 46.9031 7.34788 47.2909 7.55198C47.6639 7.71006 47.9887 7.96595 48.2317 8.2933L47.7094 8.82208C47.5115 8.5696 47.2556 8.37003 46.964 8.24081C46.6723 8.11158 46.3539 8.05663 46.0365 8.08076C45.7203 8.06732 45.4052 8.12712 45.1153 8.25558C44.8254 8.38405 44.5683 8.5778 44.3635 8.82208C44.1122 9.04403 43.9153 9.32205 43.7882 9.63422C43.6611 9.94639 43.6074 10.2842 43.6313 10.6209C43.6074 10.9577 43.6611 11.2955 43.7882 11.6077C43.9153 11.9198 44.1122 12.1979 44.3635 12.4198C44.8186 12.857 45.4104 13.1193 46.0365 13.1611C46.368 13.1749 46.6986 13.1157 47.0054 12.9875C47.3121 12.8592 47.5877 12.6651 47.8131 12.4185C47.9803 12.2534 48.1127 12.0558 48.2025 11.8375C48.2922 11.6193 48.3374 11.3849 48.3353 11.1484H46.0313V10.3034H49.0675V10.7272ZM53.8765 8.08076H51.0605V10.0857H53.6742V10.827H51.0541V12.8384H53.87V13.6847H50.2195V7.33425H53.8777L53.8765 8.08076ZM57.3261 13.6899H56.4915V8.08076H54.7123V7.34073H59.1027V8.08205H57.3261V13.6899ZM62.135 13.6899V7.33943H62.9709V13.6899H62.135ZM66.5254 13.6899H65.6896V8.08076H63.9155V7.34073H68.2009V8.08205H66.4205V13.6912L66.5254 13.6899ZM76.4557 12.8436C76.002 13.3058 75.4228 13.6208 74.7917 13.7485C74.1607 13.8762 73.5064 13.8107 72.9122 13.5605C72.318 13.3103 71.8108 12.8866 71.4553 12.3435C71.0997 11.8004 70.9119 11.1624 70.9158 10.5108C70.9072 10.0745 70.9847 9.64077 71.1437 9.23512C71.3027 8.82948 71.54 8.46001 71.8418 8.14837C72.1435 7.83672 72.5036 7.58914 72.901 7.42013C73.2984 7.25112 73.7251 7.16406 74.1561 7.16406C74.5872 7.16406 75.0139 7.25112 75.4113 7.42013C75.8087 7.58914 76.1688 7.83672 76.4705 8.14837C76.7722 8.46001 77.0095 8.82948 77.1685 9.23512C77.3275 9.64077 77.405 10.0745 77.3965 10.5108C77.4095 10.9443 77.3329 11.3758 77.1716 11.7775C77.0102 12.1793 76.7677 12.5424 76.4595 12.8436H76.4557ZM72.4877 12.3148C72.9311 12.7696 73.5298 13.0349 74.1606 13.0562C74.4768 13.0696 74.7918 13.0098 75.0817 12.8813C75.3716 12.7529 75.6288 12.5591 75.8336 12.3148C76.3026 11.8366 76.5657 11.1899 76.5657 10.516C76.5896 10.1792 76.5359 9.84141 76.4089 9.52924C76.2818 9.21707 76.0849 8.93905 75.8336 8.7171C75.3889 8.26116 74.7881 7.99576 74.1555 7.97578C73.8393 7.96235 73.5243 8.02214 73.2344 8.1506C72.9445 8.27907 72.6873 8.47282 72.4825 8.7171C72.0136 9.19538 71.7504 9.84201 71.7504 10.516C71.7265 10.8527 71.7802 11.1905 71.9072 11.5027C72.0343 11.8149 72.2312 12.0929 72.4825 12.3148H72.4877ZM78.551 13.6912V7.34073H79.4918L82.5228 12.3148V7.34073H83.3587V13.6912H82.5228L79.2819 8.50715V13.6912H78.551Z" fill="white" stroke="white" stroke-width="0.2" stroke-miterlimit="10"/>
<path d="M70.0685 22.737C69.4745 22.7235 68.884 22.8321 68.3326 23.056C67.7812 23.28 67.2803 23.6148 66.8602 24.0402C66.4401 24.4655 66.1094 24.9727 65.8882 25.531C65.667 26.0893 65.5598 26.6872 65.5731 27.2886C65.5687 27.8876 65.6819 28.4815 65.9063 29.0357C66.1306 29.59 66.4616 30.0935 66.8799 30.5171C67.2982 30.9406 67.7956 31.2757 68.343 31.5029C68.8904 31.73 69.4769 31.8447 70.0685 31.8402C70.6625 31.8537 71.253 31.7451 71.8044 31.5212C72.3558 31.2972 72.8567 30.9624 73.2768 30.537C73.6969 30.1117 74.0275 29.6045 74.2487 29.0462C74.4699 28.4879 74.5771 27.89 74.5638 27.2886C74.5861 26.6848 74.485 26.0829 74.267 25.5205C74.049 24.958 73.7186 24.4472 73.2967 24.02C72.8747 23.5928 72.3702 23.2583 71.8148 23.0375C71.2593 22.8168 70.6648 22.7145 70.0685 22.737ZM70.0685 29.9338C69.3843 29.8795 68.7456 29.5661 68.2796 29.0559C67.8137 28.5458 67.5549 27.8765 67.5549 27.1817C67.5549 26.4868 67.8137 25.8176 68.2796 25.3074C68.7456 24.7973 69.3843 24.4838 70.0685 24.4296C70.4152 24.4318 70.7578 24.5062 71.075 24.648C71.3923 24.7899 71.6773 24.9961 71.9125 25.2541C72.1478 25.5121 72.3281 25.8162 72.4425 26.1477C72.5568 26.4792 72.6027 26.8309 72.5773 27.181C72.5941 27.5294 72.5423 27.8776 72.4248 28.2054C72.3073 28.5333 72.1265 28.8341 71.893 29.0905C71.6595 29.3468 71.3779 29.5535 71.0646 29.6985C70.7514 29.8435 70.4127 29.924 70.0685 29.9351V29.9338ZM60.3469 22.737C59.7529 22.7235 59.1624 22.8321 58.611 23.056C58.0596 23.28 57.5587 23.6148 57.1386 24.0402C56.7185 24.4655 56.3878 24.9727 56.1666 25.531C55.9454 26.0893 55.8382 26.6872 55.8515 27.2886C55.8471 27.8876 55.9603 28.4815 56.1847 29.0357C56.409 29.59 56.74 30.0935 57.1583 30.5171C57.5766 30.9406 58.074 31.2757 58.6214 31.5029C59.1688 31.73 59.7553 31.8447 60.3469 31.8402C60.9409 31.8537 61.5314 31.7451 62.0828 31.5212C62.6342 31.2972 63.1351 30.9624 63.5552 30.537C63.9753 30.1117 64.3059 29.6045 64.5271 29.0462C64.7483 28.4879 64.8555 27.89 64.8422 27.2886C64.8645 26.6848 64.7634 26.0829 64.5454 25.5205C64.3274 24.958 63.997 24.4472 63.5751 24.02C63.1531 23.5928 62.6486 23.2583 62.0932 23.0375C61.5377 22.8168 60.9432 22.7145 60.3469 22.737ZM60.3469 29.9338C59.6627 29.8795 59.0239 29.5661 58.558 29.0559C58.0921 28.5458 57.8333 27.8765 57.8333 27.1817C57.8333 26.4868 58.0921 25.8176 58.558 25.3074C59.0239 24.7973 59.6627 24.4838 60.3469 24.4296C60.6936 24.4318 61.0362 24.5062 61.3534 24.648C61.6707 24.7899 61.9557 24.9961 62.1909 25.2541C62.4262 25.5121 62.6065 25.8162 62.7209 26.1477C62.8352 26.4792 62.8811 26.8309 62.8557 27.181C62.8725 27.5294 62.8207 27.8776 62.7032 28.2054C62.5857 28.5333 62.4049 28.8341 62.1714 29.0905C61.9379 29.3468 61.6563 29.5535 61.343 29.6985C61.0298 29.8435 60.6911 29.924 60.3469 29.9351V29.9338ZM48.7437 24.1134V26.0185H53.2365C53.1715 26.9266 52.8026 27.7852 52.1907 28.4524C51.7408 28.9099 51.2024 29.2684 50.6092 29.5052C50.016 29.7421 49.3809 29.8522 48.7437 29.8288C48.0877 29.8358 47.4371 29.7083 46.8311 29.4541C46.225 29.1999 45.676 28.8242 45.2171 28.3496C44.7582 27.875 44.3988 27.3113 44.1606 26.6924C43.9224 26.0735 43.8103 25.4123 43.831 24.7484C43.8195 24.087 43.9379 23.4298 44.1794 22.8151C44.4209 22.2004 44.7807 21.6404 45.2377 21.1677C45.6948 20.695 46.2402 20.319 46.842 20.0615C47.4439 19.8041 48.0903 19.6703 48.7437 19.668C50.0218 19.6804 51.2504 20.1706 52.1933 21.0444L53.5526 19.668C52.2915 18.4339 50.6025 17.7499 48.8486 17.7629C47.0128 17.7749 45.2539 18.5115 43.946 19.8159C42.638 21.1204 41.8841 22.89 41.8445 24.7484C41.8841 26.6069 42.638 28.3764 43.946 29.6809C45.2539 30.9853 47.0128 31.7219 48.8486 31.7339C49.7478 31.7845 50.6467 31.63 51.479 31.2818C52.3113 30.9337 53.0558 30.4008 53.6576 29.7225C54.7612 28.515 55.3607 26.9221 55.3306 25.2772C55.3528 24.8853 55.3174 24.4922 55.2256 24.1108L48.7437 24.1134ZM96.201 25.5947C95.943 24.7831 95.4423 24.0727 94.7681 23.5619C94.0939 23.0511 93.2796 22.7651 92.4378 22.7435C91.8631 22.7463 91.2951 22.8681 90.7687 23.1016C90.2423 23.3351 89.7688 23.6752 89.3771 24.101C88.9855 24.5268 88.6841 25.0293 88.4915 25.5775C88.2989 26.1257 88.2192 26.708 88.2573 27.2886C88.2412 27.8818 88.3429 28.4722 88.5565 29.0249C88.7701 29.5775 89.0912 30.081 89.5007 30.5056C89.9102 30.9301 90.3998 31.267 90.9404 31.4963C91.481 31.7256 92.0616 31.8425 92.6477 31.8402C93.376 31.8471 94.094 31.666 94.734 31.3141C95.3741 30.9622 95.9151 30.451 96.3059 29.8288L94.8365 28.7699C94.6113 29.1567 94.2904 29.4773 93.9054 29.7001C93.5204 29.9228 93.0847 30.04 92.6413 30.04C92.1806 30.0639 91.7236 29.9449 91.3314 29.699C90.9392 29.4531 90.6303 29.0919 90.4461 28.6637L96.4045 26.1235L96.201 25.5947ZM90.1389 27.0773C90.1172 26.4219 90.3436 25.7829 90.7719 25.2909C91.2002 24.799 91.798 24.4913 92.4429 24.4309C92.7811 24.4195 93.116 24.5023 93.4109 24.6703C93.7059 24.8382 93.9497 25.0849 94.1158 25.3835L90.1389 27.0773ZM85.2262 31.4164H87.2128V18.1867H85.225L85.2262 31.4164ZM82.0902 23.6896C81.4583 23.0294 80.5943 22.6488 79.6864 22.6307C78.5306 22.6845 77.4399 23.1878 76.6415 24.0357C75.8431 24.8836 75.3988 26.0108 75.401 27.1823C75.3928 27.7594 75.4974 28.3325 75.7086 28.8686C75.9198 29.4047 76.2335 29.8933 76.6316 30.3064C77.0298 30.7194 77.5047 31.0487 78.0289 31.2755C78.5531 31.5022 79.1164 31.6219 79.6864 31.6277C80.1234 31.6316 80.556 31.5389 80.954 31.3561C81.3519 31.1732 81.7056 30.9045 81.9904 30.5688H82.0954V31.2039C82.152 31.7871 81.9964 32.3712 81.6579 32.8466C81.3194 33.322 80.8212 33.656 80.2568 33.786C79.6924 33.9159 79.1006 33.8329 78.5923 33.5524C78.0841 33.272 77.6944 32.8134 77.4963 32.2627L75.8234 33.004C76.1561 33.7902 76.7095 34.46 77.4149 34.9305C78.1203 35.401 78.9467 35.6513 79.7914 35.6505C82.0954 35.6505 83.9731 34.2741 83.9731 30.9939V22.9469H82.0915L82.0902 23.6896ZM79.7862 29.9338C79.1021 29.8795 78.4633 29.5661 77.9974 29.0559C77.5315 28.5458 77.2727 27.8765 77.2727 27.1817C77.2727 26.4868 77.5315 25.8176 77.9974 25.3074C78.4633 24.7973 79.1021 24.4838 79.7862 24.4296C80.1248 24.4436 80.4571 24.5268 80.7631 24.6741C81.0691 24.8214 81.3426 25.0298 81.5671 25.2868C81.7916 25.5437 81.9625 25.844 82.0696 26.1695C82.1766 26.495 82.2176 26.8391 82.1901 27.181C82.218 27.5229 82.1774 27.8669 82.0707 28.1925C81.9641 28.518 81.7935 28.8184 81.5694 29.0756C81.3453 29.3328 81.0721 29.5415 80.7664 29.6892C80.4606 29.8369 80.1286 29.9205 79.7901 29.9351L79.7862 29.9338ZM105.292 18.1854H100.596V31.4164H102.583V26.4462H105.3C105.853 26.4742 106.405 26.3883 106.924 26.1935C107.443 25.9987 107.917 25.6992 108.318 25.3131C108.719 24.9271 109.038 24.4625 109.256 23.9477C109.474 23.4329 109.587 22.8786 109.587 22.3184C109.587 21.7582 109.474 21.2039 109.256 20.6891C109.038 20.1742 108.719 19.7097 108.318 19.3236C107.917 18.9376 107.443 18.6381 106.924 18.4433C106.405 18.2485 105.853 18.1625 105.3 18.1906L105.292 18.1854ZM105.396 24.5359H102.58V19.9855H105.396C105.99 19.983 106.561 20.2129 106.99 20.6273C107.42 21.0416 107.674 21.6081 107.7 22.2082C107.679 22.8198 107.429 23.4004 107.001 23.8332C106.574 24.2659 106.001 24.5188 105.396 24.541V24.5359ZM117.418 22.6307C116.71 22.5734 116.001 22.735 115.385 23.0941C114.769 23.4532 114.275 23.993 113.969 24.6421L115.745 25.3835C115.919 25.0679 116.179 24.81 116.494 24.641C116.81 24.4719 117.167 24.399 117.522 24.4309C118.017 24.3934 118.508 24.5473 118.896 24.8616C119.284 25.1758 119.54 25.6272 119.612 26.1248V26.231C119.004 25.8889 118.321 25.707 117.626 25.7023C115.744 25.7023 113.862 26.7611 113.862 28.6663C113.88 29.078 113.978 29.4821 114.151 29.855C114.324 30.228 114.569 30.5622 114.871 30.8382C115.173 31.1141 115.527 31.3263 115.911 31.4623C116.295 31.5983 116.702 31.6554 117.108 31.6303C117.598 31.6466 118.084 31.5389 118.522 31.3172C118.96 31.0954 119.336 30.7665 119.617 30.3602H119.722V31.419H121.604V26.3386C121.528 25.288 121.046 24.31 120.264 23.6162C119.481 22.9225 118.459 22.5689 117.421 22.632L117.418 22.6307ZM117.21 29.9338C116.582 29.9338 115.642 29.6162 115.642 28.7674C115.642 27.7085 116.794 27.391 117.732 27.391C118.348 27.3932 118.956 27.5382 119.508 27.8148C119.43 28.384 119.158 28.9075 118.738 29.2947C118.319 29.682 117.779 29.9085 117.212 29.9351L117.21 29.9338ZM128.186 22.9482L125.99 28.6637H125.885L123.581 22.9482H121.491L124.941 30.9926L122.954 35.4379H124.941L130.272 22.9482H128.186ZM110.624 31.4151H112.611V18.1867H110.627L110.624 31.4151Z" fill="white"/>
<path d="M10.8724 7.93848C10.5502 8.35249 10.4 8.87738 10.4538 9.40168V32.4954C10.4314 33.0336 10.619 33.5592 10.9761 33.9586L11.081 34.0636L24.0436 21.1034V20.8986L10.8724 7.93848Z" fill="url(#paint0_linear_1714_2360)"/>
<path d="M28.0179 25.5507L23.7324 21.2103V20.8928L28.0179 16.5537L28.1228 16.66L33.2428 19.624C33.5622 19.73 33.8403 19.9354 34.0375 20.211C34.2347 20.4866 34.3409 20.8182 34.3409 21.1585C34.3409 21.4988 34.2347 21.8303 34.0375 22.1059C33.8403 22.3815 33.5622 22.5869 33.2428 22.6929L28.0179 25.5507Z" fill="url(#paint1_linear_1714_2360)"/>
<path d="M28.3277 25.3653L23.9373 20.9199L10.8711 34.1497C11.3933 34.6784 12.1255 34.6784 13.0663 34.2559L28.3277 25.3653Z" fill="url(#paint2_linear_1714_2360)"/>
<path d="M28.3277 16.6345L13.0663 7.85013C12.7476 7.60087 12.3516 7.47467 11.9494 7.49415C11.5471 7.51362 11.1649 7.6775 10.8711 7.95641L23.9373 21.0799L28.3277 16.6345Z" fill="url(#paint3_linear_1714_2360)"/>
<path opacity="0.2" d="M28.2241 25.249L13.0663 33.9323C12.7669 34.1664 12.3994 34.2933 12.0212 34.2933C11.643 34.2933 11.2754 34.1664 10.9761 33.9323L10.8711 34.0386L10.9761 34.1449C11.2754 34.3789 11.643 34.5059 12.0212 34.5059C12.3994 34.5059 12.7669 34.3789 13.0663 34.1449L28.2241 25.249Z" fill="black"/>
<path opacity="0.12" d="M10.8723 33.9443C10.5494 33.5226 10.3995 32.9911 10.4538 32.4603V32.5666C10.4311 33.1103 10.6184 33.6416 10.976 34.0479V33.9417L10.8723 33.9443ZM33.4515 22.3022L28.2253 25.2661L28.3302 25.3724L33.4502 22.4084C33.7416 22.2814 33.993 22.0761 34.1773 21.8148C34.3617 21.5534 34.4719 21.246 34.496 20.9258C34.496 21.4546 34.0787 21.8784 33.4515 22.3022Z" fill="black"/>
<path opacity="0.25" d="M13.0676 7.95498L33.4516 19.7034C34.0788 20.1272 34.4974 20.5497 34.4974 21.0797C34.473 20.7597 34.3627 20.4526 34.1784 20.1915C33.9941 19.9304 33.7428 19.7253 33.4516 19.5984L13.0676 7.84871C11.6059 7.00241 10.4539 7.63746 10.4539 9.33135V9.43633C10.4539 7.84871 11.6059 7.10868 13.0676 7.95498Z" fill="white"/>
</g>
<defs>
<linearGradient id="paint0_linear_1714_2360" x1="22.7924" y1="34.8996" x2="2.00332" y2="29.2661" gradientUnits="userSpaceOnUse">
<stop stop-color="#00A0FF"/>
<stop offset="0.007" stop-color="#00A1FF"/>
<stop offset="0.26" stop-color="#00BEFF"/>
<stop offset="0.512" stop-color="#00D2FF"/>
<stop offset="0.76" stop-color="#00DFFF"/>
<stop offset="1" stop-color="#00E3FF"/>
</linearGradient>
<linearGradient id="paint1_linear_1714_2360" x1="35.1577" y1="23.1125" x2="9.86718" y2="23.1125" gradientUnits="userSpaceOnUse">
<stop stop-color="#FFE000"/>
<stop offset="0.409" stop-color="#FFBD00"/>
<stop offset="0.775" stop-color="#FFA500"/>
<stop offset="1" stop-color="#FF9C00"/>
</linearGradient>
<linearGradient id="paint2_linear_1714_2360" x1="25.9536" y1="20.6062" x2="8.95437" y2="-7.58079" gradientUnits="userSpaceOnUse">
<stop stop-color="#FF3A44"/>
<stop offset="1" stop-color="#C31162"/>
</linearGradient>
<linearGradient id="paint3_linear_1714_2360" x1="7.62416" y1="44.1925" x2="15.1702" y2="31.5846" gradientUnits="userSpaceOnUse">
<stop stop-color="#32A071"/>
<stop offset="0.069" stop-color="#2DA771"/>
<stop offset="0.476" stop-color="#15CF74"/>
<stop offset="0.801" stop-color="#06E775"/>
<stop offset="1" stop-color="#00F076"/>
</linearGradient>
<clipPath id="clip0_1714_2360">
<rect width="140" height="42" fill="white"/>
</clipPath>
</defs>
</svg>
