<svg width="44" height="46" viewBox="0 0 44 46" fill="none" xmlns="http://www.w3.org/2000/svg">
<path fill-rule="evenodd" clip-rule="evenodd" d="M40.1764 46C39.9069 46 39.6914 45.8383 39.5836 45.6227L36.1612 37.8887C35.9995 37.5383 36.2151 37.4844 36.5385 37.3228H43.3832C43.7066 37.4844 43.8952 37.5922 43.7874 37.9156L40.7962 45.6227C40.6884 45.8113 40.4189 46 40.1764 46Z" fill="#FED9A8"/>
<path fill-rule="evenodd" clip-rule="evenodd" d="M36.1343 37.8888V7.06042C36.1343 6.68315 36.4307 6.38672 36.808 6.38672H43.1138C43.491 6.38672 43.7875 6.68315 43.7875 7.06042V37.9157L36.1343 37.8888Z" fill="#FFD300"/>
<path fill-rule="evenodd" clip-rule="evenodd" d="M39.9879 32.58C39.6106 32.58 39.3142 32.2836 39.3142 31.9063V7.06042C39.3142 6.68315 39.6106 6.38672 39.9879 6.38672C40.3652 6.38672 40.6616 6.68315 40.6616 7.06042V31.9063C40.6077 32.2836 40.3652 32.58 39.9879 32.58Z" fill="#FFAB00"/>
<path fill-rule="evenodd" clip-rule="evenodd" d="M36.1341 7.06034L36.1072 0.673697C36.1072 0.296426 36.4036 0 36.7809 0H43.1136C43.4909 0 43.7873 0.296426 43.7873 0.673697V7.06034H36.1341Z" fill="#FF4141"/>
<path fill-rule="evenodd" clip-rule="evenodd" d="M39.9607 42.874C39.4487 42.874 38.9367 42.9549 38.4517 43.0896L39.5835 45.6227C39.6913 45.8383 39.9068 46 40.1763 46C40.4189 46 40.6883 45.8113 40.7961 45.6227L41.7393 43.1704C41.2003 42.9818 40.5805 42.874 39.9607 42.874Z" fill="#FF4141"/>
<path fill-rule="evenodd" clip-rule="evenodd" d="M34.2479 46H0.778677C0.401407 46 0.10498 45.7036 0.10498 45.3263V8.13825C0.10498 8.05741 7.24616 0 7.51564 0H34.2479C34.6252 0 34.9216 0.296426 34.9216 0.673697V45.3263C34.8677 45.7036 34.6252 46 34.2479 46Z" fill="#FED9A8"/>
<path fill-rule="evenodd" clip-rule="evenodd" d="M7.51564 8.13825V0C7.24616 0 0.10498 8.05741 0.10498 8.13825H7.51564Z" fill="#F3A766"/>
<path fill-rule="evenodd" clip-rule="evenodd" d="M18.6991 8.43478C17.8098 8.27309 16.8666 8.27309 15.9773 8.43478L14.3605 5.6322C14.1718 5.33578 13.7676 5.22798 13.4712 5.41662L9.91406 7.46466C9.77932 7.57245 9.67153 7.73414 9.61763 7.86887C9.59068 8.05751 9.61763 8.2192 9.69848 8.40783L11.3423 11.2374C11.0728 11.5338 10.8572 11.9111 10.6686 12.2344C10.3991 12.6925 10.2105 13.1776 10.0218 13.6627H6.81505C6.43778 13.6627 6.14136 13.9591 6.14136 14.3364V18.4594C6.14136 18.8367 6.43778 19.1331 6.81505 19.1331H10.1835C10.5069 19.9415 10.992 20.723 11.6118 21.3967L9.96795 24.2532C9.77932 24.5765 9.88711 24.9538 10.1835 25.1425L13.7407 27.1905C13.8484 27.2444 13.9562 27.2713 14.064 27.2713C14.1179 27.2713 14.1718 27.2713 14.2527 27.3252C14.4413 27.2713 14.603 27.1635 14.6569 27.0019L16.3815 23.9837C17.2169 24.0915 18.1062 24.0645 18.9685 23.9029L20.6393 26.8671C20.774 27.0019 20.9088 27.1366 21.0705 27.1635C21.2052 27.1905 21.3938 27.1635 21.5555 27.0827L25.0857 25.0347C25.2474 24.9269 25.3552 24.7652 25.4091 24.6304C25.436 24.4688 25.4091 24.2801 25.3282 24.1454L23.5227 21.0194C23.7653 20.723 23.9808 20.4266 24.1695 20.1032C24.439 19.699 24.6006 19.2678 24.7623 18.8367H28.2386C28.6159 18.8367 28.9123 18.5402 28.9123 18.163V14.0399C28.9123 13.6627 28.6159 13.3662 28.2386 13.3662H24.7354C24.439 12.5848 23.9808 11.8302 23.4149 11.1565L25.0857 8.24614C25.2204 8.08446 25.2204 7.94972 25.1665 7.76108C25.1396 7.57245 25.0318 7.43771 24.8701 7.35687L21.2861 5.28188C20.9357 5.09325 20.5854 5.22798 20.3968 5.52441L18.6991 8.43478ZM16.4624 12.5848C15.4923 12.8542 14.6569 13.4471 14.1449 14.3364C13.1478 16.088 13.7407 18.3785 15.5192 19.4295C16.139 19.7529 16.7588 19.9146 17.4056 19.9146C18.6991 19.9146 19.9656 19.2409 20.6393 18.0552C21.1244 17.1928 21.2861 16.1688 21.0166 15.1987C20.774 14.2286 20.1273 13.4471 19.265 12.962C18.4026 12.477 17.4325 12.3153 16.4624 12.5848Z" fill="#33CBCC"/>
<path fill-rule="evenodd" clip-rule="evenodd" d="M29.3704 29.9661H5.68322C5.3329 29.9661 5.00952 30.2625 5.00952 30.6398C5.00952 31.017 5.3329 31.3135 5.68322 31.3135H29.3704C29.7477 31.3135 30.0441 31.017 30.0441 30.6398C30.0441 30.2625 29.7477 29.9661 29.3704 29.9661Z" fill="#CEB088"/>
<path fill-rule="evenodd" clip-rule="evenodd" d="M26.5948 33.4424H8.51281C8.13554 33.4424 7.83911 33.7388 7.83911 34.1161C7.83911 34.4933 8.13554 34.7898 8.51281 34.7898H26.5948C26.9182 34.7898 27.2685 34.4933 27.2685 34.1161C27.2685 33.7388 26.9721 33.4424 26.5948 33.4424Z" fill="#CEB088"/>
<path fill-rule="evenodd" clip-rule="evenodd" d="M29.3704 36.8916H5.68322C5.3329 36.8916 5.00952 37.188 5.00952 37.5653C5.00952 37.9426 5.3329 38.239 5.68322 38.239H29.3704C29.7477 38.239 30.0441 37.9426 30.0441 37.5653C30.0441 37.188 29.7477 36.8916 29.3704 36.8916Z" fill="#CEB088"/>
<path fill-rule="evenodd" clip-rule="evenodd" d="M26.5948 40.3679H8.51281C8.13554 40.3679 7.83911 40.6643 7.83911 41.0416C7.83911 41.4189 8.13554 41.7153 8.51281 41.7153H26.5948C26.9182 41.7153 27.2685 41.4189 27.2685 41.0416C27.2685 40.6643 26.9721 40.3679 26.5948 40.3679Z" fill="#CEB088"/>
</svg>
