<svg width="19" height="19" viewBox="0 0 19 19" fill="none" xmlns="http://www.w3.org/2000/svg">
<g clip-path="url(#clip0_1493_1071)">
<path d="M16.936 3H5.43604V7.5H18.936V5C18.936 4.46957 18.7253 3.96086 18.3502 3.58579C17.9752 3.21071 17.4665 3 16.936 3Z" fill="#068241"/>
<path d="M5.43604 7.5H18.936V11.5H5.43604V7.5Z" fill="#EEEEEE"/>
<path d="M5.43604 16H16.936C17.4665 16 17.9752 15.7893 18.3502 15.4142C18.7253 15.0391 18.936 14.5304 18.936 14V11.5H5.43604V16Z" fill="#141414"/>
<path d="M2.93604 3C2.4056 3 1.89689 3.21071 1.52182 3.58579C1.14675 3.96086 0.936035 4.46957 0.936035 5L0.936035 14C0.936035 14.5304 1.14675 15.0391 1.52182 15.4142C1.89689 15.7893 2.4056 16 2.93604 16H5.43604V3H2.93604Z" fill="#EC2028"/>
</g>
<defs>
<clipPath id="clip0_1493_1071">
<rect width="18" height="18" fill="white" transform="translate(0.936035 0.5)"/>
</clipPath>
</defs>
</svg>
