<svg width="19" height="19" viewBox="0 0 19 19" fill="none" xmlns="http://www.w3.org/2000/svg">
<g clip-path="url(#clip0_1493_1046)">
<path d="M0.483887 5.0295V7H3.29789L0.483887 5.0295ZM2.81589 16H6.98389V13.0815L2.81589 16ZM11.9839 13.082V16H16.1514L11.9839 13.082ZM0.483887 12V13.9705L3.29889 12H0.483887ZM16.1524 3H11.9839V5.9185L16.1524 3ZM18.4839 13.971V12H15.6684L18.4839 13.971ZM18.4839 7V5.0295L15.6694 7H18.4839ZM6.98389 3H2.81589L6.98389 5.9185V3Z" fill="#00247D"/>
<path d="M13.054 12.0001L17.91 15.4006C18.1467 15.156 18.3171 14.855 18.405 14.5261L14.7975 12.0001H13.054ZM6.984 12.0001H5.9135L1.058 15.4001C1.3185 15.6651 1.6525 15.8546 2.027 15.9426L6.984 12.4716V12.0001ZM11.984 7.00012H13.0545L17.91 3.60012C17.6448 3.33152 17.3091 3.14344 16.9415 3.05762L11.984 6.52862V7.00012ZM5.9135 7.00012L1.058 3.60012C0.821084 3.84468 0.650531 4.14569 0.5625 4.47462L4.17 7.00012H5.9135Z" fill="#CF1B2B"/>
<path d="M18.4839 11H10.9839V16H11.9839V13.082L16.1514 16H16.4839C16.7495 15.9998 17.0124 15.9466 17.2572 15.8437C17.502 15.7408 17.7239 15.5901 17.9099 15.4005L13.0539 12H14.7974L18.4049 14.526C18.4514 14.3575 18.4839 14.183 18.4839 14V13.971L15.6684 12H18.4839V11ZM0.483887 11V12H3.29889L0.483887 13.9705V14C0.483887 14.5455 0.703387 15.039 1.05789 15.4L5.91339 12H6.98389V12.4715L2.02689 15.942C2.17389 15.977 2.32589 16 2.48389 16H2.81589L6.98389 13.0815V16H7.98389V11H0.483887ZM18.4839 5C18.4844 4.47596 18.2781 3.97289 17.9099 3.6L13.0544 7H11.9839V6.5285L16.9414 3.0575C16.7916 3.02076 16.6381 3.00146 16.4839 3H16.1524L11.9839 5.9185V3H10.9839V8H18.4839V7H15.6694L18.4839 5.0295V5ZM6.98389 3V5.9185L2.81589 3H2.48389C2.21826 3.0003 1.95536 3.05352 1.71052 3.15653C1.46569 3.25955 1.24382 3.41031 1.05789 3.6L5.91339 7H4.16989L0.562387 4.4745C0.512965 4.6454 0.486566 4.82212 0.483887 5L0.483887 5.0295L3.29789 7H0.483887V8H7.98389V3H6.98389Z" fill="#EEEEEE"/>
<path d="M10.9839 8V3H7.98389V8H0.483887V11H7.98389V16H10.9839V11H18.4839V8H10.9839Z" fill="#CF1B2B"/>
</g>
<defs>
<clipPath id="clip0_1493_1046">
<rect width="18" height="18" fill="white" transform="translate(0.483887 0.5)"/>
</clipPath>
</defs>
</svg>
