<svg width="95" height="93" viewBox="0 0 95 93" fill="none" xmlns="http://www.w3.org/2000/svg">
<g filter="url(#filter0_d_492_148)">
<path fill-rule="evenodd" clip-rule="evenodd" d="M0.108806 90.3504C-0.227342 91.0156 0.256048 91.8015 1.00131 91.8015H18.7641C19.1394 91.8015 19.4831 91.5914 19.6542 91.2574L29.5968 71.8456C29.7679 71.5116 30.1115 71.3015 30.4868 71.3015H62.2507C62.633 71.3015 62.9818 71.5195 63.1494 71.8631L72.6015 91.2399C72.7691 91.5835 73.118 91.8015 73.5003 91.8015H92.734C93.483 91.8015 93.9661 91.0084 93.6226 90.3428L47.2735 0.541358C46.8991 -0.18392 45.8605 -0.179492 45.4924 0.548952L0.108806 90.3504ZM45.2378 38.6928C45.6083 37.9358 46.6917 37.9485 47.0443 38.714L54.7222 55.3832C55.0274 56.0457 54.5434 56.8015 53.8139 56.8015H37.9782C37.2386 56.8015 36.7549 56.0263 37.08 55.3619L45.2378 38.6928Z" fill="#37419A"/>
</g>
<defs>
<filter id="filter0_d_492_148" x="0" y="0" width="94.7354" height="92.8015" filterUnits="userSpaceOnUse" color-interpolation-filters="sRGB">
<feFlood flood-opacity="0" result="BackgroundImageFix"/>
<feColorMatrix in="SourceAlpha" type="matrix" values="0 0 0 0 0 0 0 0 0 0 0 0 0 0 0 0 0 0 127 0" result="hardAlpha"/>
<feOffset dx="1" dy="1"/>
<feComposite in2="hardAlpha" operator="out"/>
<feColorMatrix type="matrix" values="0 0 0 0 0.239216 0 0 0 0 0.333333 0 0 0 0 0.67451 0 0 0 1 0"/>
<feBlend mode="normal" in2="BackgroundImageFix" result="effect1_dropShadow_492_148"/>
<feBlend mode="normal" in="SourceGraphic" in2="effect1_dropShadow_492_148" result="shape"/>
</filter>
</defs>
</svg>
