<svg width="36" height="40" viewBox="0 0 36 40" fill="none" xmlns="http://www.w3.org/2000/svg">
<path d="M34.0605 11.4846C34.6389 10.5417 35.0008 9.48212 35.1198 8.38235C35.2388 7.28258 35.112 6.1701 34.7487 5.12529C34.7148 5.02871 34.6569 4.94228 34.5806 4.87407C34.5043 4.80585 34.412 4.75807 34.3122 4.73517C34.2124 4.71227 34.1085 4.715 34.01 4.7431C33.9116 4.7712 33.8219 4.82376 33.7493 4.89589L28.9727 9.67248L26.2678 8.94692L25.5423 6.24208L30.3189 1.46548C30.3905 1.39252 30.4426 1.30266 30.4703 1.20424C30.498 1.10581 30.5004 1.00199 30.4774 0.902366C30.4543 0.802745 30.4065 0.710541 30.3384 0.634281C30.2703 0.55802 30.1841 0.500165 30.0877 0.466063C29.0381 0.102775 27.9208 -0.0218803 26.817 0.101173C25.7132 0.224226 24.6508 0.591891 23.707 1.1774C9.8147 -4.24829 -4.34616 10.1597 1.25559 23.94C0.607854 25.3435 0.406466 26.912 0.678625 28.4336C0.950784 29.9552 1.68338 31.3566 2.77745 32.4486C3.87153 33.5405 5.27437 34.2704 6.7965 34.5395C8.31863 34.8087 9.88671 34.6043 11.2889 33.9538C13.8129 34.938 16.5311 35.3218 19.2288 35.0749C21.9266 34.828 24.53 33.9571 26.8333 32.5312L34.1245 39.8223C34.2096 39.9055 34.3172 39.9618 34.4341 39.9845C34.5509 40.007 34.6718 39.9949 34.7818 39.9494C34.8917 39.904 34.986 39.8273 35.0528 39.7289C35.1196 39.6304 35.1561 39.5145 35.1577 39.3955V17.6056C35.1619 15.516 34.7902 13.4427 34.0605 11.4846ZM1.26448 17.6056C1.27734 15.0427 1.89147 12.5186 3.0575 10.2363C4.22352 7.95396 5.90889 5.97713 7.97805 4.46478C10.0472 2.95244 12.4424 1.94679 14.971 1.52871C17.4996 1.11064 20.091 1.29182 22.5369 2.05767C21.6325 2.8811 20.9448 3.91455 20.5345 5.06675C20.1241 6.21895 20.0038 7.45445 20.1841 8.66417L9.13893 19.7094C7.8108 19.5154 6.45495 19.6807 5.21241 20.1883C3.96986 20.6959 2.88602 21.5272 2.07362 22.5956C1.54267 20.9853 1.26959 19.3012 1.26448 17.6056ZM3.57631 31.6313C2.70663 30.7416 2.11744 29.6161 1.88192 28.3944C1.6464 27.1728 1.77491 25.9088 2.2515 24.7596C2.7281 23.6104 3.53177 22.6264 4.56273 21.93C5.59369 21.2336 6.80651 20.8553 8.05059 20.8422C8.61077 20.7515 9.29542 21.1801 9.77557 20.7853L21.26 9.30081C21.3282 9.23157 21.3788 9.14699 21.4076 9.05417C21.4364 8.96135 21.4425 8.86298 21.4254 8.76731C21.2443 7.76514 21.3067 6.73414 21.6071 5.76108C21.9076 4.78802 22.4374 3.90138 23.152 3.1758C23.8666 2.45021 24.7451 1.90692 25.7135 1.59164C26.6818 1.27637 27.7118 1.19834 28.7166 1.36412L24.4486 5.64101C24.3732 5.71605 24.319 5.80971 24.2915 5.91246C24.264 6.01522 24.2642 6.12342 24.2921 6.22608L25.1973 9.60491C25.2243 9.70774 25.2782 9.80151 25.3536 9.87654C25.4289 9.95156 25.5229 10.0051 25.6258 10.0317L29.0047 10.9387C29.1073 10.9661 29.2155 10.9661 29.3181 10.9387C29.4208 10.9112 29.5145 10.8572 29.5897 10.7822L33.8666 6.50527C34.0325 7.51026 33.9545 8.54039 33.6391 9.50892C33.3237 10.4775 32.7803 11.356 32.0545 12.0707C31.3287 12.7853 30.4418 13.3151 29.4685 13.6154C28.4952 13.9158 27.464 13.9778 26.4617 13.7964C26.3658 13.7791 26.2673 13.7853 26.1744 13.8144C26.0814 13.8435 25.997 13.8947 25.9282 13.9636L14.4295 25.4392C14.3606 25.508 14.3094 25.5925 14.2803 25.6854C14.2512 25.7783 14.245 25.8769 14.2623 25.9727C14.5128 27.2988 14.3322 28.6702 13.747 29.8863C13.1618 31.1024 12.2028 32.0992 11.0102 32.7309C9.8176 33.3625 8.45413 33.5959 7.11936 33.3968C5.78458 33.1976 4.5486 32.5765 3.59232 31.6242L3.57631 31.6313ZM33.9431 37.9355L27.3384 31.3326C27.2403 31.2339 27.1111 31.1722 26.9727 31.1579C26.8343 31.1437 26.6952 31.1777 26.579 31.2543C24.5442 32.5962 22.2333 33.4626 19.8179 33.7892C17.4024 34.1159 14.9444 33.8944 12.6262 33.1411C13.6945 32.3286 14.5257 31.2447 15.0333 30.0022C15.5408 28.7597 15.7063 27.4039 15.5125 26.0758L26.5559 15.0306C27.7661 15.2098 29.0018 15.0889 30.1544 14.6787C31.307 14.2685 32.3411 13.5814 33.166 12.6779C34.6366 15.8593 33.7066 34.2579 33.9502 37.9355H33.9431ZM28.7041 17.6056C28.7008 20.5481 27.5305 23.3692 25.4498 25.4499C23.3691 27.5305 20.5481 28.7009 17.6056 28.7042C17.4506 28.6958 17.3048 28.6283 17.1981 28.5157C17.0914 28.4031 17.032 28.2538 17.032 28.0987C17.032 27.9435 17.0914 27.7943 17.1981 27.6816C17.3048 27.569 17.4506 27.5015 17.6056 27.4931C20.227 27.4903 22.7403 26.4477 24.594 24.594C26.4476 22.7404 27.4903 20.2271 27.4931 17.6056C27.5015 17.4507 27.5689 17.3049 27.6816 17.1982C27.7942 17.0915 27.9435 17.032 28.0986 17.032C28.2538 17.032 28.403 17.0915 28.5156 17.1982C28.6283 17.3049 28.6957 17.4507 28.7041 17.6056ZM6.51056 17.6056C6.51432 14.6642 7.68446 11.8443 9.76437 9.76442C11.8443 7.68452 14.6641 6.51437 17.6056 6.51061C17.7659 6.51061 17.9197 6.57431 18.0331 6.6877C18.1465 6.80109 18.2102 6.95488 18.2102 7.11524C18.2102 7.2756 18.1465 7.42939 18.0331 7.54278C17.9197 7.65617 17.7659 7.71988 17.6056 7.71988C14.985 7.72364 12.4729 8.76644 10.6201 10.6196C8.76724 12.4728 7.72489 14.9851 7.7216 17.6056C7.72606 17.6879 7.71371 17.7702 7.68529 17.8476C7.65688 17.9249 7.613 17.9957 7.55633 18.0555C7.49966 18.1153 7.4314 18.1629 7.35571 18.1955C7.28001 18.2281 7.19848 18.2449 7.11608 18.2449C7.03368 18.2449 6.95214 18.2281 6.87645 18.1955C6.80076 18.1629 6.73249 18.1153 6.67583 18.0555C6.61916 17.9957 6.57528 17.9249 6.54687 17.8476C6.51845 17.7702 6.5061 17.6879 6.51056 17.6056ZM10.6843 24.1019L7.30547 23.1967C7.20306 23.1694 7.09526 23.1694 6.99289 23.1969C6.89051 23.2244 6.79716 23.2783 6.72218 23.3532L4.24496 25.8268C4.17049 25.9025 4.11692 25.9962 4.08949 26.0987C4.06206 26.2013 4.06171 26.3092 4.08847 26.4119L4.99364 29.7907C5.02164 29.8931 5.07593 29.9863 5.15111 30.0612C5.22629 30.1361 5.31976 30.19 5.42222 30.2175L8.80105 31.1245C8.85224 31.1372 8.90478 31.1438 8.95754 31.1441C9.25986 31.3343 11.4828 28.7771 11.8598 28.4926C11.9347 28.4172 11.9886 28.3235 12.016 28.2209C12.0435 28.1182 12.0436 28.0102 12.0163 27.9075L11.1111 24.5287C11.0831 24.4266 11.029 24.3336 10.9542 24.2588C10.8794 24.1839 10.7864 24.1299 10.6843 24.1019ZM8.77793 29.8654L6.07309 29.1416L5.34931 26.4368L7.32859 24.4557L10.0334 25.1813L10.7572 27.8862L8.77793 29.8654Z" fill="white"/>
</svg>
