<svg width="140" height="42" viewBox="0 0 140 42" fill="none" xmlns="http://www.w3.org/2000/svg">
<g clip-path="url(#clip0_1714_2351)">
<path d="M139.065 37.0342C139.065 37.5627 138.962 38.086 138.762 38.5742C138.562 39.0624 138.269 39.5059 137.9 39.8794C137.531 40.2529 137.092 40.549 136.609 40.7508C136.127 40.9526 135.61 41.0562 135.088 41.0556H4.91344C3.85848 41.0568 2.84622 40.6339 2.09929 39.8797C1.35237 39.1256 0.93192 38.1021 0.93042 37.0342V4.96738C0.931919 3.8991 1.35222 2.87509 2.09902 2.12024C2.84582 1.36538 3.85806 0.941405 4.91344 0.941406H135.085C136.14 0.941406 137.152 1.36557 137.898 2.12058C138.644 2.8756 139.063 3.89962 139.063 4.96738V37.0342H139.065Z" fill="white"/>
<path d="M135.095 42H4.90662C3.60677 41.9997 2.36012 41.4774 1.44024 40.5478C0.520367 39.6182 0.00239822 38.3572 0 37.0414L0 4.962C0.00239662 3.64595 0.520256 2.38456 1.44004 1.4544C2.35982 0.524235 3.60646 0.001211 4.90662 0L135.093 0C136.394 0.0018162 137.64 0.525192 138.56 1.45547C139.479 2.38575 139.997 3.64708 140 4.96315V37.0426C139.998 38.3582 139.48 39.6192 138.56 40.5489C137.641 41.4785 136.394 41.9997 135.095 42Z" fill="#AAAAAA"/>
<path d="M139.065 37.0342C139.065 37.5627 138.962 38.086 138.762 38.5742C138.562 39.0624 138.269 39.5059 137.9 39.8794C137.531 40.2529 137.092 40.549 136.609 40.7508C136.127 40.9526 135.61 41.0562 135.088 41.0556H4.91344C3.85848 41.0568 2.84622 40.6339 2.09929 39.8797C1.35237 39.1256 0.93192 38.1021 0.93042 37.0342V4.96738C0.931919 3.8991 1.35222 2.87509 2.09902 2.12024C2.84582 1.36538 3.85806 0.941405 4.91344 0.941406H135.085C136.14 0.941406 137.152 1.36557 137.898 2.12058C138.644 2.8756 139.063 3.89962 139.063 4.96738V37.0342H139.065Z" fill="white"/>
<path d="M31.5108 20.8009C31.5238 19.7657 31.7955 18.7506 32.3003 17.8502C32.8051 16.9497 33.5268 16.1932 34.3981 15.651C33.8445 14.8509 33.1142 14.1924 32.2652 13.7278C31.4162 13.2632 30.472 13.0054 29.5074 12.9747C27.4496 12.7558 25.4542 14.2212 24.406 14.2212C23.3376 14.2212 21.7235 12.9964 19.9839 13.0319C18.8595 13.0686 17.7636 13.3995 16.8031 13.9925C15.8427 14.5854 15.0504 15.4201 14.5034 16.4152C12.1333 20.5683 13.9012 26.6714 16.1718 30.0283C17.3036 31.6735 18.6347 33.5078 20.3721 33.4436C22.0699 33.3737 22.7071 32.3483 24.7581 32.3483C26.7954 32.3483 27.3863 33.4436 29.1576 33.4024C30.9822 33.3737 32.1299 31.7503 33.2266 30.0913C34.0431 28.9202 34.6711 27.6256 35.0874 26.2555C34.0287 25.8014 33.1251 25.0422 32.4892 24.0723C31.8533 23.1025 31.513 21.9649 31.5108 20.8009ZM28.1638 10.7669C29.1584 9.55903 29.6484 8.00627 29.53 6.43848C28.0102 6.60129 26.6067 7.33758 25.599 8.50072C25.1062 9.06831 24.7288 9.72869 24.4883 10.4441C24.2479 11.1595 24.1492 11.9158 24.1978 12.6699C24.9582 12.6772 25.7102 12.5096 26.3973 12.1798C27.0843 11.8499 27.6884 11.3676 28.1638 10.7669Z" fill="#AAAAAA"/>
<path d="M55.0098 33.0165H52.6329L51.3324 28.8782H46.8049L45.5655 33.0165H43.2588L47.741 18.9244H50.5084L55.0098 33.0165ZM50.9419 27.1413L49.7647 23.4625C49.6402 23.0867 49.4063 22.2019 49.063 20.8079H49.0211C48.883 21.4075 48.6627 22.2924 48.3601 23.4625L47.2033 27.1413H50.9419ZM66.5129 27.8116C66.5941 29.3082 66.095 30.7777 65.1218 31.9074C64.7301 32.3405 64.2514 32.6839 63.7179 32.9147C63.1845 33.1455 62.6084 33.2583 62.0284 33.2456C61.4664 33.2923 60.9024 33.1827 60.3974 32.9287C59.8923 32.6747 59.4653 32.2859 59.1626 31.8043V37.1352H56.9328V26.1961C56.9328 25.1108 56.9053 23.9979 56.8502 22.8576H58.8106L58.9351 24.4673H58.9769C59.314 23.9426 59.7678 23.5051 60.3019 23.1897C60.836 22.8743 61.4356 22.6899 62.0527 22.6511C62.6699 22.6124 63.2874 22.7204 63.8559 22.9665C64.4244 23.2127 64.9281 23.5901 65.3267 24.0686C66.155 25.1311 66.5763 26.4607 66.5129 27.8127V27.8116ZM64.2435 27.8964C64.2782 27.0315 64.0473 26.1769 63.5825 25.4503C63.3671 25.1327 63.0766 24.8747 62.7376 24.6996C62.3986 24.5246 62.0218 24.438 61.6414 24.4478C61.0937 24.4476 60.5635 24.6436 60.145 25.0012C59.6977 25.3706 59.3883 25.8835 59.2679 26.4551C59.2069 26.6793 59.1723 26.91 59.1649 27.1425V28.837C59.1466 29.5245 59.3865 30.1934 59.8361 30.709C60.0533 30.9585 60.3222 31.1562 60.6238 31.2881C60.9253 31.42 61.2519 31.4829 61.5802 31.4721C61.9623 31.4874 62.3421 31.4055 62.6848 31.2337C63.0275 31.062 63.3222 30.8059 63.5418 30.4891C64.0418 29.7222 64.2876 28.8141 64.2435 27.8964ZM78.059 27.8139C78.1402 29.3104 77.6411 30.78 76.668 31.9097C76.2758 32.3426 75.7969 32.6859 75.2633 32.9166C74.7297 33.1474 74.1536 33.2603 73.5734 33.2479C73.0114 33.2946 72.4474 33.185 71.9423 32.931C71.4373 32.677 71.0103 32.2882 70.7076 31.8066V37.1375H68.4778V26.1984C68.4778 25.1131 68.4502 24.0002 68.3952 22.8599H70.3555L70.4801 24.4696H70.522C70.8599 23.9459 71.3141 23.5093 71.8482 23.1946C72.3824 22.88 72.9818 22.696 73.5986 22.6573C74.2154 22.6185 74.8326 22.7262 75.401 22.9716C75.9695 23.217 76.4735 23.5934 76.8728 24.0709C77.7004 25.1338 78.1216 26.4631 78.059 27.815V27.8139ZM75.7885 27.8964C75.8229 27.0313 75.5916 26.1768 75.1264 25.4503C74.9114 25.1328 74.6213 24.8748 74.2827 24.6998C73.9441 24.5247 73.5676 24.4381 73.1875 24.4478C72.6391 24.4479 72.1085 24.6439 71.6889 25.0012C71.242 25.3708 70.933 25.8837 70.8129 26.4551C70.7521 26.6794 70.7171 26.91 70.7087 27.1425V28.837C70.691 29.5242 70.9304 30.1928 71.3788 30.709C71.5965 30.9585 71.8659 31.1562 72.1678 31.2881C72.4697 31.42 72.7966 31.4828 73.1252 31.4721C73.5073 31.4876 73.8872 31.4058 74.2299 31.234C74.5727 31.0623 74.8673 30.8061 75.0868 30.4891C75.5868 29.7222 75.8326 28.8141 75.7885 27.8964ZM90.9679 29.0661C90.9855 29.6159 90.8839 30.1629 90.6702 30.6687C90.4564 31.1744 90.1358 31.6266 89.7308 31.9934C88.6643 32.8711 87.311 33.3115 85.939 33.2273C84.6797 33.2882 83.4294 32.9837 82.3352 32.3497L82.8513 30.4684C83.8257 31.0536 84.9397 31.3575 86.0726 31.3472C86.7722 31.3909 87.4651 31.1885 88.0341 30.7743C88.262 30.5921 88.4444 30.3582 88.5667 30.0916C88.6889 29.8249 88.7477 29.5329 88.7381 29.2391C88.7436 28.9714 88.695 28.7054 88.5954 28.4574C88.4958 28.2094 88.3471 27.9845 88.1586 27.7967C87.5982 27.304 86.9431 26.9342 86.2345 26.7106C83.7972 25.794 82.5782 24.449 82.5774 22.6754C82.5647 22.1335 82.6743 21.5958 82.8979 21.1032C83.1215 20.6106 83.4532 20.1762 83.8678 19.833C84.8371 19.0569 86.0516 18.6633 87.2859 18.7251C88.3773 18.6862 89.4616 18.9158 90.4461 19.3941L89.887 21.2341C89.0636 20.7936 88.1435 20.571 87.2124 20.5868C86.5473 20.5463 85.8906 20.7547 85.3674 21.1723C85.1891 21.3318 85.0468 21.5284 84.9504 21.7487C84.8539 21.9689 84.8054 22.2077 84.8083 22.4486C84.8043 22.712 84.86 22.9729 84.971 23.2113C85.0821 23.4496 85.2455 23.659 85.4489 23.8234C86.0618 24.292 86.7446 24.6586 87.4716 24.9095C88.472 25.2677 89.3767 25.856 90.1145 26.6281C90.6877 27.3048 90.9901 28.174 90.9623 29.065L90.9679 29.0661ZM98.3601 24.5532H95.9017V29.4854C95.9017 30.7403 96.3356 31.367 97.2033 31.3655C97.5365 31.3735 97.8693 31.3385 98.1937 31.2613L98.2548 32.9798C97.6956 33.1647 97.1087 33.2492 96.5208 33.2296C96.1389 33.2512 95.7568 33.1895 95.4005 33.0488C95.0441 32.908 94.7218 32.6915 94.4552 32.4138C93.8847 31.6235 93.6201 30.6489 93.7115 29.6745V24.5532H92.2469V22.8553H93.7115V20.9947L95.9017 20.3256V22.8553H98.3601V24.5532ZM109.427 27.8551C109.482 29.2601 109.01 30.6339 108.105 31.7012C107.641 32.2148 107.072 32.6194 106.437 32.8866C105.802 33.1538 105.117 33.2771 104.43 33.2479C103.772 33.2774 103.115 33.1598 102.507 32.9036C101.898 32.6474 101.353 32.2588 100.909 31.7654C100.019 30.7317 99.5496 29.3941 99.5972 28.0235C99.5415 26.6067 100.026 25.2224 100.95 24.1568C101.413 23.6533 101.979 23.2578 102.609 22.9979C103.238 22.7379 103.916 22.6197 104.596 22.6514C105.259 22.6248 105.919 22.7443 106.532 23.0014C107.145 23.2586 107.696 23.6473 108.146 24.1408C109.023 25.1689 109.479 26.497 109.422 27.854L109.427 27.8551ZM107.116 27.9067C107.139 27.0672 106.933 26.2376 106.519 25.5099C106.33 25.1389 106.042 24.829 105.688 24.6151C105.334 24.4013 104.927 24.2921 104.515 24.3C104.097 24.2879 103.683 24.3948 103.321 24.6087C102.96 24.8226 102.665 25.1348 102.47 25.5099C102.052 26.2514 101.844 27.0956 101.871 27.9491C101.847 28.7891 102.055 29.6193 102.47 30.347C102.667 30.7148 102.959 31.0215 103.315 31.2346C103.671 31.4476 104.077 31.559 104.491 31.5569C104.904 31.5548 105.309 31.4392 105.663 31.2225C106.017 31.0059 106.306 30.6961 106.499 30.3264C106.921 29.5926 107.133 28.7543 107.111 27.9055L107.116 27.9067ZM116.678 24.8442C116.446 24.8016 116.211 24.7805 115.975 24.7812C115.622 24.7644 115.27 24.838 114.953 24.9952C114.635 25.1524 114.361 25.3881 114.157 25.6806C113.768 26.2735 113.574 26.9754 113.601 27.6867V33.0176H111.371V26.0575C111.371 24.8874 111.349 23.8211 111.306 22.8587H113.249L113.33 24.8064H113.392C113.604 24.1726 113.991 23.6138 114.507 23.1967C114.972 22.8442 115.538 22.6533 116.119 22.6525C116.306 22.6515 116.492 22.6652 116.677 22.6938L116.678 24.8442ZM126.652 27.4576C126.658 27.8008 126.63 28.1439 126.571 28.4818H119.881C119.866 28.9141 119.946 29.3444 120.113 29.7422C120.281 30.14 120.534 30.4955 120.852 30.7835C121.475 31.276 122.251 31.5275 123.04 31.4927C123.964 31.5051 124.882 31.3423 125.747 31.0126L126.096 32.5788C125.029 33.0205 123.884 33.2342 122.731 33.2066C122.058 33.2441 121.385 33.1401 120.754 32.9011C120.123 32.6621 119.547 32.2934 119.064 31.8181C118.609 31.3166 118.257 30.7286 118.029 30.0882C117.8 29.4478 117.7 28.7678 117.733 28.0877C117.685 26.7036 118.127 25.3475 118.978 24.2633C119.396 23.7322 119.931 23.308 120.54 23.0249C121.15 22.7419 121.817 22.608 122.487 22.6342C123.126 22.5982 123.764 22.7292 124.338 23.0145C124.913 23.2998 125.406 23.7298 125.769 24.2633C126.38 25.2108 126.686 26.3261 126.645 27.4564L126.652 27.4576ZM124.525 26.8721C124.555 26.2627 124.404 25.6582 124.092 25.1364C123.908 24.8311 123.646 24.5822 123.333 24.4163C123.02 24.2504 122.669 24.1738 122.316 24.1946C121.969 24.188 121.625 24.2682 121.315 24.428C121.006 24.5879 120.74 24.8225 120.541 25.1112C120.161 25.6211 119.933 26.2298 119.881 26.8664L124.525 26.8721Z" fill="#2C2C2C"/>
<path d="M49.8665 14.1533H48.6984L48.0589 12.1197H45.8359L45.2259 14.1533H44.094L46.2966 7.22871H47.6548L49.8665 14.1533ZM47.8665 11.2661L47.2881 9.45823C47.2269 9.27263 47.116 8.84186 46.9485 8.15444H46.9281C46.8568 8.45232 46.755 8.88424 46.6033 9.45823L46.0374 11.2661H47.8665ZM55.3741 9.16036L53.5065 14.1533H52.4403L50.6293 9.16036H51.8065L52.6497 11.7955C52.7923 12.2365 52.9135 12.6582 53.004 13.0557H53.0346C53.1161 12.6971 53.2371 12.2755 53.3888 11.7955L54.2219 9.16036H55.3741ZM59.3504 14.1533L59.2688 13.5804H59.2383C59.073 13.8066 58.8548 13.9878 58.6034 14.1078C58.3519 14.2277 58.075 14.2827 57.7974 14.2679C57.6012 14.2786 57.4048 14.2483 57.2205 14.179C57.0363 14.1097 56.868 14.0029 56.7262 13.865C56.5845 13.7272 56.4721 13.5614 56.3963 13.3778C56.3204 13.1943 56.2827 12.9969 56.2853 12.7979C56.2853 11.5652 57.3402 10.9282 59.1681 10.9282V10.8388C59.1681 10.1812 58.8286 9.85236 58.1426 9.85236C57.6866 9.84388 57.2383 9.97268 56.8546 10.2224L56.6282 9.49261C57.1426 9.18956 57.7312 9.03982 58.326 9.06068C59.6141 9.06068 60.2649 9.7481 60.2649 11.1229V12.9618C60.257 13.3602 60.2808 13.7587 60.3362 14.1533H59.3504ZM59.1976 11.666C57.9797 11.666 57.3707 11.965 57.3707 12.6731C57.3597 12.7765 57.3714 12.881 57.4049 12.9793C57.4384 13.0776 57.493 13.1673 57.5647 13.2418C57.6364 13.3163 57.7234 13.3739 57.8195 13.4104C57.9157 13.447 58.0188 13.4616 58.1212 13.4533C58.3964 13.4607 58.6635 13.3584 58.8649 13.1683C59.0663 12.9781 59.1858 12.7155 59.1976 12.437V11.666ZM62.7063 8.33775C62.5786 8.33081 62.4557 8.28621 62.3527 8.20943C62.2498 8.13265 62.1712 8.02706 62.1268 7.90567C62.0824 7.78427 62.0741 7.65237 62.1029 7.52623C62.1316 7.40009 62.1962 7.28523 62.2886 7.19579C62.3811 7.10635 62.4973 7.04624 62.6231 7.02288C62.7489 6.99952 62.8787 7.01392 62.9965 7.06431C63.1143 7.11471 63.215 7.19888 63.2861 7.30647C63.3572 7.41406 63.3956 7.54036 63.3967 7.66981C63.3993 7.76095 63.3831 7.85164 63.3489 7.93601C63.3147 8.02037 63.2634 8.09654 63.1984 8.1596C63.1333 8.22266 63.0559 8.27119 62.9711 8.30208C62.8863 8.33296 62.7961 8.34436 62.7063 8.33775ZM63.2722 14.1533H62.1766V9.16151H63.2722V14.1533ZM66.3158 14.1533H65.2202V6.87012H66.3158V14.1533ZM70.9745 14.1533L70.8931 13.5804H70.8625C70.6971 13.8066 70.479 13.9878 70.2275 14.1078C69.9761 14.2277 69.6992 14.2827 69.4216 14.2679C69.2253 14.2786 69.029 14.2483 68.8448 14.179C68.6605 14.1097 68.4923 14.0029 68.3505 13.865C68.2087 13.7272 68.0964 13.5614 68.0205 13.3778C67.9447 13.1943 67.9068 12.9969 67.9094 12.7979C67.9094 11.5652 68.9644 10.9282 70.7924 10.9282V10.8388C70.7924 10.1812 70.4528 9.85236 69.7669 9.85236C69.3108 9.84388 68.8625 9.97268 68.4788 10.2224L68.2524 9.49147C68.7668 9.18836 69.3554 9.03862 69.9502 9.05953C71.2383 9.05953 71.8891 9.74695 71.8891 11.1218V12.9606C71.882 13.359 71.9054 13.7574 71.9593 14.1521L70.9745 14.1533ZM70.8218 11.666C69.6028 11.666 68.995 11.965 68.995 12.6731C68.984 12.7765 68.9956 12.881 69.0292 12.9793C69.0627 13.0776 69.1172 13.1673 69.1889 13.2418C69.2605 13.3163 69.3476 13.3739 69.4438 13.4104C69.54 13.447 69.6429 13.4616 69.7453 13.4533C70.0206 13.4607 70.2878 13.3584 70.4892 13.1683C70.6905 12.9781 70.81 12.7155 70.8218 12.437V11.666ZM76.3294 14.2656C76.0149 14.2807 75.7026 14.2057 75.4283 14.0492C75.1541 13.8928 74.9289 13.6612 74.7788 13.3811H74.7573L74.695 14.1521H73.7578C73.7884 13.7523 73.7985 13.2986 73.7985 12.8071V6.87012H74.8954V9.89131H74.9157C75.0766 9.61925 75.3087 9.39754 75.5864 9.25074C75.8641 9.10394 76.1765 9.03776 76.489 9.05953C77.6774 9.05953 78.5094 10.0907 78.5094 11.5869C78.5468 11.9087 78.5195 12.2348 78.4294 12.5456C78.3393 12.8565 78.188 13.1457 77.9848 13.3959C77.7815 13.6462 77.5304 13.8523 77.2466 14.0019C76.9627 14.1516 76.6519 14.2416 76.3328 14.2667L76.3294 14.2656ZM76.103 9.92912C75.7693 9.94312 75.4548 10.0906 75.2283 10.3391C75.0019 10.5876 74.8822 10.9169 74.8954 11.2547V12.1277C74.8915 12.2893 74.9192 12.45 74.977 12.6006C75.0348 12.7513 75.1215 12.8888 75.2321 13.0053C75.3427 13.1219 75.475 13.2151 75.6214 13.2796C75.7677 13.3441 75.9253 13.3786 76.0849 13.3811C76.9055 13.3811 77.3945 12.704 77.3945 11.6247C77.399 10.62 76.8908 9.93026 76.1099 9.93026L76.103 9.92912ZM81.2247 14.1521H80.1302V6.87012H81.2247V14.1521ZM87.1919 11.9226H83.9016C83.8941 12.1269 83.93 12.3304 84.0067 12.5196C84.0834 12.7087 84.1992 12.879 84.3462 13.0191C84.4933 13.1592 84.6683 13.2658 84.8595 13.3318C85.0506 13.3978 85.2535 13.4216 85.4545 13.4017C85.9083 13.4063 86.3591 13.3263 86.7844 13.1657L86.9553 13.9368C86.431 14.1537 85.868 14.2586 85.3017 14.2449C84.9696 14.271 84.6358 14.2234 84.3238 14.1055C84.0118 13.9875 83.7289 13.8021 83.4949 13.5621C83.261 13.3221 83.0816 13.0334 82.9692 12.716C82.8568 12.3986 82.8142 12.0602 82.8444 11.7244C82.8111 11.3906 82.8462 11.0535 82.9476 10.7341C83.0489 10.4146 83.2143 10.1198 83.4334 9.86809C83.6525 9.61634 83.9205 9.41306 84.2207 9.27098C84.521 9.12889 84.847 9.05106 85.1783 9.04235C85.4982 9.09528 85.8045 9.212 86.0794 9.38574C86.3543 9.55947 86.5924 9.78677 86.7798 10.0544C86.9673 10.3221 87.1003 10.6247 87.1713 10.9448C87.2422 11.265 87.2496 11.5962 87.193 11.9192L87.1919 11.9226ZM86.1868 11.1321C86.1868 10.361 85.8008 9.81684 85.1002 9.81684C84.7736 9.84309 84.4687 9.99309 84.2465 10.2369C84.0243 10.4807 83.9011 10.8004 83.9016 11.1321H86.1868ZM93.8359 14.2656C93.5085 14.2708 93.1836 14.2067 92.8821 14.0773C92.5807 13.9478 92.3093 13.756 92.0855 13.5141C91.8616 13.2722 91.6902 12.9855 91.5823 12.6726C91.4744 12.3596 91.4324 12.0273 91.459 11.6969C91.4307 11.3561 91.4737 11.0131 91.5853 10.6902C91.6969 10.3674 91.8745 10.072 92.1065 9.82328C92.3384 9.57461 92.6197 9.37827 92.9317 9.24706C93.2438 9.11585 93.5796 9.05274 93.9174 9.06183C94.2447 9.05386 94.57 9.1158 94.872 9.24363C95.174 9.37145 95.4461 9.56228 95.6703 9.80368C95.8946 10.0451 96.0661 10.3316 96.1736 10.6446C96.2811 10.9576 96.3222 11.29 96.2943 11.6202C96.3218 11.9608 96.2786 12.3035 96.1674 12.6262C96.0561 12.9489 95.8793 13.2445 95.6484 13.4938C95.4174 13.7431 95.1374 13.9407 94.8264 14.0738C94.5154 14.207 94.1803 14.2727 93.8427 14.2667L93.8359 14.2656ZM93.8778 9.86725C93.0855 9.86725 92.5784 10.6165 92.5784 11.6648C92.5784 12.696 93.0957 13.4418 93.8665 13.4418C94.6373 13.4418 95.1534 12.6398 95.1534 11.6431C95.1624 10.6291 94.6543 9.86954 93.8835 9.86954L93.8778 9.86725ZM102.186 14.1521H101.091V11.2879C101.091 10.4046 100.752 9.96234 100.096 9.96234C99.9443 9.96787 99.7951 10.0041 99.6572 10.0689C99.5193 10.1337 99.3956 10.2258 99.2934 10.3397C99.1912 10.4536 99.1126 10.587 99.0621 10.7322C99.0116 10.8773 98.9903 11.0312 98.9995 11.1848V14.1544H97.905V10.5879C97.905 10.1468 97.8936 9.67134 97.8642 9.15922H98.8285L98.8795 9.93026H98.9101C99.0708 9.65761 99.3003 9.4331 99.5749 9.2797C99.8496 9.1263 100.16 9.04953 100.473 9.05724C101.508 9.05724 102.188 9.85924 102.188 11.163V14.1533L102.186 14.1521ZM109.358 9.99099H108.153V12.4153C108.153 13.0324 108.366 13.341 108.791 13.341C108.955 13.3425 109.119 13.3253 109.279 13.2894L109.31 14.1327C109.035 14.2246 108.747 14.2665 108.458 14.2564C107.595 14.2564 107.079 13.7741 107.079 12.5092V9.9887H106.359V9.15693H107.079V8.24037L108.154 7.91155V9.15463H109.359L109.358 9.99099ZM115.164 14.1521H114.067V11.3085C114.067 10.4149 113.727 9.96349 113.072 9.96349C112.921 9.95983 112.771 9.98848 112.632 10.0475C112.492 10.1066 112.367 10.1948 112.264 10.3063C112.16 10.4178 112.081 10.5501 112.032 10.6946C111.983 10.839 111.964 10.9924 111.977 11.1447V14.1544H110.883V6.87012H111.98V9.86954H112C112.153 9.61196 112.372 9.40071 112.633 9.25784C112.895 9.11497 113.189 9.04569 113.486 9.05724C114.531 9.05724 115.17 9.87871 115.17 11.1837L115.164 14.1521ZM120.764 11.9226H117.475C117.467 12.1269 117.503 12.3304 117.579 12.5195C117.656 12.7086 117.772 12.8789 117.919 13.019C118.066 13.1592 118.241 13.2658 118.432 13.3318C118.623 13.3978 118.826 13.4216 119.027 13.4017C119.48 13.4062 119.931 13.3262 120.355 13.1657L120.527 13.9368C120.003 14.1537 119.439 14.2586 118.873 14.2449C118.541 14.271 118.207 14.2234 117.895 14.1055C117.583 13.9875 117.3 13.8021 117.066 13.5621C116.832 13.3221 116.653 13.0334 116.54 12.716C116.428 12.3986 116.385 12.0602 116.415 11.7244C116.382 11.3906 116.417 11.0535 116.519 10.7341C116.62 10.4146 116.785 10.1198 117.004 9.86809C117.224 9.61634 117.492 9.41306 117.792 9.27098C118.092 9.12889 118.418 9.05106 118.749 9.04235C119.044 9.04285 119.336 9.10705 119.604 9.23066C119.872 9.35428 120.112 9.53446 120.306 9.75916C120.5 9.98386 120.645 10.2479 120.73 10.5337C120.815 10.8194 120.839 11.1203 120.8 11.4162C120.81 11.586 120.8 11.7564 120.77 11.9238L120.764 11.9226ZM119.759 11.1321C119.759 10.361 119.374 9.81684 118.673 9.81684C118.347 9.84283 118.042 9.99276 117.819 10.2366C117.597 10.4805 117.474 10.8003 117.475 11.1321H119.759Z" fill="#2C2C2C"/>
</g>
<defs>
<clipPath id="clip0_1714_2351">
<rect width="140" height="42" fill="white"/>
</clipPath>
</defs>
</svg>
