<svg width="77" height="67" viewBox="0 0 77 67" fill="none" xmlns="http://www.w3.org/2000/svg">
<g clip-path="url(#clip0_6_1795)">
<path d="M63.3235 61.2651H45.2057C44.9292 61.2651 44.6641 61.1554 44.4686 60.9601C44.2731 60.7648 44.1632 60.5 44.1632 60.2238C44.1632 59.9476 44.2731 59.6827 44.4686 59.4874C44.6641 59.2921 44.9292 59.1824 45.2057 59.1824H62.2798V25.9393C62.2728 19.772 59.8174 13.8594 55.4517 9.49845C51.0859 5.13751 45.1663 2.68442 38.9922 2.67749C32.8181 2.68442 26.8989 5.13751 22.5332 9.49845C18.1674 13.8594 15.7116 19.772 15.7047 25.9393V49.8522C15.7047 50.1284 15.5949 50.3932 15.3993 50.5885C15.2038 50.7838 14.9387 50.8935 14.6622 50.8935C14.3857 50.8935 14.1206 50.7838 13.9251 50.5885C13.7296 50.3932 13.6197 50.1284 13.6197 49.8522V25.9393C13.6109 22.6094 14.2637 19.3108 15.5398 16.2345C16.816 13.1582 18.6902 10.3655 21.0542 8.01771C23.4047 5.65629 26.2004 3.78414 29.2801 2.5094C32.3598 1.23467 35.6624 0.582679 38.9961 0.591395C42.3297 0.582679 45.6319 1.23467 48.7116 2.5094C51.7913 3.78414 54.5871 5.65629 56.9375 8.01771C59.3015 10.3655 61.1761 13.1582 62.4523 16.2345C63.7284 19.3108 64.3808 22.6094 64.372 25.9393V60.2246C64.3719 60.3618 64.3445 60.4977 64.2917 60.6243C64.2389 60.751 64.1615 60.8659 64.0641 60.9626C63.9666 61.0593 63.8513 61.136 63.7241 61.1879C63.597 61.2398 63.4609 61.2659 63.3235 61.2651Z" fill="#2C2C2C"/>
<path d="M14.6631 51.1097C10.9081 51.1053 7.30846 49.6136 4.6533 46.9614C1.99814 44.3092 0.504399 40.7131 0.500001 36.9622C0.498949 33.5355 1.74366 30.2248 4.00287 27.6461C4.18509 27.4384 4.44275 27.3115 4.71865 27.2933C4.99454 27.2751 5.26617 27.3672 5.47414 27.5492C5.57727 27.6392 5.66152 27.7487 5.72227 27.8713C5.78302 27.9939 5.81909 28.1273 5.82819 28.2638C5.83728 28.4003 5.81917 28.537 5.77523 28.6665C5.73129 28.7961 5.66221 28.916 5.57194 29.0189C3.64559 31.2177 2.58413 34.0403 2.58498 36.9622C2.58868 40.1609 3.86244 43.2274 6.12671 45.4892C8.39098 47.751 11.4609 49.0233 14.6631 49.027C14.9395 49.0273 15.2047 49.1372 15.4002 49.3325C15.5957 49.5277 15.7053 49.7922 15.7056 50.0684C15.7056 50.3446 15.5957 50.6094 15.4002 50.8047C15.2047 51 14.9396 51.1097 14.6631 51.1097Z" fill="#2C2C2C"/>
<path d="M71.4701 48.3734C71.3304 48.3737 71.1917 48.3458 71.0631 48.2915C70.9344 48.2372 70.8181 48.1572 70.721 48.0569C70.6256 47.9587 70.5507 47.8428 70.5002 47.7156C70.4497 47.5884 70.425 47.4526 70.4271 47.3159C70.4293 47.1791 70.4582 47.0438 70.5126 46.9183C70.5669 46.7927 70.6457 46.679 70.744 46.5838C72.844 44.5501 74.1332 41.8241 74.372 38.9122C74.5062 37.3329 74.3254 35.7427 73.8403 34.2336C73.3553 32.7245 72.5756 31.3264 71.5461 30.1203C70.5231 28.9087 69.2695 27.9119 67.8583 27.1874C66.447 26.4629 64.9062 26.0251 63.3245 25.8995C63.188 25.8883 63.055 25.8503 62.9333 25.7877C62.8115 25.7252 62.7032 25.6391 62.6147 25.5348C62.5261 25.4304 62.4592 25.3101 62.4174 25.1798C62.3755 25.0496 62.3596 24.9121 62.3708 24.7758C62.3935 24.5005 62.525 24.2455 62.736 24.0668C62.9469 23.8881 63.2201 23.8003 63.4957 23.8228C65.3505 23.9701 67.1579 24.4834 68.8128 25.333C70.4677 26.1825 71.9373 27.3515 73.1369 28.7722C74.3443 30.1864 75.2591 31.8258 75.8279 33.5954C76.3968 35.3651 76.6085 37.2296 76.451 39.0816C76.1716 42.4973 74.6592 45.6955 72.1957 48.0808C72.0012 48.2692 71.741 48.3742 71.4701 48.3734Z" fill="#2C2C2C"/>
<path d="M39.0379 66.9947C37.2523 66.9928 35.5404 66.2837 34.2778 65.0225C33.0152 63.7613 32.3048 62.0512 32.303 60.2676C32.3048 58.4839 33.0152 56.7739 34.2778 55.5127C35.5404 54.2514 37.2523 53.5419 39.0379 53.54C40.8236 53.5419 42.5355 54.2514 43.7981 55.5127C45.0607 56.7739 45.7706 58.4839 45.7725 60.2676C45.7706 62.0512 45.0607 63.7613 43.7981 65.0225C42.5355 66.2837 40.8236 66.9928 39.0379 66.9947ZM39.0379 55.6236C37.8054 55.625 36.6235 56.1147 35.752 56.9853C34.8805 57.8558 34.3902 59.0364 34.3888 60.2676C34.3902 61.4987 34.8805 62.6789 35.752 63.5494C36.6235 64.42 37.8054 64.9098 39.0379 64.9112C40.2704 64.9095 41.4515 64.4195 42.323 63.549C43.1945 62.6785 43.685 61.4986 43.6867 60.2676C43.6855 59.0363 43.1954 57.8556 42.3239 56.9849C41.4523 56.1141 40.2706 55.625 39.0379 55.6236Z" fill="#2C2C2C"/>
<path d="M59.2395 52.8716L44.974 44.6816H18.3997V19.0598H59.2395V52.8716ZM20.4846 42.5989H45.5304L57.1537 49.271V21.1438H20.4846V42.5989Z" fill="#2C2C2C"/>
<path d="M29.673 35.2966H24.051C23.839 35.2967 23.6318 35.232 23.4574 35.1115C23.283 34.991 23.1495 34.8204 23.0747 34.6222C23 34.424 22.9875 34.2078 23.0389 34.0023C23.0903 33.7969 23.2033 33.6122 23.3626 33.4725C24.4155 32.5202 25.3854 31.4802 26.262 30.3638C27.7244 28.4592 28.2656 26.9222 27.7486 26.1473C27.6093 25.903 27.42 25.6914 27.1926 25.5257C26.9652 25.3601 26.7052 25.2445 26.4298 25.1866C25.5842 25.1422 24.7502 25.3978 24.0754 25.9088C23.9669 25.9921 23.8428 26.0534 23.7107 26.0888C23.5785 26.1243 23.4406 26.1331 23.3049 26.1153C23.1693 26.0974 23.0386 26.0532 22.9201 25.9847C22.8017 25.9163 22.698 25.8254 22.6148 25.7168C22.4464 25.4974 22.372 25.22 22.4081 24.946C22.4442 24.6719 22.5876 24.4233 22.807 24.2549C23.9358 23.3943 25.3488 22.9926 26.7621 23.1299C27.3211 23.2333 27.8522 23.4523 28.3209 23.7737C28.7897 24.095 29.1858 24.5112 29.4834 24.995C30.5759 26.6314 30.0432 28.8733 27.8985 31.6577C27.4612 32.2239 27.0053 32.7526 26.5793 33.2165H29.6722C29.9487 33.2165 30.2138 33.3262 30.4093 33.5215C30.6048 33.7169 30.7147 33.9817 30.7147 34.2579C30.714 34.5335 30.6042 34.7973 30.4089 34.9921C30.2136 35.1868 29.9489 35.2964 29.673 35.2966Z" fill="#2C2C2C"/>
<path d="M37.0148 35.7267C36.7383 35.7267 36.4732 35.617 36.2776 35.4217C36.0821 35.2264 35.9723 34.9612 35.9723 34.685V31.8997L31.7408 31.9564C31.5456 31.9589 31.3534 31.9068 31.1865 31.8058C31.0195 31.7048 30.8844 31.5591 30.7961 31.3852C30.708 31.2112 30.6705 31.0158 30.6881 30.8216C30.7057 30.6274 30.7776 30.4424 30.8956 30.2871L36.1841 23.3143C36.316 23.1404 36.499 23.0121 36.7077 22.9478C36.9164 22.8835 37.14 22.8864 37.347 22.9559C37.554 23.0255 37.7342 23.158 37.8617 23.3352C37.9891 23.5123 38.0573 23.725 38.0573 23.9431V29.7888L39.5879 29.7688H39.602C39.876 29.769 40.1389 29.8769 40.334 30.0691C40.5291 30.2614 40.6406 30.5228 40.6445 30.7965C40.6463 30.9332 40.6213 31.0687 40.5706 31.1958C40.5199 31.3228 40.4449 31.4391 40.3494 31.5371C40.2539 31.6351 40.1399 31.713 40.0141 31.767C39.8883 31.821 39.753 31.8501 39.6161 31.8519L38.0581 31.8728V34.6858C38.058 34.8226 38.0312 34.958 37.9787 35.0843C37.9262 35.2106 37.8492 35.3255 37.7523 35.4221C37.6554 35.5188 37.5406 35.5956 37.4141 35.6478C37.2875 35.7 37.1517 35.7268 37.0148 35.7267ZM35.9723 27.0419L33.8459 29.8447L35.9723 29.8161V27.0419Z" fill="#2C2C2C"/>
<path d="M48.8726 41.4464C48.6878 41.4456 48.5066 41.3955 48.3477 41.3013C48.2297 41.2319 48.1264 41.1398 48.0441 41.0305C47.9617 40.9211 47.9019 40.7969 47.8677 40.6644C47.8335 40.5319 47.8254 40.3938 47.8446 40.2583C47.8638 40.1228 47.9099 39.9926 47.9796 39.8748L51.596 33.7492H48.469C48.1925 33.7492 47.9274 33.6395 47.7319 33.4442C47.5364 33.2489 47.4265 32.984 47.4265 32.7078C47.4265 32.4316 47.5364 32.1668 47.7319 31.9715C47.9274 31.7762 48.1925 31.6665 48.469 31.6665H53.4222C53.606 31.6665 53.7864 31.7148 53.9454 31.8069C54.1043 31.8989 54.2363 32.0315 54.3276 32.1908C54.4193 32.3506 54.4668 32.5318 54.4656 32.7159C54.4643 32.9001 54.4146 33.0804 54.3208 33.239L49.7724 40.9353C49.68 41.0915 49.5485 41.2211 49.3906 41.3107C49.2328 41.4004 49.0542 41.447 48.8726 41.4464Z" fill="#2C2C2C"/>
<path d="M52.8918 37.3597H48.8731C48.5965 37.3597 48.3314 37.25 48.1359 37.0547C47.9404 36.8594 47.8306 36.5942 47.8306 36.318C47.8308 36.0418 47.9405 35.7773 48.1359 35.5821C48.3314 35.3868 48.5966 35.2768 48.8731 35.2766H52.8918C53.1683 35.2766 53.4339 35.3863 53.6294 35.5816C53.8249 35.7769 53.9347 36.0417 53.9347 36.318C53.9347 36.5942 53.8249 36.8594 53.6294 37.0547C53.4339 37.25 53.1683 37.3597 52.8918 37.3597Z" fill="#2C2C2C"/>
<path d="M40.354 40.2889C40.2003 40.2889 40.0488 40.2547 39.9098 40.1891C39.6599 40.071 39.467 39.8587 39.3739 39.5987C39.2807 39.3387 39.295 39.0523 39.4132 38.8026L46.4215 23.991C46.5397 23.7413 46.7526 23.5491 47.0129 23.456C47.2733 23.3629 47.5595 23.3768 47.8094 23.4948C48.0594 23.6129 48.2523 23.8252 48.3454 24.0852C48.4386 24.3453 48.4247 24.6316 48.3066 24.8813L41.2978 39.693C41.2132 39.8714 41.0797 40.0222 40.9126 40.1277C40.7455 40.2332 40.5517 40.2891 40.354 40.2889Z" fill="#2C2C2C"/>
</g>
<defs>
<clipPath id="clip0_6_1795">
<rect width="76" height="66.4" fill="white" transform="translate(0.5 0.59375)"/>
</clipPath>
</defs>
</svg>
