<svg width="17" height="17" viewBox="0 0 17 17" fill="none" xmlns="http://www.w3.org/2000/svg">
<g clip-path="url(#clip0_1493_1063)">
<path d="M4.45203 3.25H12.452V14.25H4.45203V3.25Z" fill="#E6E7E8"/>
<path d="M2.95203 3.25C1.29528 3.25 0.452026 4.48125 0.452026 6V11.5C0.452026 13.0188 1.29528 14.25 2.95203 14.25H4.45203V3.25H2.95203ZM13.952 3.25H12.452V14.25H13.952C15.6088 14.25 16.452 13.0188 16.452 11.5V6C16.452 4.48125 15.6088 3.25 13.952 3.25Z" fill="#EC1C24"/>
<path fill-rule="evenodd" clip-rule="evenodd" d="M11.517 8.66043C11.4027 8.60868 11.3835 8.57218 11.4175 8.44593C11.5022 8.13018 11.5895 7.81568 11.6752 7.50043C11.6825 7.47468 11.689 7.44818 11.6987 7.41043C11.5927 7.43168 11.4937 7.45068 11.3947 7.47218C11.1945 7.51468 10.9955 7.55793 10.7957 7.60018C10.6652 7.62743 10.6055 7.59093 10.5685 7.46193C10.5337 7.33993 10.4995 7.21768 10.4437 7.07818C10.431 7.09918 10.4217 7.12343 10.4055 7.14118C10.1766 7.39918 9.94698 7.65718 9.71648 7.91518C9.64523 7.99368 9.56598 8.02793 9.50998 7.99693C9.42773 7.95043 9.43073 7.86818 9.44423 7.79143C9.50498 7.45618 9.56798 7.12168 9.63048 6.78643C9.67623 6.54318 9.72198 6.30118 9.76898 6.04768C9.74523 6.05668 9.72923 6.06118 9.71498 6.06818C9.58548 6.13518 9.45748 6.20343 9.32773 6.26893C9.16873 6.34868 9.08873 6.32243 9.00573 6.16868C8.82998 5.84293 8.65573 5.51668 8.48048 5.19068C8.47148 5.17468 8.46548 5.15868 8.45173 5.13818L8.42298 5.19068C8.24848 5.51685 8.07356 5.84285 7.89823 6.16868C7.81498 6.32243 7.73473 6.34893 7.57573 6.26893C7.44598 6.20343 7.31798 6.13518 7.18848 6.06818C7.17423 6.06118 7.15823 6.05668 7.13448 6.04768C7.18148 6.30118 7.22723 6.54318 7.27298 6.78643C7.33548 7.12068 7.39873 7.45518 7.45898 7.79143C7.47298 7.86843 7.47573 7.95068 7.39348 7.99693C7.33723 8.02793 7.25823 7.99368 7.18723 7.91518C6.95656 7.65718 6.72681 7.39918 6.49798 7.14118C6.48173 7.12343 6.47223 7.09918 6.45973 7.07818C6.40398 7.21793 6.36973 7.33993 6.33498 7.46193C6.29798 7.59093 6.23773 7.62743 6.10773 7.60018L5.50873 7.47218C5.40973 7.45068 5.31073 7.43168 5.20473 7.41043C5.21448 7.44818 5.22073 7.47493 5.22823 7.50043C5.31398 7.81568 5.40123 8.13043 5.48598 8.44593C5.51998 8.57243 5.50073 8.60868 5.38648 8.66043C5.28073 8.70843 5.17523 8.75918 5.06348 8.81143C5.08348 8.82943 5.09473 8.84018 5.10723 8.85043L5.90573 9.49918C6.16348 9.70868 6.42023 9.91793 6.67823 10.1267C6.76848 10.1994 6.79823 10.2879 6.76098 10.3984C6.73998 10.4634 6.72123 10.5284 6.70173 10.5937C6.67823 10.6704 6.65523 10.7477 6.62923 10.8354C6.88498 10.7992 7.12648 10.7654 7.36973 10.7317C7.65498 10.6924 7.93998 10.6522 8.22598 10.6162C8.32398 10.6034 8.39673 10.6782 8.39273 10.7754C8.37123 11.2912 8.32148 11.8734 8.31798 12.3619H8.58548C8.58198 11.8734 8.53248 11.2914 8.51098 10.7754C8.50648 10.6782 8.57948 10.6034 8.67748 10.6162C8.96348 10.6522 9.24848 10.6924 9.53373 10.7317C9.77698 10.7654 10.0185 10.7994 10.2742 10.8354C10.2482 10.7477 10.2252 10.6704 10.2017 10.5937C10.1822 10.5282 10.1635 10.4634 10.1425 10.3984C10.1052 10.2879 10.135 10.1994 10.2252 10.1267C10.4835 9.91793 10.74 9.70868 10.9977 9.49918C11.2642 9.28302 11.5304 9.06677 11.7962 8.85043C11.8087 8.84018 11.82 8.82943 11.84 8.81143C11.728 8.75893 11.623 8.70843 11.517 8.66043Z" fill="#EC1C24"/>
</g>
<defs>
<clipPath id="clip0_1493_1063">
<rect width="16" height="16" fill="white" transform="translate(0.452026 0.5)"/>
</clipPath>
</defs>
</svg>
