<svg width="44" height="44" viewBox="0 0 44 44" fill="none" xmlns="http://www.w3.org/2000/svg">
<path d="M30.1784 43.3911H13.9161C11.934 43.3911 10.7096 41.2263 11.7311 39.5285L15.9252 32.5336L16.2566 31.979L17.7111 32.1481L24.3946 32.9329L25.1117 33.0208L24.2187 35.6725L24.1781 35.801L23.1701 38.7843L30.5167 41.585C31.484 41.9503 31.2201 43.3911 30.1784 43.3911Z" fill="#3A3A3A"/>
<path d="M24.4959 31.2756L24.3945 32.9331L24.2186 35.6727L24.2118 35.7876L24.1779 35.8012L11.731 39.5287L15.925 32.5338C16.0198 32.4661 16.1145 32.4053 16.2091 32.3445L17.711 32.1483L24.4959 31.2756Z" fill="#2D2D2D"/>
<path d="M38.4869 7.72448C39.8401 7.80816 40.8999 9.01491 40.8999 10.4654V22.1653C40.8932 25.7388 40.736 29.2885 40.4146 32.8092C40.2942 34.129 39.287 35.1638 38.0507 35.2541C27.1593 36.0496 15.7689 35.9805 3.99255 35.2459C2.63995 35.1616 1.58081 33.9549 1.58081 32.505V22.1653C1.58759 18.5862 1.74464 13.6838 2.06113 10.1642C2.17998 8.84246 3.18758 7.8051 4.4255 7.7148C15.3163 6.92037 26.7115 6.99625 38.4869 7.72448Z" fill="#51504F"/>
<path d="M21.8031 30.9994C16.9352 30.9994 11.8243 30.8583 6.57208 30.5791C5.39215 30.5163 4.46582 29.5354 4.46582 28.3538V22.1656C4.47109 19.4404 4.5646 15.3676 4.74475 12.6994C4.81971 11.5893 5.71485 10.7073 6.8255 10.6413C11.2585 10.378 15.8874 10.2449 20.6254 10.2449C25.4982 10.2449 30.6265 10.3859 35.9077 10.6647C37.088 10.727 38.0151 11.7081 38.0151 12.8901V22.1656C38.01 24.8267 37.9202 26.4139 37.7472 28.5504C37.6579 29.6527 36.7757 30.5326 35.6717 30.5985C31.2104 30.8647 26.5577 30.9994 21.8031 30.9994Z" fill="white"/>
<path d="M21.2402 34.1556C24.3998 34.1556 26.9611 33.8736 26.9611 33.5258C26.9611 33.178 24.3998 32.896 21.2402 32.896C18.0806 32.896 15.5193 33.178 15.5193 33.5258C15.5193 33.8736 18.0806 34.1556 21.2402 34.1556Z" fill="#3A3A3A"/>
<path d="M14.4231 43.3255C15.2316 43.2711 15.9108 42.6532 15.9923 41.845C16.0806 41.0502 16.0806 40.2557 15.9923 39.4611C15.9108 38.6597 15.2316 38.0416 14.4301 37.9874C10.0427 37.7088 5.53289 37.736 0.907714 38.0212C0.439127 38.0484 0.126736 38.517 0.255739 38.9721C0.581726 40.0927 0.581726 41.22 0.255739 42.3476C0.126736 42.8026 0.432495 43.2645 0.901081 43.2983C5.41085 43.5971 9.91366 43.6041 14.4231 43.3255Z" fill="#FBAD3E"/>
<path d="M14.1447 42.5718C14.6133 42.5446 15.0003 42.1778 15.0481 41.7364C15.0889 41.3697 15.1021 41.0097 15.1021 40.6565C15.1021 40.2965 15.0889 39.9365 15.0481 39.5766C15.0003 39.1284 14.6133 38.7752 14.1447 38.7412C10.0969 38.4832 5.75032 38.4968 1.22032 38.7752C1.19313 38.7752 1.1792 38.8092 1.1792 38.8364C1.26774 39.1488 1.33573 39.4544 1.37618 39.7667C1.38315 39.8075 1.39011 39.8483 1.39675 39.8959C1.43057 40.1471 1.44417 40.4053 1.44417 40.6565C1.44417 40.9147 1.43057 41.1727 1.39011 41.424C1.39011 41.4715 1.38315 41.5123 1.37618 41.553C1.33573 41.8586 1.26774 42.1642 1.1792 42.463V42.4834C1.1792 42.5038 1.18616 42.5446 1.22032 42.5446C5.49198 42.8298 9.83859 42.8366 14.1447 42.5718Z" fill="white"/>
<path d="M7.25129 40.1743C9.3906 40.1607 11.5366 40.0995 13.6762 39.8347C11.5366 39.5629 9.3906 39.5019 7.25129 39.4951C5.2884 39.5019 3.33248 39.5493 1.37622 39.7667C1.38318 39.8075 1.39015 39.8483 1.39678 39.8959C3.34607 40.1131 5.29537 40.1607 7.25129 40.1743Z" fill="#D1DAFE"/>
<path d="M7.25129 41.8247C9.3906 41.8179 11.5366 41.7567 13.6762 41.4851C11.5366 41.2202 9.3906 41.1591 7.25129 41.1523C5.29537 41.1591 3.33911 41.2067 1.39015 41.4241C1.39015 41.4715 1.38318 41.5123 1.37622 41.5531C3.33248 41.7703 5.2884 41.8179 7.25129 41.8247Z" fill="#D1DAFE"/>
<path d="M2.05948 37.5889C1.25098 37.5346 0.571811 36.9166 0.490232 36.1084C0.402019 35.3137 0.402019 34.5191 0.490232 33.7245C0.571811 32.9232 1.25098 32.305 2.05252 32.2508C6.43992 31.9722 10.9497 31.9994 15.5749 32.2846C16.0434 32.3118 16.3558 32.7804 16.2268 33.2355C15.9008 34.3561 15.9008 35.4835 16.2268 36.611C16.3558 37.066 16.0501 37.5279 15.5815 37.5618C11.0717 37.8605 6.56892 37.8675 2.05948 37.5889Z" fill="#B53016"/>
<path d="M2.33777 36.8352C1.86919 36.808 1.48218 36.4413 1.43443 35.9999C1.39364 35.6331 1.38037 35.2731 1.38037 34.9199C1.38037 34.5599 1.39364 34.2 1.43443 33.84C1.48218 33.3918 1.86919 33.0386 2.33777 33.0046C6.38559 32.7466 10.7322 32.7602 15.2622 33.0386C15.2894 33.0386 15.3033 33.0726 15.3033 33.0998C15.2148 33.4122 15.1468 33.7178 15.1063 34.0302C15.0994 34.071 15.0924 34.1117 15.0858 34.1593C15.0519 34.4105 15.0384 34.6687 15.0384 34.9199C15.0384 35.1781 15.0519 35.4361 15.0924 35.6875C15.0924 35.7349 15.0994 35.7757 15.1063 35.8165C15.1468 36.1221 15.2148 36.4277 15.3033 36.7264V36.7468C15.3033 36.7672 15.2964 36.808 15.2622 36.808C10.9905 37.0932 6.64392 37.1 2.33777 36.8352Z" fill="white"/>
<path d="M9.2313 34.4377C7.09199 34.4241 4.94604 34.3629 2.8064 34.0981C4.94604 33.8264 7.09199 33.7653 9.2313 33.7585C11.1942 33.7653 13.1501 33.8128 15.1064 34.0301C15.0994 34.0709 15.0924 34.1117 15.0858 34.1593C13.1365 34.3765 11.1872 34.4241 9.2313 34.4377Z" fill="#D1DAFE"/>
<path d="M9.2313 36.0881C7.09199 36.0813 4.94604 36.0202 2.8064 35.7486C4.94604 35.4836 7.09199 35.4226 9.2313 35.4158C11.1872 35.4226 13.1435 35.4702 15.0924 35.6875C15.0924 35.735 15.0994 35.7758 15.1064 35.8165C13.1501 36.0338 11.1942 36.0813 9.2313 36.0881Z" fill="#D1DAFE"/>
<path d="M36.2348 11.5472C36.2702 11.9319 36.5602 12.2396 36.939 12.3165C37.1046 12.352 37.2644 12.3818 37.4301 12.4055V13.1216C37.4301 13.4351 37.809 13.601 38.0338 13.3759L38.75 12.6777C38.821 12.6124 38.9156 12.5771 39.0162 12.5829C40.3065 12.6598 41.6084 12.5534 42.9104 12.2928C43.2537 12.2278 43.52 11.9498 43.5733 11.6065C43.8455 9.96134 43.8337 8.35724 43.5792 6.78319C43.52 6.42804 43.2359 6.14398 42.8867 6.08474C40.9457 5.75936 38.963 5.75329 36.9448 6.07867C36.5602 6.13791 36.2643 6.45752 36.2287 6.84214C36.0985 8.38094 36.0985 9.9492 36.2348 11.5472Z" fill="#912010"/>
<path d="M35.5009 11.6171C35.5363 12.0017 35.8263 12.3094 36.2051 12.3863C36.3707 12.4219 36.5305 12.4516 36.6963 12.4753V13.1914C36.6963 13.5049 37.0751 13.6708 37.2999 13.4457L38.0161 12.7475C38.0871 12.6822 38.1817 12.647 38.2823 12.6527C39.5726 12.7296 40.8745 12.6233 42.1765 12.3626C42.5198 12.2976 42.7861 12.0196 42.8394 11.6763C43.1116 10.0312 43.0998 8.42706 42.8454 6.85302C42.7861 6.49787 42.5021 6.21381 42.1528 6.15457C40.2118 5.82918 38.2291 5.82311 36.2109 6.1485C35.8263 6.20774 35.5304 6.52734 35.4948 6.91197C35.3647 8.45076 35.3647 10.019 35.5009 11.6171Z" fill="#B53016"/>
<path d="M35.4001 9.2915C35.4001 10.0608 35.4298 10.83 35.5009 11.6172C35.5363 12.0018 35.8262 12.3096 36.2051 12.3864C36.3707 12.422 36.5305 12.4517 36.6962 12.4754V13.1915C36.6962 13.505 37.075 13.6709 37.2999 13.4458L38.0161 12.7476C38.087 12.6823 38.1817 12.6471 38.2822 12.6529C39.5725 12.7297 40.8745 12.6234 42.1765 12.3627C42.5198 12.2977 42.7861 12.0197 42.8394 11.6764C42.8807 11.41 42.9222 11.1438 42.9459 10.8832C42.1409 11.2444 41.2 11.4455 40.188 11.4455C38.087 11.4455 36.2642 10.5696 35.4001 9.2915Z" fill="#912010"/>
<path d="M41.6901 7.54878C41.2782 7.4226 40.8663 7.35663 40.4544 7.31189C40.0425 7.26339 39.6306 7.24533 39.2187 7.24414C38.8068 7.24444 38.3949 7.26269 37.983 7.3109C37.5711 7.35554 37.1592 7.42191 36.7473 7.54878C37.1592 7.67556 37.5711 7.74192 37.983 7.78656C38.3949 7.83487 38.8068 7.85302 39.2187 7.85342C39.6306 7.85223 40.0425 7.83417 40.4544 7.78567C40.8663 7.74083 41.2782 7.67486 41.6901 7.54878Z" fill="white"/>
<path d="M41.6901 9.11641C41.2782 8.99023 40.8663 8.92426 40.4544 8.87952C40.0425 8.83101 39.6306 8.81296 39.2187 8.81177C38.8068 8.81206 38.3949 8.83032 37.983 8.87853C37.5711 8.92317 37.1592 8.98953 36.7473 9.11641C37.1592 9.24318 37.5711 9.30955 37.983 9.35419C38.3949 9.4025 38.8068 9.42065 39.2187 9.42105C39.6306 9.41986 40.0425 9.4018 40.4544 9.35329C40.8663 9.30846 41.2782 9.24249 41.6901 9.11641Z" fill="white"/>
<path d="M39.2362 10.6848C39.0288 10.5586 38.8214 10.4926 38.614 10.4479C38.4066 10.3994 38.1992 10.3813 37.9917 10.3801C37.7843 10.3804 37.5769 10.3987 37.3695 10.4469C37.1621 10.4915 36.9547 10.5579 36.7473 10.6848C36.9547 10.8115 37.1621 10.8779 37.3695 10.9225C37.5769 10.9709 37.7843 10.989 37.9917 10.9894C38.1992 10.9882 38.4066 10.9702 38.614 10.9217C38.8214 10.8768 39.0288 10.8108 39.2362 10.6848Z" fill="white"/>
<path d="M34.391 26.0247C34.337 27.2356 33.3831 28.2298 32.1789 28.3246C25.6037 28.8455 18.9541 28.832 12.2231 28.3111C11.0462 28.2232 10.099 27.2759 10.0044 26.099C9.36838 18.3533 9.37515 10.5537 9.99745 2.71354C10.0922 1.48909 11.1002 0.528223 12.3246 0.487926C18.9067 0.251095 25.482 0.251095 32.064 0.487926C33.3155 0.528223 34.337 1.53632 34.3978 2.79447C34.7631 10.5402 34.7631 18.279 34.391 26.0247Z" fill="#8A9BEA"/>
<path d="M32.6707 26.8948C32.6167 28.1057 31.663 29.1003 30.4586 29.1951C23.8835 29.7156 17.2338 29.7024 10.5028 29.1812C9.32588 29.0933 8.37872 28.1463 8.28409 26.9695C7.64825 19.2237 7.65485 11.4238 8.27732 3.58365C8.37195 2.3592 9.37989 1.39867 10.6043 1.35804C17.1864 1.12154 23.7617 1.12154 30.3437 1.35804C31.5952 1.39867 32.6167 2.40677 32.6777 3.66491C33.0428 11.4106 33.0428 19.1494 32.6707 26.8948Z" fill="#D1DAFE"/>
<path d="M28.6673 4.32274C28.6673 4.97873 28.1396 5.50656 27.4835 5.50656H13.5415C12.8919 5.50656 12.3577 4.97873 12.3577 4.32274C12.3577 3.67335 12.8919 3.13892 13.5415 3.13892H27.4835C28.1396 3.13892 28.6673 3.67335 28.6673 4.32274Z" fill="#4269C4"/>
<path d="M10.0774 7.98911C13.5119 7.64328 16.9465 7.56401 20.3809 7.5498C23.8154 7.56203 27.2499 7.6413 30.6845 7.98911C27.2499 8.33693 23.8154 8.4162 20.3809 8.42842C16.9465 8.41422 13.5119 8.33495 10.0774 7.98911Z" fill="#8A9BEA"/>
<path d="M10.0774 11.4689C13.5119 11.123 16.9465 11.0437 20.3809 11.0295C23.8154 11.0418 27.2499 11.121 30.6845 11.4689C27.2499 11.817 23.8154 11.8959 20.3809 11.9085C16.9465 11.8943 13.5119 11.8147 10.0774 11.4689Z" fill="#8A9BEA"/>
<path d="M10.0774 14.9489C13.5119 14.6031 16.9465 14.5235 20.3809 14.5093C23.8154 14.5218 27.2499 14.6008 30.6845 14.9489C27.2499 15.2967 23.8154 15.376 20.3809 15.3882C16.9465 15.374 13.5119 15.2944 10.0774 14.9489Z" fill="#8A9BEA"/>
<path d="M10.0774 18.4288C13.5119 18.083 16.9465 18.0037 20.3809 17.9895C23.8154 18.0017 27.2499 18.081 30.6845 18.4288C27.2499 18.7766 23.8154 18.8559 20.3809 18.8681C16.9465 18.8539 13.5119 18.7746 10.0774 18.4288Z" fill="#8A9BEA"/>
<path d="M10.0774 21.9085C13.4629 21.5617 16.8483 21.4841 20.2338 21.4692C21.9269 21.4768 23.6196 21.4957 25.3123 21.5654C27.0051 21.6298 28.6978 21.7256 30.3905 21.9085C28.6978 22.0915 27.0051 22.1873 25.3123 22.2517C23.6196 22.3218 21.9269 22.3403 20.2338 22.3482C16.8483 22.3333 13.4629 22.2554 10.0774 21.9085Z" fill="#8A9BEA"/>
<path d="M10.0774 25.4601C11.7947 25.1132 13.5119 25.0356 15.2292 25.0208C16.088 25.0283 16.9466 25.0472 17.8053 25.1169C18.6639 25.1813 19.5225 25.2771 20.3812 25.4601C19.5225 25.6431 18.6639 25.7388 17.8053 25.8033C16.9466 25.8733 16.088 25.8918 15.2292 25.8997C13.5119 25.8848 11.7947 25.8069 10.0774 25.4601Z" fill="#8A9BEA"/>
<path d="M35.8164 35.0505L37.7391 33.9081L39.2096 36.3829L37.2869 37.5254L35.8164 35.0505Z" fill="#FA990E"/>
<path d="M42.8072 42.302L40.6939 43.5548C40.2385 43.8264 39.6537 43.6741 39.3828 43.2242L36.3587 38.1278C36.0873 37.6725 36.2399 37.0928 36.6953 36.8215L38.8081 35.5631C39.2639 35.297 39.8484 35.4441 40.1141 35.8944L43.1434 40.9904C43.4094 41.4462 43.2626 42.0306 42.8072 42.302Z" fill="#4269C4"/>
<path d="M42.8082 42.3016L40.6939 43.5524C40.2358 43.8256 39.6536 43.6731 39.3815 43.2262L39.093 42.7365C40.3109 41.9632 41.0099 39.7682 40.7097 37.2981C40.6876 37.1165 40.66 36.9356 40.6271 36.7554L43.1455 40.9879C43.4079 41.4472 43.2609 42.0291 42.8082 42.3016Z" fill="#255299"/>
<path d="M39.6098 25.0363C37.555 21.5774 33.0905 20.4392 29.6313 22.4885C26.1724 24.5433 25.0347 29.0132 27.0893 32.4722C29.1437 35.9257 33.6082 37.0639 37.0674 35.0145C40.5262 32.9597 41.6641 28.4898 39.6098 25.0363ZM36.0617 33.3209C33.5391 34.82 30.2822 33.9887 28.783 31.4662C27.2837 28.9437 28.1146 25.6816 30.6372 24.1822C33.16 22.6882 36.4222 23.5194 37.9161 26.0421C39.4155 28.5646 38.584 31.8215 36.0617 33.3209Z" fill="#FBAD3E"/>
</svg>
