<svg width="46" height="46" viewBox="0 0 46 46" fill="none" xmlns="http://www.w3.org/2000/svg">
<g clip-path="url(#clip0_524_438)">
<path d="M27.6001 7.66667H26.0667V6.9C26.0667 6.6838 25.9425 1.53333 19.1667 1.53333C12.3434 1.53333 12.2667 6.68073 12.2667 6.9V7.66667H10.7334V6.9C10.7334 6.831 10.83 0 19.1667 0C27.5035 0 27.6001 6.831 27.6001 6.9V7.66667Z" fill="#805333"/>
<path d="M41.4 39.8667C41.1966 39.8667 41.0016 39.7859 40.8579 39.6421C40.7141 39.4984 40.6333 39.3033 40.6333 39.1V32.2C40.6333 31.9967 40.7141 31.8017 40.8579 31.6579C41.0016 31.5141 41.1966 31.4333 41.4 31.4333C41.6033 31.4333 41.7983 31.5141 41.9421 31.6579C42.0859 31.8017 42.1666 31.9967 42.1666 32.2V39.1C42.1666 39.3033 42.0859 39.4984 41.9421 39.6421C41.7983 39.7859 41.6033 39.8667 41.4 39.8667Z" fill="#F0C419"/>
<path d="M36.0333 34.4771V42.9334C36.0333 43.5434 35.791 44.1284 35.3596 44.5597C34.9283 44.9911 34.3433 45.2334 33.7333 45.2334H19.9333C19.3233 45.2334 18.7383 44.9911 18.307 44.5597C17.8756 44.1284 17.6333 43.5434 17.6333 42.9334V34.4771H36.0333Z" fill="#3F5C6C"/>
<path d="M36.8001 17.365V28.5813L14.6971 33.7333H3.06678C2.66049 33.7321 2.27118 33.5702 1.98389 33.2829C1.6966 32.9956 1.53466 32.6063 1.53345 32.2V17.365H36.8001Z" fill="#A56A43"/>
<path d="M44.5664 32.3073L27.048 36.7708C26.9076 36.8099 26.7591 36.8099 26.6187 36.7708L9.10037 32.3073C8.90881 32.2548 8.73979 32.1408 8.61932 31.9829C8.49885 31.825 8.43359 31.6319 8.43359 31.4333C8.43359 31.2346 8.49885 31.0415 8.61932 30.8836C8.73979 30.7257 8.90881 30.6117 9.10037 30.5593L26.6187 26.0957C26.7591 26.0566 26.9076 26.0566 27.048 26.0957L44.5664 30.5593C44.7579 30.6117 44.927 30.7257 45.0474 30.8836C45.1679 31.0415 45.2332 31.2346 45.2332 31.4333C45.2332 31.6319 45.1679 31.825 45.0474 31.9829C44.927 32.1408 44.7579 32.2548 44.5664 32.3073Z" fill="#547580"/>
<path d="M21.4666 19.9332C31.0806 19.7262 35.19 18.2159 36.7463 17.3956C36.9948 17.2669 37.2029 17.0721 37.3476 16.8326C37.4924 16.5932 37.5682 16.3184 37.5666 16.0386V8.43324C37.5654 8.02694 37.4035 7.63764 37.1162 7.35035C36.8289 7.06305 36.4396 6.90112 36.0333 6.8999H2.29996C1.89367 6.90112 1.50436 7.06305 1.21707 7.35035C0.929775 7.63764 0.767838 8.02694 0.766624 8.43324V16.0386C0.765087 16.3184 0.840879 16.5932 0.985635 16.8326C1.13039 17.0721 1.33849 17.2669 1.58696 17.3956C3.14329 18.2159 7.25263 19.7262 16.8666 19.9332H21.4666Z" fill="#CB8252"/>
<path d="M19.9334 18.3999H18.4C17.5532 18.3999 16.8667 19.0864 16.8667 19.9332V22.9999C16.8667 23.8467 17.5532 24.5332 18.4 24.5332H19.9334C20.7802 24.5332 21.4667 23.8467 21.4667 22.9999V19.9332C21.4667 19.0864 20.7802 18.3999 19.9334 18.3999Z" fill="#D1D4D1"/>
</g>
<defs>
<clipPath id="clip0_524_438">
<rect width="46" height="46" fill="white"/>
</clipPath>
</defs>
</svg>
