<svg width="73" height="41" viewBox="0 0 73 41" fill="none" xmlns="http://www.w3.org/2000/svg">
<rect width="73" height="41" rx="5" fill="#D9D9D9"/>
<g clip-path="url(#clip0_1714_2448)">
<path d="M38.0421 16.0381C35.4659 16.0381 33.3757 17.9987 33.3757 20.4185C33.3757 22.9912 35.3752 24.9143 38.0421 24.9143C40.6426 24.9143 42.6959 22.9657 42.6959 20.469C42.6959 17.9871 40.6564 16.0381 38.0421 16.0381Z" fill="url(#paint0_linear_1714_2448)"/>
<path d="M11.5509 16.1981H9.04224V24.7224H11.5378C12.8618 24.7224 13.8194 24.4168 14.6594 23.7388C15.6561 22.9336 16.2471 21.7193 16.2471 20.4643C16.2471 17.9477 14.3173 16.1981 11.5509 16.1981ZM13.5459 22.6003C13.0065 23.0744 12.3121 23.2793 11.2084 23.2793H10.7499V17.6416H11.2084C12.3121 17.6416 12.9799 17.8335 13.5459 18.3314C14.1362 18.8427 14.4882 19.6345 14.4882 20.4522C14.4882 21.2716 14.1362 22.091 13.5459 22.6003ZM17.035 24.7224H18.74V16.1981H17.0352L17.035 24.7224ZM22.9139 19.4679C21.8892 19.0981 21.5877 18.8542 21.5877 18.3957C21.5877 17.8584 22.1246 17.4497 22.8606 17.4497C23.3722 17.4497 23.792 17.6541 24.2394 18.1383L25.1305 17.0026C24.3957 16.375 23.5169 16.0559 22.5582 16.0559C21.0115 16.0559 19.8298 17.1045 19.8298 18.4963C19.8298 19.6733 20.3804 20.2734 21.9816 20.8373C22.6511 21.0662 22.9914 21.2188 23.1624 21.3232C23.5035 21.5405 23.6748 21.8462 23.6748 22.2038C23.6748 22.8952 23.1101 23.4056 22.348 23.4056C21.5344 23.4056 20.8792 23.0098 20.4854 22.2686L19.3845 23.3051C20.1702 24.4283 21.1151 24.9284 22.4153 24.9284C24.1865 24.9284 25.4321 23.7765 25.4321 22.1282C25.4321 20.773 24.8563 20.159 22.9139 19.4679ZM25.9699 20.4644C25.9699 22.9724 27.9911 24.9147 30.5897 24.9147C31.3243 24.9147 31.954 24.7732 32.729 24.4167V22.46C32.0458 23.1254 31.4421 23.3931 30.6675 23.3931C28.9492 23.3931 27.7282 22.1785 27.7282 20.4522C27.7282 18.8169 28.9874 17.5257 30.5897 17.5257C31.4019 17.5257 32.0196 17.8067 32.729 18.4841V16.5277C31.9811 16.1582 31.3634 16.0059 30.6287 16.0059C28.0433 16.0059 25.9699 17.9874 25.9699 20.4644ZM46.5575 21.9241L44.2218 16.1981H42.3585L46.0731 24.9401H46.9908L50.7703 16.198H48.9208L46.5575 21.9241ZM51.5462 24.7225H56.3871V23.2793H53.2516V20.9769H56.2671V19.5335H53.2516V17.6415H56.3871V16.1982H51.5461L51.5462 24.7225ZM63.1428 18.7138C63.1428 17.1169 62.0159 16.1981 60.0466 16.1981H57.5139V24.7224H59.2214V21.2964H59.4448L61.8054 24.7224H63.9048L61.1476 21.1318C62.4354 20.8752 63.1428 20.0184 63.1428 18.7138ZM59.718 20.1216H59.2214V17.5386H59.7453C60.8103 17.5386 61.3874 17.9745 61.3874 18.804C61.3874 19.6598 60.8103 20.1216 59.718 20.1216Z" fill="#0B1015"/>
</g>
<defs>
<linearGradient id="paint0_linear_1714_2448" x1="35" y1="17.5" x2="38.1932" y2="25.0525" gradientUnits="userSpaceOnUse">
<stop stop-color="#FF0000"/>
<stop offset="1" stop-color="#FF9500"/>
</linearGradient>
<clipPath id="clip0_1714_2448">
<rect width="55" height="9" fill="white" transform="translate(9 16)"/>
</clipPath>
</defs>
</svg>
