<svg width="46" height="47" viewBox="0 0 46 47" fill="none" xmlns="http://www.w3.org/2000/svg">
<g clip-path="url(#clip0_6_2574)">
<path d="M23 46.8105C35.7025 46.8105 46 36.5131 46 23.8105C46 11.108 35.7025 0.810547 23 0.810547C10.2974 0.810547 0 11.108 0 23.8105C0 36.5131 10.2974 46.8105 23 46.8105Z" fill="#AADDE3"/>
<path fill-rule="evenodd" clip-rule="evenodd" d="M33.12 37.6648H12.88C11.8517 37.6648 10.9858 36.7989 10.9858 35.7707V15.206H21.647H35.0141V35.7707C35.0141 36.7989 34.2023 37.6648 33.12 37.6648ZM17.2094 21.9165H14.8823V23.973C14.8823 24.1895 14.72 24.3518 14.5035 24.3518C14.287 24.3518 14.0705 24.1895 14.0705 23.973V21.5377V19.1024C14.0705 18.8318 14.287 18.6695 14.5035 18.6695C14.72 18.6695 14.8823 18.8318 14.8823 19.1024V21.1048H17.2094V19.1024C17.2094 18.8318 17.4258 18.6695 17.6423 18.6695C17.8588 18.6695 18.0211 18.8318 18.0211 19.1024V23.973C18.0211 24.1895 17.8588 24.3518 17.6423 24.3518C17.4258 24.3518 17.2094 24.1895 17.2094 23.973V21.9165ZM20.9976 21.9165H19.9153V23.5942H22.1341C22.3505 23.5942 22.5129 23.7565 22.5129 23.973C22.5129 24.1895 22.3505 24.3518 22.1341 24.3518H19.5364C19.2658 24.3518 19.1035 24.1895 19.1035 23.973V21.5377V19.0483C19.1035 18.8318 19.2658 18.6695 19.5364 18.6695H22.1341C22.3505 18.6695 22.5129 18.8318 22.5129 19.0483C22.5129 19.2648 22.3505 19.4812 22.1341 19.4812H19.9153V21.1048H20.9976C21.2141 21.1048 21.3764 21.2671 21.3764 21.5377C21.3764 21.7542 21.2141 21.9165 20.9976 21.9165ZM27.167 24.3518H24.2447C24.0282 24.3518 23.8117 24.1895 23.8117 23.973V19.0483C23.8117 18.8318 24.0282 18.6695 24.2447 18.6695C24.4611 18.6695 24.6235 18.8318 24.6235 19.0483V23.5942H27.167C27.3835 23.5942 27.5458 23.7565 27.5458 23.973C27.5458 24.1895 27.3294 24.3518 27.167 24.3518ZM28.8447 24.3518C28.6282 24.3518 28.4658 24.1895 28.4658 23.973V21.7001V19.0483C28.4658 18.8318 28.6282 18.6695 28.8447 18.6695H31.4964C31.7129 18.6695 31.9294 18.8318 31.9294 19.0483V21.7001C31.8753 21.9165 31.7129 22.133 31.4964 22.133H29.2776V23.973C29.2235 24.1895 29.0611 24.3518 28.8447 24.3518ZM29.2776 19.4812V21.3212H31.1176V19.4812H29.2776ZM28.087 26.6789H17.9129C17.6964 26.6789 17.5341 26.5165 17.5341 26.3001C17.5341 26.0836 17.6964 25.8671 17.9129 25.8671H28.087C28.3035 25.8671 28.52 26.0836 28.52 26.3001C28.52 26.5165 28.3035 26.6789 28.087 26.6789ZM31.7129 29.2224H14.287C14.0705 29.2224 13.8541 29.0601 13.8541 28.7895C13.8541 28.573 14.0705 28.4107 14.287 28.4107H31.7129C31.9835 28.4107 32.1458 28.573 32.1458 28.7895C32.1458 29.0601 31.9835 29.2224 31.7129 29.2224ZM32.1458 33.8765H13.8541C13.6376 33.8765 13.4753 33.7142 13.4753 33.4977V30.7377C13.4753 30.5212 13.6376 30.3048 13.8541 30.3048H32.1458C32.4164 30.3048 32.5788 30.5212 32.5788 30.7377V33.4977C32.5247 33.7142 32.3623 33.8765 32.1458 33.8765ZM14.287 33.0648H31.767V31.1165H14.287V33.0648ZM10.9858 14.3942V11.8507C10.9858 10.8224 11.8517 9.95654 12.88 9.95654H17.6423L20.8353 14.3942H10.9858ZM21.8094 14.3942L18.6164 9.95654H33.12C34.2023 9.95654 35.0141 10.8224 35.0141 11.8507V14.3942H21.8094ZM27.6 12.9871H26.5717C26.3553 12.9871 26.1929 12.8248 26.1929 12.5542C26.1929 12.3377 26.3553 12.1754 26.5717 12.1754H27.6C27.8164 12.1754 27.9788 12.3377 27.9788 12.5542C27.9788 12.8248 27.8164 12.9871 27.6 12.9871ZM29.927 12.9871H28.8988C28.6823 12.9871 28.52 12.8248 28.52 12.5542C28.52 12.3377 28.6823 12.1754 28.8988 12.1754H29.927C30.1435 12.1754 30.36 12.3377 30.36 12.5542C30.36 12.8248 30.1435 12.9871 29.927 12.9871ZM32.2541 12.9871H31.2258C31.0094 12.9871 30.847 12.8248 30.847 12.5542C30.847 12.3377 31.0094 12.1754 31.2258 12.1754H32.2541C32.4705 12.1754 32.687 12.3377 32.687 12.5542C32.687 12.8248 32.4705 12.9871 32.2541 12.9871Z" fill="#52ABB3"/>
</g>
<defs>
<clipPath id="clip0_6_2574">
<rect width="46" height="46" fill="white" transform="translate(0 0.810547)"/>
</clipPath>
</defs>
</svg>
