<svg width="40" height="40" viewBox="0 0 40 40" fill="none" xmlns="http://www.w3.org/2000/svg">
<path d="M20.7103 2.51537C7.62087 1.91925 1.99718 18.8188 12.8992 26.1571C13.6763 26.6809 14.2138 27.4916 14.3939 28.4113C14.4279 28.5735 14.525 28.7155 14.6637 28.8062C14.8025 28.8968 14.9715 28.9287 15.1337 28.8947C15.2959 28.8607 15.438 28.7636 15.5287 28.6249C15.6193 28.4862 15.6512 28.3171 15.6172 28.1549C15.3706 26.9127 14.6411 25.8192 13.5888 25.1145C7.39655 21.1739 6.57023 11.8963 11.9946 6.94315C19.2891 -0.0752487 31.5727 5.27674 31.6595 15.3344C31.6734 17.2749 31.2006 19.1879 30.2845 20.8985C29.3683 22.6092 28.0379 24.0629 26.415 25.1267C25.8949 25.4732 25.4488 25.9195 25.1026 26.4397C24.7564 26.96 24.517 27.5438 24.3983 28.1574C24.3677 28.3186 24.4019 28.4854 24.4932 28.6217C24.5846 28.758 24.7259 28.8529 24.8867 28.8859C25.0474 28.9189 25.2147 28.8874 25.3524 28.7981C25.4901 28.7089 25.5872 28.569 25.6227 28.4088C25.709 27.9564 25.8842 27.5256 26.1382 27.1414C26.3922 26.7572 26.7199 26.4272 27.1023 26.1705C37.4598 19.3158 32.9973 3.31971 20.7103 2.51537Z" fill="white"/>
<path d="M24.9206 32.5674C24.8385 32.5673 24.7572 32.5835 24.6814 32.6149C24.6055 32.6463 24.5366 32.6923 24.4785 32.7504C24.4205 32.8084 24.3745 32.8773 24.3431 32.9532C24.3117 33.029 24.2955 33.1103 24.2956 33.1924C24.2947 34.0029 23.9724 34.78 23.3993 35.3532C22.8263 35.9264 22.0492 36.2488 21.2387 36.2499H18.7837C17.9732 36.2488 17.1962 35.9264 16.6231 35.3532C16.0501 34.78 15.7278 34.0029 15.7269 33.1924C15.7245 33.0282 15.6576 32.8716 15.5406 32.7563C15.4237 32.641 15.2661 32.5764 15.1018 32.5764C14.9376 32.5764 14.78 32.641 14.663 32.7563C14.5461 32.8716 14.4792 33.0282 14.4768 33.1924C14.478 34.3344 14.9321 35.4292 15.7396 36.2368C16.547 37.0443 17.6418 37.4986 18.7837 37.5H21.2387C22.3807 37.4986 23.4755 37.0443 24.2829 36.2368C25.0903 35.4292 25.5445 34.3344 25.5457 33.1924C25.5457 33.1103 25.5296 33.029 25.4982 32.9532C25.4668 32.8773 25.4207 32.8084 25.3627 32.7504C25.3046 32.6923 25.2357 32.6463 25.1599 32.6149C25.084 32.5835 25.0027 32.5673 24.9206 32.5674Z" fill="white"/>
<path d="M17.6053 32.5679C17.4416 32.5711 17.2858 32.6384 17.1712 32.7552C17.0566 32.8721 16.9924 33.0292 16.9924 33.1929C16.9924 33.3566 17.0566 33.5137 17.1712 33.6306C17.2858 33.7474 17.4416 33.8147 17.6053 33.818H22.4176C22.5812 33.8147 22.7371 33.7474 22.8516 33.6306C22.9662 33.5137 23.0304 33.3566 23.0304 33.1929C23.0304 33.0292 22.9662 32.8721 22.8516 32.7552C22.7371 32.6384 22.5812 32.5711 22.4176 32.5679H17.6053Z" fill="white"/>
<path d="M15.102 31.3634H24.9207C25.0844 31.3602 25.2403 31.2929 25.3549 31.1761C25.4695 31.0592 25.5337 30.902 25.5337 30.7383C25.5337 30.5746 25.4695 30.4175 25.3549 30.3006C25.2403 30.1837 25.0844 30.1165 24.9207 30.1133H15.102C14.9383 30.1165 14.7824 30.1837 14.6678 30.3006C14.5532 30.4175 14.489 30.5746 14.489 30.7383C14.489 30.902 14.5532 31.0592 14.6678 31.1761C14.7824 31.2929 14.9383 31.3602 15.102 31.3634Z" fill="white"/>
<path d="M28.137 12.7481C28.137 12.666 28.1209 12.5847 28.0895 12.5088C28.0581 12.433 28.0121 12.3641 27.954 12.306C27.896 12.248 27.8271 12.2019 27.7512 12.1705C27.6753 12.1391 27.594 12.123 27.512 12.123H19.0116C18.8955 12.1231 18.7818 12.1554 18.683 12.2164C18.5843 12.2774 18.5044 12.3647 18.4525 12.4685L15.511 18.3509L14.0699 15.4686C13.8269 14.938 13.0066 15.1705 12.5109 15.1231C12.3473 15.1263 12.1914 15.1935 12.0768 15.3104C11.9622 15.4273 11.8979 15.5844 11.8979 15.7481C11.8979 15.9118 11.9622 16.069 12.0768 16.1859C12.1914 16.3028 12.3473 16.37 12.5109 16.3732H13.1244L14.9519 20.0282C15.0049 20.1307 15.0851 20.2167 15.1838 20.2767C15.2824 20.3367 15.3956 20.3685 15.511 20.3685C15.6264 20.3685 15.7396 20.3367 15.8383 20.2767C15.9369 20.2167 16.0171 20.1307 16.0701 20.0282L19.398 13.3732H27.5119C27.594 13.3732 27.6753 13.3571 27.7512 13.3257C27.8271 13.2943 27.896 13.2482 27.954 13.1902C28.0121 13.1321 28.0581 13.0632 28.0895 12.9874C28.1209 12.9115 28.137 12.8302 28.137 12.7481Z" fill="white"/>
<path d="M23.4534 16.0566C23.3954 15.9985 23.3265 15.9524 23.2507 15.921C23.1749 15.8896 23.0936 15.8734 23.0115 15.8734C22.9294 15.8734 22.8482 15.8896 22.7723 15.921C22.6965 15.9524 22.6276 15.9985 22.5696 16.0566L21.5115 17.1147L20.4533 16.0566C20.3955 15.9977 20.3266 15.9509 20.2505 15.9188C20.1745 15.8867 20.0928 15.87 20.0103 15.8696C19.9278 15.8693 19.846 15.8853 19.7697 15.9167C19.6933 15.9481 19.624 15.9943 19.5656 16.0527C19.5073 16.111 19.461 16.1804 19.4296 16.2567C19.3982 16.333 19.3822 16.4148 19.3826 16.4973C19.3829 16.5799 19.3996 16.6615 19.4317 16.7376C19.4638 16.8136 19.5106 16.8825 19.5695 16.9404L20.6276 17.9985L19.5695 19.0566C19.5106 19.1145 19.4638 19.1834 19.4317 19.2595C19.3996 19.3355 19.3829 19.4172 19.3826 19.4997C19.3822 19.5822 19.3982 19.664 19.4296 19.7403C19.461 19.8167 19.5073 19.886 19.5656 19.9444C19.624 20.0027 19.6933 20.0489 19.7696 20.0804C19.846 20.1118 19.9278 20.1278 20.0103 20.1274C20.0928 20.1271 20.1745 20.1104 20.2505 20.0783C20.3266 20.0462 20.3955 19.9994 20.4533 19.9405L21.5115 18.8824L22.5696 19.9405C22.6274 19.9994 22.6964 20.0463 22.7724 20.0784C22.8485 20.1105 22.9301 20.1272 23.0127 20.1276C23.0952 20.128 23.1771 20.112 23.2534 20.0806C23.3297 20.0491 23.3991 20.0029 23.4575 19.9445C23.5159 19.8862 23.5621 19.8168 23.5935 19.7405C23.6249 19.6641 23.6409 19.5823 23.6405 19.4997C23.6402 19.4172 23.6234 19.3355 23.5913 19.2595C23.5592 19.1834 23.5123 19.1145 23.4534 19.0566L22.3953 17.9985L23.4534 16.9404C23.5115 16.8824 23.5575 16.8135 23.589 16.7377C23.6204 16.6618 23.6366 16.5806 23.6366 16.4985C23.6366 16.4164 23.6204 16.3351 23.589 16.2593C23.5575 16.1835 23.5115 16.1146 23.4534 16.0566Z" fill="white"/>
</svg>
