<svg width="27" height="20" viewBox="0 0 27 20" fill="none" xmlns="http://www.w3.org/2000/svg">
<g clip-path="url(#clip0_1726_2474)">
<path d="M6.13638 19.9016V9.65187L2.90113 6.74379L0 5.13V18.0928C0 19.0936 0.825293 19.9016 1.84096 19.9016H6.13638Z" fill="#4285F4"/>
<path d="M20.8635 19.9015H25.159C26.1777 19.9015 26.9999 19.0905 26.9999 18.0927V5.13L23.7139 6.9784L20.8635 9.65177V19.9015Z" fill="#34A853"/>
<path d="M6.13627 9.65177L5.69604 5.6469L6.13627 1.81384L13.4999 7.24016L20.8635 1.81384L21.3559 5.43996L20.8635 9.65177L13.4999 15.0781L6.13627 9.65177Z" fill="#EA4335"/>
<path d="M20.8635 1.81385V9.65178L26.9999 5.12992V2.71821C26.9999 0.481419 24.4012 -0.793711 22.5818 0.54774L20.8635 1.81385Z" fill="#FBBC04"/>
<path d="M0 5.12996L2.82224 7.20976L6.13638 9.65183V1.8139L4.41809 0.547787C2.59559 -0.793767 0 0.481466 0 2.71815V5.12996Z" fill="#C5221F"/>
</g>
<defs>
<clipPath id="clip0_1726_2474">
<rect width="27" height="20" fill="white"/>
</clipPath>
</defs>
</svg>
