<svg width="40" height="40" viewBox="0 0 40 40" fill="none" xmlns="http://www.w3.org/2000/svg">
<path d="M7.5 21.875H11.25C12.6287 21.875 13.75 20.7537 13.75 19.375V15.625C13.75 15.5169 13.7369 15.4125 13.7106 15.3125C13.7369 15.2125 13.75 15.1081 13.75 15V11.875C13.75 10.1519 12.3481 8.75 10.625 8.75H8.125C7.29125 8.75 6.50687 9.07562 5.91625 9.66625C5.42812 10.1544 5.42812 10.9456 5.91625 11.4338C6.40437 11.9219 7.19562 11.9219 7.68375 11.4338C7.7525 11.365 7.90125 11.25 8.125 11.25H10.625C10.97 11.25 11.25 11.5306 11.25 11.875V13.75H8.75C6.68187 13.75 5 15.4319 5 17.5V19.375C5 20.7537 6.12125 21.875 7.5 21.875ZM7.5 17.5C7.5 16.8106 8.06063 16.25 8.75 16.25H11.25V19.375H7.5V17.5Z" fill="white"/>
<path d="M21.25 12.5H18.125V7.5C18.125 6.81 17.565 6.25 16.875 6.25C16.185 6.25 15.625 6.81 15.625 7.5V20.625C15.625 21.315 16.185 21.875 16.875 21.875H21.25C22.9731 21.875 24.375 20.4731 24.375 18.75V15.625C24.375 13.9019 22.9731 12.5 21.25 12.5ZM21.875 18.75C21.875 19.0944 21.595 19.375 21.25 19.375H18.125V15H21.25C21.595 15 21.875 15.2806 21.875 15.625V18.75Z" fill="white"/>
<path d="M33.75 19.375H30.625C29.5912 19.375 28.75 18.5338 28.75 17.5V15.625C28.75 14.5912 29.5912 13.75 30.625 13.75H33.75C34.44 13.75 35 13.19 35 12.5C35 11.81 34.44 11.25 33.75 11.25H30.625C28.2131 11.25 26.25 13.2125 26.25 15.625V17.5C26.25 19.9125 28.2131 21.875 30.625 21.875H33.75C34.44 21.875 35 21.315 35 20.625C35 19.935 34.44 19.375 33.75 19.375Z" fill="white"/>
<path d="M20.0001 34.9998C20.3201 34.9998 20.6395 34.878 20.8838 34.6336L29.6338 25.8836C30.122 25.3955 30.122 24.6042 29.6338 24.1161C29.1457 23.628 28.3545 23.628 27.8663 24.1161L20.0001 31.9823L15.2588 27.2411C14.7707 26.753 13.9795 26.753 13.4913 27.2411C13.0032 27.7292 13.0032 28.5205 13.4913 29.0086L19.1163 34.6336C19.3607 34.878 19.6801 34.9998 20.0001 34.9998Z" fill="white"/>
</svg>
