<svg width="99" height="101" viewBox="0 0 99 101" fill="none" xmlns="http://www.w3.org/2000/svg">
<path d="M23.0293 100.783C22.2759 100.783 21.5614 100.43 21.1039 99.8204L14.0925 90.4719H2.4068C1.5726 90.4719 0.797941 90.0394 0.359218 89.3299C-0.0788777 88.6205 -0.11899 87.7349 0.253925 86.9884L11.0835 65.3306C11.6783 64.1422 13.1242 63.6603 14.3125 64.2544L34.473 75.4901C35.662 76.0849 36.1433 77.5302 35.5492 78.7191L25.1821 99.4531C24.8155 100.186 24.0283 100.783 23.0293 100.783Z" fill="#00CEFF"/>
<path d="M75.5781 100.783C76.3315 100.783 77.046 100.43 77.5029 99.8204L84.5149 90.4719H96.2006C97.0348 90.4719 97.8095 90.0394 98.2476 89.3299C98.6863 88.6205 98.7264 87.7349 98.3529 86.9884L87.5233 65.3306C86.9292 64.1422 85.4832 63.6603 84.2943 64.2544L64.1344 75.4901C62.9454 76.0849 62.4641 77.5302 63.0583 78.7191L73.4253 99.4531C73.7919 100.186 74.5791 100.783 75.5781 100.783Z" fill="#0092DD"/>
<path d="M49.5 0L96.5773 34.2037L78.5954 89.5463H20.4046L2.4227 34.2037L49.5 0Z" fill="url(#paint0_linear_103_64)"/>
<defs>
<linearGradient id="paint0_linear_103_64" x1="49" y1="49.5" x2="49.5" y2="49.5" gradientUnits="userSpaceOnUse">
<stop stop-color="#F4F5F8"/>
<stop offset="1" stop-color="#92DDEF"/>
</linearGradient>
</defs>
</svg>
