<svg width="76" height="76" viewBox="0 0 76 76" fill="none" xmlns="http://www.w3.org/2000/svg">
<path d="M70.7156 66.9156L67.3312 46.3719C67.0344 44.65 66.025 43.0469 64.5406 42.1562L54.8031 37.1094C53.7937 40.1375 51.4781 40.9094 50.7656 41.5031C50.4687 41.6813 50.1125 41.6219 49.9344 41.325C49.7562 41.0281 49.8156 40.6719 50.1125 40.4937C50.825 39.9 53.0219 39.1875 53.7344 36.575C53.9125 35.9219 55.8125 29.1531 56.7031 26.0656C57.1187 24.6406 56.9406 23.0969 56.2281 21.9094C49.2812 9.79688 45.125 0 38 0C31.0531 0 27.1344 8.96563 19.8312 21.9688C19.1187 23.2156 19 24.7 19.3562 26.125C19.3562 26.1844 19.4156 26.3031 19.3562 26.1844C19.475 26.6 20.0094 28.6187 22.325 36.5156C23.0375 39.0688 25.2344 39.8406 25.9469 40.4344C26.2437 40.6125 26.3031 40.9688 26.125 41.2656C25.9469 41.5625 25.5906 41.6219 25.2937 41.4438C24.6406 40.85 22.2062 40.0188 21.2562 37.05L11.4594 42.0969C9.975 42.9875 9.025 44.5906 8.72812 46.3125L5.34375 66.8562C5.04687 68.6969 5.58125 70.4781 6.76875 71.9031C7.95625 73.2687 9.67812 74.0406 11.4594 74.0406H12.0531C11.8156 73.4469 11.6969 72.7344 11.6969 72.0813C11.6969 71.7844 11.9344 71.4875 12.2906 71.4875H16.15V47.975C16.15 46.3719 17.4562 45.1844 18.9406 45.1844H57C58.6031 45.1844 59.7906 46.4906 59.7906 47.975V71.3687H63.65C64.0062 71.3687 64.2437 71.6656 64.2437 71.9625C64.2437 72.6156 64.125 73.3281 63.8875 73.9219H64.4812C66.3219 73.9219 68.0437 73.2094 69.1719 71.7844C70.4781 70.4781 70.9531 68.6375 70.7156 66.9156ZM42.5125 39.9H33.3094C31.35 39.9 29.5687 38.7125 28.7969 36.9313C27.4312 33.9625 25.1156 28.6187 24.4031 26.0062C23.8687 24.0469 24.8781 22.0281 26.7187 21.3156L35.3875 17.7531C37.1687 17.0406 39.0687 17.0406 40.85 17.7531L49.4594 21.3156C51.3 22.0875 52.3687 24.1062 51.775 26.125C51.7156 26.125 51.7156 26.125 51.6562 26.125L47.1437 36.8125C46.3125 38.6531 44.5312 39.9 42.5125 39.9Z" fill="#EC1C24"/>
<path d="M63.0563 72.675H59.8501V75.9407C61.5126 75.6438 62.8188 74.3375 63.0563 72.675Z" fill="#EC1C24"/>
<path d="M16.0905 75.9407V72.675H12.8843C13.1812 74.3375 14.4874 75.6438 16.0905 75.9407Z" fill="#EC1C24"/>
<path d="M57.1187 46.3718H18.9405C18.0499 46.3718 17.3374 47.0843 17.3374 47.975V76H58.6624H58.7218V47.975C58.7218 47.0843 58.0093 46.3718 57.1187 46.3718ZM37.9999 65.2531C35.7437 65.2531 33.903 63.4125 33.903 61.1562C33.903 58.9 35.7437 57.0593 37.9999 57.0593C40.2562 57.0593 42.0968 58.9 42.0968 61.1562C42.0968 63.4718 40.2562 65.2531 37.9999 65.2531Z" fill="#EC1C24"/>
</svg>
