<svg width="65" height="41" viewBox="0 0 65 41" fill="none" xmlns="http://www.w3.org/2000/svg">
<path fill-rule="evenodd" clip-rule="evenodd" d="M45 32.4999L40.5 40.4999H23L10 26.9999L16 15.9999L11 10.4999L8 15.4999C8.5 16.3333 9 17.8999 7 17.4999L4.5 25.4999L1 23.4999L6.5 17.4999C5.66667 16.8333 4.7 15.3999 7.5 14.9999L10.5 9.99992L5 2.99992C5 2.99992 37.5 2.92857 39.5 3.49992C41.5 4.07127 43 5.19992 45 7.99992C47 10.7999 58.1667 23.8333 63.5 29.9999L28.5 28.9999C27.8333 28.9999 26.5 29.2999 26.5 30.4999C26.5 31.6999 27.8333 31.9999 28.5 31.9999L45 32.4999ZM33.3825 18.2593C35.5269 19.1108 37.5956 18.9688 38.0033 17.9422C38.4109 16.9156 37.0031 15.3931 34.8587 14.5417C32.7144 13.6902 30.6456 13.8321 30.238 14.8587C29.8303 15.8853 31.2382 17.4078 33.3825 18.2593Z" fill="black"/>
<path d="M40.5 40.4999V40.9999H40.7924L40.9358 40.7451L40.5 40.4999ZM45 32.4999L45.4358 32.7451L45.8407 32.0252L45.0151 32.0002L45 32.4999ZM23 40.4999L22.6398 40.8467L22.7873 40.9999H23V40.4999ZM10 26.9999L9.56105 26.7605L9.3854 27.0825L9.63984 27.3467L10 26.9999ZM16 15.9999L16.4389 16.2393L16.6094 15.9269L16.37 15.6636L16 15.9999ZM11 10.4999L11.37 10.1636L10.9174 9.66576L10.5713 10.2427L11 10.4999ZM8 15.4999L7.57125 15.2427L7.4169 15.4999L7.57125 15.7572L8 15.4999ZM7 17.4999L7.09806 17.0096L6.65694 16.9214L6.52276 17.3508L7 17.4999ZM4.5 25.4999L4.25193 25.934L4.79178 26.2425L4.97724 25.6491L4.5 25.4999ZM1 23.4999L0.631423 23.1621L0.208451 23.6235L0.751931 23.934L1 23.4999ZM6.5 17.4999L6.86858 17.8378L7.22994 17.4436L6.81235 17.1095L6.5 17.4999ZM7.5 14.9999L7.57071 15.4949L7.8063 15.4612L7.92875 15.2572L7.5 14.9999ZM10.5 9.99992L10.9287 10.2572L11.1059 9.96183L10.8932 9.69101L10.5 9.99992ZM5 2.99992L4.9989 2.49992L3.97304 2.50217L4.60684 3.30883L5 2.99992ZM39.5 3.49992L39.3627 3.98069L39.3627 3.98069L39.5 3.49992ZM45 7.99992L45.4069 7.7093L45.4069 7.7093L45 7.99992ZM63.5 29.9999L63.4857 30.4997L64.6214 30.5322L63.8782 29.6728L63.5 29.9999ZM28.5 28.9999L28.5143 28.5001L28.5071 28.4999H28.5V28.9999ZM28.5 31.9999L28.5151 31.5002L28.5076 31.4999H28.5V31.9999ZM33.3825 18.2593L33.198 18.724L33.198 18.724L33.3825 18.2593ZM34.8587 14.5417L35.0433 14.0769L35.0433 14.0769L34.8587 14.5417ZM30.238 14.8587L30.7027 15.0433L30.7027 15.0433L30.238 14.8587ZM40.9358 40.7451L45.4358 32.7451L44.5642 32.2548L40.0642 40.2548L40.9358 40.7451ZM23 40.9999H40.5V39.9999H23V40.9999ZM9.63984 27.3467L22.6398 40.8467L23.3602 40.1531L10.3602 26.6531L9.63984 27.3467ZM15.5611 15.7605L9.56105 26.7605L10.4389 27.2393L16.4389 16.2393L15.5611 15.7605ZM10.63 10.8363L15.63 16.3363L16.37 15.6636L11.37 10.1636L10.63 10.8363ZM8.42875 15.7572L11.4287 10.7572L10.5713 10.2427L7.57125 15.2427L8.42875 15.7572ZM6.90194 17.9902C7.44274 18.0984 7.91099 18.0961 8.27832 17.928C8.68649 17.7413 8.88205 17.3928 8.93266 17.0318C8.97928 16.6993 8.90716 16.3528 8.81028 16.0621C8.71064 15.7632 8.56863 15.4758 8.42875 15.2427L7.57125 15.7572C7.68137 15.9407 7.78936 16.1616 7.8616 16.3783C7.93659 16.6033 7.95822 16.7797 7.94234 16.893C7.93045 16.9778 7.90726 16.9981 7.86231 17.0187C7.77651 17.0579 7.55726 17.1015 7.09806 17.0096L6.90194 17.9902ZM4.97724 25.6491L7.47724 17.6491L6.52276 17.3508L4.02276 25.3508L4.97724 25.6491ZM0.751931 23.934L4.25193 25.934L4.74807 25.0658L1.24807 23.0658L0.751931 23.934ZM6.13142 17.1621L0.631423 23.1621L1.36858 23.8378L6.86858 17.8378L6.13142 17.1621ZM7.42929 14.5049C6.6954 14.6098 6.14256 14.7898 5.76052 15.0546C5.35576 15.3351 5.14116 15.7157 5.13752 16.1457C5.13418 16.5392 5.30883 16.896 5.50132 17.171C5.69889 17.4533 5.95162 17.7015 6.18765 17.8904L6.81235 17.1095C6.63172 16.965 6.45111 16.7841 6.32055 16.5976C6.18492 16.4038 6.13665 16.2523 6.13748 16.1542C6.138 16.0925 6.15466 15.9981 6.33011 15.8765C6.52828 15.7392 6.9046 15.5901 7.57071 15.4949L7.42929 14.5049ZM10.0713 9.74267L7.07125 14.7427L7.92875 15.2572L10.9287 10.2572L10.0713 9.74267ZM4.60684 3.30883L10.1068 10.3088L10.8932 9.69101L5.39316 2.69101L4.60684 3.30883ZM39.6373 3.01915C39.4595 2.96834 39.1686 2.93239 38.8271 2.9021C38.4698 2.8704 38.0107 2.8415 37.4677 2.81499C36.3811 2.76194 34.9423 2.71774 33.2767 2.68088C29.9446 2.60713 25.6915 2.56247 21.5032 2.53567C17.3144 2.50887 13.1884 2.49994 10.1097 2.4977C8.57036 2.49658 7.29274 2.49714 6.39992 2.49797C5.95351 2.49839 5.60331 2.49888 5.36468 2.49926C5.24536 2.49945 5.15394 2.49962 5.09234 2.49973C5.06154 2.49979 5.03819 2.49984 5.02254 2.49987C5.01471 2.49989 5.00881 2.4999 5.00486 2.49991C5.00288 2.49991 5.0014 2.49992 5.0004 2.49992C4.99991 2.49992 4.99953 2.49992 4.99928 2.49992C4.99903 2.49992 4.9989 2.49992 5 2.99992C5.0011 3.49992 5.00122 3.49992 5.00146 3.49992C5.00171 3.49992 5.00207 3.49992 5.00256 3.49992C5.00355 3.49991 5.00502 3.49991 5.00698 3.49991C5.01091 3.4999 5.01679 3.49989 5.02459 3.49987C5.0402 3.49984 5.06349 3.49979 5.09425 3.49973C5.15575 3.49961 5.24707 3.49945 5.36628 3.49926C5.6047 3.49887 5.95469 3.49839 6.40086 3.49797C7.2932 3.49714 8.57027 3.49658 10.109 3.4977C13.1866 3.49994 17.3106 3.50887 21.4968 3.53565C25.6835 3.56244 29.9304 3.60706 33.2546 3.68063C34.9171 3.71743 36.3455 3.76139 37.419 3.8138C37.9561 3.84002 38.4003 3.86817 38.7388 3.89819C39.0931 3.92963 39.2905 3.96008 39.3627 3.98069L39.6373 3.01915ZM45.4069 7.7093C43.3692 4.85658 41.7849 3.63266 39.6373 3.01915L39.3627 3.98069C41.2151 4.50989 42.6308 5.54326 44.5931 8.29054L45.4069 7.7093ZM63.8782 29.6728C58.5332 23.4927 47.3893 10.4847 45.4069 7.7093L44.5931 8.29054C46.6107 11.1151 57.8002 24.1738 63.1218 30.327L63.8782 29.6728ZM28.4857 29.4997L63.4857 30.4997L63.5143 29.5001L28.5143 28.5001L28.4857 29.4997ZM27 30.4999C27 30.1311 27.186 29.9027 27.4876 29.7399C27.8108 29.5653 28.2227 29.4999 28.5 29.4999V28.4999C28.1106 28.4999 27.5225 28.5845 27.0124 28.86C26.4806 29.1471 26 29.6687 26 30.4999H27ZM28.5 31.4999C28.2227 31.4999 27.8108 31.4345 27.4876 31.26C27.186 31.0971 27 30.8687 27 30.4999H26C26 31.3311 26.4806 31.8527 27.0124 32.1399C27.5225 32.4153 28.1106 32.4999 28.5 32.4999V31.4999ZM45.0151 32.0002L28.5151 31.5002L28.4849 32.4997L44.9849 32.9997L45.0151 32.0002ZM37.5386 17.7577C37.4465 17.9895 37.0967 18.2522 36.3099 18.3062C35.5635 18.3574 34.5854 18.199 33.567 17.7946L33.198 18.724C34.3239 19.1711 35.4525 19.3674 36.3784 19.3038C37.264 19.2431 38.1524 18.9215 38.468 18.1267L37.5386 17.7577ZM34.6742 15.0064C35.6926 15.4107 36.5129 15.9664 37.0209 16.5157C37.5563 17.0947 37.6306 17.5259 37.5386 17.7577L38.468 18.1267C38.7836 17.3319 38.3578 16.4885 37.7551 15.8368C37.125 15.1554 36.1692 14.524 35.0433 14.0769L34.6742 15.0064ZM30.7027 15.0433C30.7947 14.8115 31.1446 14.5487 31.9313 14.4947C32.6778 14.4435 33.6558 14.602 34.6742 15.0064L35.0433 14.0769C33.9173 13.6299 32.7888 13.4336 31.8629 13.4971C30.9772 13.5579 30.0889 13.8794 29.7733 14.6742L30.7027 15.0433ZM33.567 17.7946C32.5487 17.3902 31.7284 16.8346 31.2204 16.2852C30.6849 15.7062 30.6106 15.2751 30.7027 15.0433L29.7733 14.6742C29.4577 15.469 29.8835 16.3124 30.4862 16.9641C31.1163 17.6456 32.0721 18.2769 33.198 18.724L33.567 17.7946Z" fill="black"/>
<path d="M58.5 5C58.5 6.19346 57.8724 7.30765 56.7913 8.13922C55.7097 8.97121 54.1942 9.5 52.5 9.5C50.8058 9.5 49.2903 8.97121 48.2087 8.13922C47.1276 7.30765 46.5 6.19346 46.5 5C46.5 3.80655 47.1276 2.69235 48.2087 1.86078C49.2903 1.02879 50.8058 0.5 52.5 0.5C54.1942 0.5 55.7097 1.02879 56.7913 1.86078C57.8724 2.69235 58.5 3.80655 58.5 5Z" fill="white" stroke="black"/>
<path d="M51 7V5.28571M54.0405 5.28571C55.5608 4.71429 55.054 3 54.0405 3H51V5.28571M54.0405 5.28571H51M54.0405 5.28571L54.5473 7" stroke="black"/>
</svg>
