<svg width="123" height="123" viewBox="0 0 123 123" fill="none" xmlns="http://www.w3.org/2000/svg">
<rect width="123" height="123" rx="61.5" fill="#38419A"/>
<path d="M77.9033 70.3034C77.9033 69.5592 77.9033 68.8151 77.8875 68.0867C77.84 65.1576 77.7925 62.3551 77.745 59.9167C77.6816 57.4784 77.6183 55.4042 77.555 53.9317C77.5866 53.1401 77.1591 52.5226 76.8266 52.3009C76.7475 52.2376 76.6683 52.2059 76.605 52.1584C76.7475 51.5251 76.89 50.9234 77.0166 50.3692V50.3376C77.0483 50.2267 76.985 50.1159 76.89 50.0526C77.08 49.7359 77.3808 49.0867 77.6816 48.0576C77.84 47.2342 77.46 46.1576 76.5258 45.6034C75.6233 45.0334 74.2933 45.1442 73.5175 45.9042C72.995 46.3159 72.7258 47.1551 72.6625 47.5826C72.5516 48.1051 72.425 48.6117 72.3141 49.1026V49.1501C72.2666 49.3876 72.4091 49.5934 72.6308 49.6884C72.52 49.9734 72.3933 50.3851 72.2191 50.9076C71.9341 50.6542 71.1425 50.3851 70.4141 50.3217C69.7016 50.3217 68.91 50.4959 68.5775 50.7176V50.6859C68.2766 49.4034 67.3741 47.5509 65.4266 46.3159C63.5425 45.0492 60.5816 44.6534 58.0641 45.9201C56.1166 46.8384 54.6283 48.7226 54.0583 50.8126C53.5991 50.7651 52.8866 50.7334 51.9366 50.7492C51.0816 50.7809 50.0525 50.8759 48.8808 51.1134C48.295 51.2242 47.6933 51.3667 47.06 51.5567C46.395 51.6834 45.5716 52.2534 45.35 53.1242C45.2233 53.5834 45.2708 53.9476 45.255 54.3117C45.255 54.6759 45.255 55.0559 45.2391 55.4201C45.2391 56.1801 45.2075 56.9559 45.2075 57.7476C45.1916 59.3309 45.1758 60.9934 45.1441 62.6876C45.1441 64.3817 45.1125 66.1076 45.1125 67.8334V70.4301C45.1283 70.8892 45.065 71.2059 45.16 71.8392C45.2233 72.1084 45.3341 72.3617 45.4766 72.5834C45.445 73.1376 45.4291 73.7709 45.3816 74.4992C45.35 74.8792 45.35 75.5284 45.6666 76.0192C45.9675 76.5101 46.5058 76.9059 47.155 77.0167C47.4716 77.0801 47.8358 77.0326 48.1208 76.9534C48.3741 76.8901 48.6433 76.8267 48.9125 76.7792C49.4508 76.6684 50.005 76.5734 50.575 76.4942C51.715 76.3517 52.9025 76.2884 54.1216 76.3359C55.3408 76.3834 56.5758 76.5417 57.795 76.7951C58.3966 76.9217 58.9983 77.0801 59.6 77.2701L60.4708 77.5551L60.8983 77.7134L61.1041 77.7926L61.215 77.8401H61.2625L61.2941 77.8717H61.7533C64.0016 76.9534 66.5191 76.4151 68.9575 76.3359C70.1766 76.2884 71.38 76.3517 72.5041 76.4942C73.0741 76.5734 73.6283 76.6684 74.1666 76.7792C74.4358 76.8426 74.6891 76.9059 74.9583 76.9534C75.2433 77.0326 75.6075 77.0642 75.9241 77.0167C76.5733 76.9059 77.1116 76.5101 77.4125 76.0192C77.7291 75.5442 77.745 74.8792 77.6975 74.4992C77.6658 73.7551 77.6341 73.1059 77.6025 72.5359C77.8083 72.1876 77.935 71.8076 77.9508 71.4276V70.2876L77.9033 70.3034ZM72.9316 62.1017C72.8208 62.5134 72.7575 62.8142 72.5991 63.0517C72.4566 63.2892 72.1716 63.6534 71.9658 63.9542C71.5066 64.5876 71.0633 65.2209 70.62 65.8384C70.5408 65.9492 70.4616 66.0601 70.3825 66.1709C70.3191 65.5534 70.2558 64.9359 70.1925 64.3184C70.1291 63.7484 70.0658 63.1784 70.0025 62.6084C69.9233 62.1492 70.0658 61.7217 70.2083 61.1676C70.7308 59.0776 71.19 57.0984 71.5858 55.3567C72.1716 52.7442 72.615 50.6859 72.7891 49.7676C73.9291 50.0051 74.9108 50.1634 75.6233 50.2584C75.845 50.3376 76.0825 50.4167 76.32 50.4801C75.7183 52.4276 74.9741 54.9292 74.1983 57.6684C73.8025 59.0934 73.375 60.5976 72.9633 62.0859L72.9316 62.1017ZM73.7866 47.8992C73.945 47.3134 74.04 47.0917 74.325 46.8067C74.7525 46.4109 75.4333 46.3001 75.9716 46.5851C76.51 46.8384 76.8425 47.4401 76.8425 47.9942C76.7475 48.7859 76.6841 49.5459 76.6683 49.9734C76.225 49.8784 75.845 49.7992 75.465 49.7201C74.9108 49.4826 74.1983 49.2134 73.4541 48.9442C73.565 48.5959 73.66 48.2634 73.7708 47.9151L73.7866 47.8992ZM58.5233 46.9334C60.645 45.7934 63.2258 46.0309 64.9516 47.0601C66.7408 48.0576 67.6908 49.6726 68.1025 50.8442C68.5141 52.0317 68.5141 52.8076 68.6091 52.7917C68.6566 52.7917 68.7516 52.2059 68.6091 51.2242C68.9733 51.4142 69.6858 51.5726 70.3033 51.5726C70.9366 51.6359 71.6491 51.5409 72.0291 51.3667C71.7283 52.3009 71.3641 53.4726 70.9208 54.8817C70.3825 56.6234 69.765 58.6817 69.1475 60.8826C69.005 61.3734 68.7675 62.0542 68.8466 62.7192C68.3716 62.5767 67.675 62.4817 67.0416 62.4817C65.9333 62.4817 64.635 62.7826 64.635 63.0834C64.635 63.3842 65.9333 63.6851 67.0416 63.6851C67.7066 63.6851 68.4191 63.5742 68.91 63.4317C68.9416 63.7642 68.9733 64.1126 69.005 64.4451C69.0841 65.3634 69.1791 66.2976 69.2583 67.2317C67.105 67.2317 64.6508 67.5326 64.6508 67.8334C64.6508 68.1342 67.2158 68.4351 69.4008 68.4351C71.5858 68.4351 74.1508 68.1342 74.1508 67.8334C74.1508 67.6117 72.71 67.3742 71.0633 67.2792C71.2375 67.0417 71.4116 66.7884 71.5858 66.5509C72.0291 65.9334 72.4725 65.3001 72.9316 64.6667C73.1691 64.3342 73.3591 64.0967 73.6125 63.6692C73.6441 63.6692 73.6758 63.7009 73.6916 63.7009C73.8975 63.7009 74.1508 63.4001 74.1508 63.0992C74.1508 62.9409 74.0875 62.7826 73.9925 62.6717C74.0083 62.5926 74.04 62.4976 74.0558 62.4342C74.4358 60.9301 74.8158 59.4259 75.18 57.9851C75.6866 55.9584 76.1458 54.0584 76.5258 52.3959C76.5733 52.4276 76.605 52.4592 76.6525 52.5067C76.9058 52.7759 77.175 53.2509 77.0958 53.9634C77.0166 55.4359 76.9533 57.5101 76.9058 59.9484C76.8583 62.3867 76.8108 65.2051 76.7633 68.1184C76.7633 68.8467 76.7633 69.5909 76.7475 70.3351V71.4276C76.7316 71.6809 76.6366 71.9184 76.4783 72.1084C76.13 72.5042 75.7025 72.6626 75.085 72.4409C74.3408 72.2351 73.6125 72.0767 72.8683 71.9659C69.2583 71.3801 65.3316 71.8076 62.0066 73.0901C61.9591 69.5592 61.88 66.3767 61.8008 64.0176C61.7375 62.3076 61.6741 61.0567 61.6108 60.4234C63.0358 60.3759 64.3816 59.9642 65.4108 59.2676C67.3583 58.0326 68.2608 56.1801 68.5616 54.8976C68.8466 53.5834 68.6883 52.8076 68.6408 52.8234C68.5458 52.8234 68.53 53.5834 68.1341 54.7709C67.7225 55.9267 66.7725 57.5417 64.9833 58.5551C63.2575 59.5842 60.6766 59.8217 58.555 58.6817C56.4175 57.6051 54.9766 55.1984 55.0083 52.8234C54.9766 50.4484 56.4175 48.0576 58.555 46.9651L58.5233 46.9334ZM46.1258 53.3617C46.2683 52.8234 46.6641 52.4592 47.2658 52.3009C47.8675 52.0951 48.4533 51.9209 49.0075 51.7784C50.1158 51.4934 51.1133 51.3351 51.9525 51.2242C52.8391 51.1292 53.5358 51.0817 53.995 51.0342C53.8525 51.6042 53.7733 52.1901 53.7733 52.7759C53.7258 55.5942 55.4991 58.4284 58.0325 59.6317C59.1091 60.1859 60.2808 60.3917 61.405 60.3917C61.3416 61.0251 61.2625 62.2759 61.215 63.9859C61.1358 66.3451 61.0566 69.5592 61.0091 73.0901C58.9033 72.2826 56.5441 71.7759 54.1375 71.6967C52.7916 71.6492 51.43 71.7442 50.1 71.9501C49.435 72.0609 48.77 72.1876 48.1208 72.3617C47.7408 72.4567 47.5666 72.5201 47.3608 72.5042C47.155 72.4884 46.9491 72.4092 46.775 72.2826C46.5533 72.1084 46.3791 71.8709 46.3316 71.6017C46.2841 71.3959 46.3158 70.8417 46.3 70.4459C46.3 69.5909 46.3 68.7201 46.3 67.8492C46.3 66.1234 46.2683 64.3976 46.2683 62.7034C46.2525 61.0092 46.2208 59.3467 46.205 57.7634C46.205 56.9717 46.1733 56.1959 46.1733 55.4359C46.1733 55.0559 46.1733 54.6917 46.1575 54.3276C46.1575 53.9476 46.11 53.5992 46.1891 53.3617H46.1258ZM76.7316 75.6234C76.51 75.9242 76.1616 76.1617 75.7658 76.1934C75.56 76.2092 75.3858 76.1934 75.1483 76.1142C74.8791 76.0351 74.61 75.9717 74.3408 75.8926C73.7866 75.7501 73.2166 75.6234 72.6308 75.5284C71.4433 75.3226 70.1925 75.2276 68.91 75.2276C66.4241 75.2434 63.8433 75.7501 61.5158 76.6684C59.1883 77.5867 61.2941 76.5734 61.2941 76.5734L60.835 76.3992L59.9008 76.0984C59.2675 75.9084 58.6341 75.7501 57.985 75.6234C56.7025 75.3701 55.3883 75.2276 54.1058 75.2117C52.8233 75.2117 51.5566 75.3067 50.385 75.5126C49.7991 75.6076 49.2133 75.7342 48.675 75.8767C48.4058 75.9559 48.1366 76.0351 47.8675 76.0984C47.63 76.1617 47.4558 76.1934 47.25 76.1776C46.8541 76.1459 46.49 75.9084 46.2841 75.6076C46.0625 75.2751 46.015 74.9742 46.015 74.4992C45.9991 74.0084 45.9675 73.5651 45.9516 73.1534C45.9833 73.1851 46.015 73.2326 46.0466 73.2484C46.395 73.5017 46.8225 73.6759 47.2658 73.7076C47.7091 73.7551 48.1683 73.5967 48.4216 73.5334C49.0391 73.3751 49.6566 73.2326 50.29 73.1376C51.5566 72.9317 52.8391 72.8367 54.1058 72.8526C56.6233 72.8842 59.0933 73.3909 61.2625 74.2301C61.3258 74.2776 61.405 74.2776 61.4841 74.2776H61.5475H61.5633C61.6108 74.2776 61.6583 74.2934 61.7216 74.2776C65.0625 72.9476 69.0525 72.5201 72.6941 73.1059C73.3908 73.2167 74.1033 73.3751 74.8 73.5492C75.1166 73.6601 75.75 73.7551 76.2091 73.5967C76.5416 73.5017 76.8266 73.3276 77.08 73.1059C77.0641 73.5334 77.0325 73.9767 77.0166 74.4834C77.0166 74.9584 76.985 75.2592 76.7475 75.5917L76.7316 75.6234Z" fill="white"/>
<path d="M58.3333 63.0834C58.3333 62.7825 55.7683 62.4817 53.5833 62.4817C51.3983 62.4817 48.8333 62.7825 48.8333 63.0834C48.8333 63.3842 51.3983 63.685 53.5833 63.685C55.7683 63.685 58.3333 63.3842 58.3333 63.0834Z" fill="white"/>
<path d="M50.4166 58.935C51.145 58.935 52 58.6342 52 58.3334C52 58.0325 51.145 57.7317 50.4166 57.7317C49.6883 57.7317 48.8333 58.0325 48.8333 58.3334C48.8333 58.6342 49.6883 58.935 50.4166 58.935Z" fill="white"/>
<path d="M58.3333 67.8334C58.3333 67.5325 55.7683 67.2317 53.5833 67.2317C51.3983 67.2317 48.8333 67.5325 48.8333 67.8334C48.8333 68.1342 51.3983 68.435 53.5833 68.435C55.7683 68.435 58.3333 68.1342 58.3333 67.8334Z" fill="white"/>
<path d="M57.4942 52.0793H57.5417C57.5417 52.0793 57.6683 52.0793 57.7317 52.0793V52.1426V52.7443V53.9476C57.7633 54.7551 57.7792 55.5468 57.8108 56.3068V56.3384C57.8108 56.6234 58.0642 56.8451 58.3333 56.8293C62.0542 56.7026 64.8408 56.4176 64.6667 56.2909C64.7617 56.4176 64.9675 54.7076 65.11 52.0793H65.4583H65.5058C65.6642 52.0793 65.8067 52.0001 65.9017 51.8734C66.0758 51.6359 66.0283 51.3193 65.7908 51.1451C63.3683 49.3718 61.4683 48.1843 61.5 48.3901C61.5158 48.5484 62.6242 49.6726 64.0492 50.9868C63.1942 50.9709 62.3392 50.9551 61.5 50.9551C61.0725 50.9551 60.645 50.9551 60.2017 50.9551C59.79 50.9551 59.3942 50.9551 58.9825 50.9551C60.3917 49.6568 61.4683 48.5484 61.4842 48.3901C61.5158 48.1843 59.6158 49.3718 57.1933 51.1451C57.0667 51.2401 56.9875 51.3826 56.9875 51.5409C56.9875 51.8259 57.1933 52.0634 57.4783 52.0793H57.4942ZM64.6667 56.3068C64.5083 56.1959 61.8642 55.9426 58.8717 55.8001C58.8717 55.1826 58.9033 54.5651 58.9192 53.9476V52.7443L58.935 52.1584H60.2017H61.5C62.4025 52.1584 63.3208 52.1426 64.2233 52.1109C64.3658 54.3434 64.5717 56.1643 64.6667 56.2909V56.3068Z" fill="white"/>
</svg>
