<svg width="158" height="128" viewBox="0 0 158 128" fill="none" xmlns="http://www.w3.org/2000/svg">
<g filter="url(#filter0_d_2592_1579)">
<path d="M52 33V38.5L78.5 87.5H106.5V125H125V33H110.5H107V70.5H75.5V33H52Z" fill="#66CAE2"/>
</g>
<g filter="url(#filter1_d_2592_1579)">
<path fill-rule="evenodd" clip-rule="evenodd" d="M0.108806 125.35C-0.227342 126.016 0.256048 126.801 1.00131 126.801H18.7641C19.1394 126.801 19.4831 126.591 19.6542 126.257L29.5968 106.846C29.7679 106.512 30.1115 106.301 30.4868 106.301H62.2507C62.633 106.301 62.9818 106.519 63.1494 106.863L72.6015 126.24C72.7691 126.584 73.118 126.801 73.5003 126.801H92.734C93.483 126.801 93.9661 126.008 93.6226 125.343L47.2735 35.5414C46.8991 34.8161 45.8605 34.8205 45.4924 35.549L0.108806 125.35ZM45.2378 73.6928C45.6083 72.9358 46.6917 72.9485 47.0443 73.714L54.7222 90.3832C55.0274 91.0457 54.5434 91.8015 53.8139 91.8015H37.9782C37.2386 91.8015 36.7549 91.0263 37.08 90.3619L45.2378 73.6928Z" fill="#37419A"/>
</g>
<path fill-rule="evenodd" clip-rule="evenodd" d="M138 32.4999L133.5 40.4999H116L103 26.9999L109 15.9999L104 10.4999L101 15.4999C101.5 16.3333 102 17.8999 100 17.4999L97.5 25.4999L94 23.4999L99.5 17.4999C98.6667 16.8333 97.7 15.3999 100.5 14.9999L103.5 9.99992L98 2.99992C98 2.99992 130.5 2.92857 132.5 3.49992C134.5 4.07127 136 5.19992 138 7.99992C140 10.7999 151.167 23.8333 156.5 29.9999L121.5 28.9999C120.833 28.9999 119.5 29.2999 119.5 30.4999C119.5 31.6999 120.833 31.9999 121.5 31.9999L138 32.4999ZM126.383 18.2593C128.527 19.1108 130.596 18.9688 131.003 17.9422C131.411 16.9156 130.003 15.3931 127.859 14.5417C125.714 13.6902 123.646 13.8321 123.238 14.8587C122.83 15.8853 124.238 17.4078 126.383 18.2593Z" fill="black"/>
<path d="M133.5 40.4999V40.9999H133.792L133.936 40.745L133.5 40.4999ZM138 32.4999L138.436 32.7451L138.841 32.0252L138.015 32.0002L138 32.4999ZM116 40.4999L115.64 40.8467L115.787 40.9999H116V40.4999ZM103 26.9999L102.561 26.7605L102.385 27.0825L102.64 27.3467L103 26.9999ZM109 15.9999L109.439 16.2393L109.609 15.9269L109.37 15.6636L109 15.9999ZM104 10.4999L104.37 10.1636L103.917 9.66576L103.571 10.2427L104 10.4999ZM101 15.4999L100.571 15.2427L100.417 15.4999L100.571 15.7572L101 15.4999ZM100 17.4999L100.098 17.0096L99.6569 16.9214L99.5228 17.3508L100 17.4999ZM97.5 25.4999L97.2519 25.934L97.7918 26.2425L97.9772 25.6491L97.5 25.4999ZM94 23.4999L93.6314 23.1621L93.2085 23.6235L93.7519 23.934L94 23.4999ZM99.5 17.4999L99.8686 17.8378L100.23 17.4436L99.8123 17.1095L99.5 17.4999ZM100.5 14.9999L100.571 15.4949L100.806 15.4612L100.929 15.2572L100.5 14.9999ZM103.5 9.99992L103.929 10.2572L104.106 9.96183L103.893 9.69101L103.5 9.99992ZM98 2.99992L97.9989 2.49992L96.973 2.50217L97.6068 3.30883L98 2.99992ZM132.5 3.49992L132.363 3.98069L132.5 3.49992ZM138 7.99992L138.407 7.7093L138 7.99992ZM156.5 29.9999L156.486 30.4997L157.621 30.5322L156.878 29.6728L156.5 29.9999ZM121.5 28.9999L121.514 28.5001L121.507 28.4999H121.5V28.9999ZM121.5 31.9999L121.515 31.5002L121.508 31.4999H121.5V31.9999ZM126.383 18.2593L126.198 18.724L126.383 18.2593ZM127.859 14.5417L128.043 14.0769L127.859 14.5417ZM123.238 14.8587L123.703 15.0433L123.238 14.8587ZM133.5 40.4999L133.936 40.745L138.436 32.7451L138 32.4999L137.564 32.2548L133.064 40.2548L133.5 40.4999ZM116 40.4999V40.9999H133.5V40.4999V39.9999H116V40.4999ZM103 26.9999L102.64 27.3467L115.64 40.8467L116 40.4999L116.36 40.1531L103.36 26.6531L103 26.9999ZM109 15.9999L108.561 15.7605L102.561 26.7605L103 26.9999L103.439 27.2393L109.439 16.2393L109 15.9999ZM104 10.4999L103.63 10.8363L108.63 16.3363L109 15.9999L109.37 15.6636L104.37 10.1636L104 10.4999ZM101 15.4999L101.429 15.7572L104.429 10.7572L104 10.4999L103.571 10.2427L100.571 15.2427L101 15.4999ZM100 17.4999L99.9019 17.9902C100.443 18.0984 100.911 18.0961 101.278 17.928C101.686 17.7413 101.882 17.3928 101.933 17.0318C101.979 16.6993 101.907 16.3528 101.81 16.0621C101.711 15.7632 101.569 15.4758 101.429 15.2427L101 15.4999L100.571 15.7572C100.681 15.9407 100.789 16.1616 100.862 16.3783C100.937 16.6033 100.958 16.7797 100.942 16.893C100.93 16.9778 100.907 16.9981 100.862 17.0187C100.777 17.0579 100.557 17.1015 100.098 17.0096L100 17.4999ZM97.5 25.4999L97.9772 25.6491L100.477 17.6491L100 17.4999L99.5228 17.3508L97.0228 25.3508L97.5 25.4999ZM94 23.4999L93.7519 23.934L97.2519 25.934L97.5 25.4999L97.7481 25.0658L94.2481 23.0658L94 23.4999ZM99.5 17.4999L99.1314 17.1621L93.6314 23.1621L94 23.4999L94.3686 23.8378L99.8686 17.8378L99.5 17.4999ZM100.5 14.9999L100.429 14.5049C99.6954 14.6098 99.1426 14.7898 98.7605 15.0546C98.3558 15.3351 98.1412 15.7157 98.1375 16.1457C98.1342 16.5392 98.3088 16.896 98.5013 17.171C98.6989 17.4533 98.9516 17.7015 99.1877 17.8904L99.5 17.4999L99.8123 17.1095C99.6317 16.965 99.4511 16.7841 99.3206 16.5976C99.1849 16.4038 99.1367 16.2523 99.1375 16.1542C99.138 16.0925 99.1547 15.9981 99.3301 15.8765C99.5283 15.7392 99.9046 15.5901 100.571 15.4949L100.5 14.9999ZM103.5 9.99992L103.071 9.74267L100.071 14.7427L100.5 14.9999L100.929 15.2572L103.929 10.2572L103.5 9.99992ZM98 2.99992L97.6068 3.30883L103.107 10.3088L103.5 9.99992L103.893 9.69101L98.3932 2.69101L98 2.99992ZM132.5 3.49992L132.637 3.01915C132.459 2.96834 132.169 2.93239 131.827 2.9021C131.47 2.8704 131.011 2.8415 130.468 2.81499C129.381 2.76194 127.942 2.71774 126.277 2.68088C122.945 2.60713 118.691 2.56247 114.503 2.53567C110.314 2.50887 106.188 2.49994 103.11 2.4977C101.57 2.49658 100.293 2.49714 99.3999 2.49797C98.9535 2.49839 98.6033 2.49888 98.3647 2.49926C98.2454 2.49945 98.1539 2.49962 98.0923 2.49973C98.0615 2.49979 98.0382 2.49984 98.0225 2.49987C98.0147 2.49989 98.0088 2.4999 98.0049 2.49991C98.0029 2.49991 98.0014 2.49992 98.0004 2.49992C97.9999 2.49992 97.9995 2.49992 97.9993 2.49992C97.999 2.49992 97.9989 2.49992 98 2.99992C98.0011 3.49992 98.0012 3.49992 98.0015 3.49992C98.0017 3.49992 98.0021 3.49992 98.0026 3.49992C98.0035 3.49991 98.005 3.49991 98.007 3.49991C98.0109 3.4999 98.0168 3.49989 98.0246 3.49987C98.0402 3.49984 98.0635 3.49979 98.0942 3.49973C98.1558 3.49961 98.2471 3.49945 98.3663 3.49926C98.6047 3.49887 98.9547 3.49839 99.4009 3.49797C100.293 3.49714 101.57 3.49658 103.109 3.4977C106.187 3.49994 110.311 3.50887 114.497 3.53565C118.684 3.56244 122.93 3.60706 126.255 3.68063C127.917 3.71743 129.346 3.76139 130.419 3.8138C130.956 3.84002 131.4 3.86817 131.739 3.89819C132.093 3.92963 132.291 3.96008 132.363 3.98069L132.5 3.49992ZM138 7.99992L138.407 7.7093C136.369 4.85658 134.785 3.63266 132.637 3.01915L132.5 3.49992L132.363 3.98069C134.215 4.50989 135.631 5.54326 137.593 8.29054L138 7.99992ZM156.5 29.9999L156.878 29.6728C151.533 23.4927 140.389 10.4847 138.407 7.7093L138 7.99992L137.593 8.29054C139.611 11.1151 150.8 24.1738 156.122 30.327L156.5 29.9999ZM121.5 28.9999L121.486 29.4997L156.486 30.4997L156.5 29.9999L156.514 29.5001L121.514 28.5001L121.5 28.9999ZM119.5 30.4999H120C120 30.1311 120.186 29.9027 120.488 29.7399C120.811 29.5653 121.223 29.4999 121.5 29.4999V28.9999V28.4999C121.111 28.4999 120.523 28.5845 120.012 28.86C119.481 29.1471 119 29.6687 119 30.4999H119.5ZM121.5 31.9999V31.4999C121.223 31.4999 120.811 31.4345 120.488 31.26C120.186 31.0971 120 30.8687 120 30.4999H119.5H119C119 31.3311 119.481 31.8527 120.012 32.1399C120.523 32.4153 121.111 32.4999 121.5 32.4999V31.9999ZM138 32.4999L138.015 32.0002L121.515 31.5002L121.5 31.9999L121.485 32.4997L137.985 32.9997L138 32.4999ZM131.003 17.9422L130.539 17.7577C130.447 17.9895 130.097 18.2522 129.31 18.3062C128.563 18.3574 127.585 18.199 126.567 17.7946L126.383 18.2593L126.198 18.724C127.324 19.1711 128.452 19.3674 129.378 19.3038C130.264 19.2431 131.152 18.9215 131.468 18.1267L131.003 17.9422ZM127.859 14.5417L127.674 15.0064C128.693 15.4107 129.513 15.9664 130.021 16.5157C130.556 17.0947 130.631 17.5259 130.539 17.7577L131.003 17.9422L131.468 18.1267C131.784 17.3319 131.358 16.4885 130.755 15.8368C130.125 15.1554 129.169 14.524 128.043 14.0769L127.859 14.5417ZM123.238 14.8587L123.703 15.0433C123.795 14.8115 124.145 14.5487 124.931 14.4947C125.678 14.4435 126.656 14.602 127.674 15.0064L127.859 14.5417L128.043 14.0769C126.917 13.6299 125.789 13.4336 124.863 13.4971C123.977 13.5579 123.089 13.8794 122.773 14.6742L123.238 14.8587ZM126.383 18.2593L126.567 17.7946C125.549 17.3902 124.728 16.8346 124.22 16.2852C123.685 15.7062 123.611 15.2751 123.703 15.0433L123.238 14.8587L122.773 14.6742C122.458 15.469 122.883 16.3124 123.486 16.9641C124.116 17.6456 125.072 18.2769 126.198 18.724L126.383 18.2593Z" fill="black"/>
<path d="M145.5 0.5C147.194 0.5 148.709 1.02854 149.791 1.86035C150.872 2.69193 151.5 3.80654 151.5 5C151.5 6.19345 150.872 7.30807 149.791 8.13965C148.709 8.97146 147.194 9.5 145.5 9.5C143.806 9.5 142.291 8.97146 141.209 8.13965C140.128 7.30807 139.5 6.19345 139.5 5C139.5 3.80654 140.128 2.69193 141.209 1.86035C142.291 1.02854 143.806 0.5 145.5 0.5Z" fill="white" stroke="black"/>
<path d="M144 7V5.28571M147.041 5.28571C148.561 4.71429 148.054 3 147.041 3H144V5.28571M147.041 5.28571H144M147.041 5.28571L147.547 7" stroke="black"/>
<defs>
<filter id="filter0_d_2592_1579" x="52" y="33" width="74" height="93" filterUnits="userSpaceOnUse" color-interpolation-filters="sRGB">
<feFlood flood-opacity="0" result="BackgroundImageFix"/>
<feColorMatrix in="SourceAlpha" type="matrix" values="0 0 0 0 0 0 0 0 0 0 0 0 0 0 0 0 0 0 127 0" result="hardAlpha"/>
<feOffset dx="1" dy="1"/>
<feComposite in2="hardAlpha" operator="out"/>
<feColorMatrix type="matrix" values="0 0 0 0 0.00784314 0 0 0 0 0.662745 0 0 0 0 0.776471 0 0 0 1 0"/>
<feBlend mode="normal" in2="BackgroundImageFix" result="effect1_dropShadow_2592_1579"/>
<feBlend mode="normal" in="SourceGraphic" in2="effect1_dropShadow_2592_1579" result="shape"/>
</filter>
<filter id="filter1_d_2592_1579" x="0" y="35" width="94.7344" height="92.8013" filterUnits="userSpaceOnUse" color-interpolation-filters="sRGB">
<feFlood flood-opacity="0" result="BackgroundImageFix"/>
<feColorMatrix in="SourceAlpha" type="matrix" values="0 0 0 0 0 0 0 0 0 0 0 0 0 0 0 0 0 0 127 0" result="hardAlpha"/>
<feOffset dx="1" dy="1"/>
<feComposite in2="hardAlpha" operator="out"/>
<feColorMatrix type="matrix" values="0 0 0 0 0.239216 0 0 0 0 0.333333 0 0 0 0 0.67451 0 0 0 1 0"/>
<feBlend mode="normal" in2="BackgroundImageFix" result="effect1_dropShadow_2592_1579"/>
<feBlend mode="normal" in="SourceGraphic" in2="effect1_dropShadow_2592_1579" result="shape"/>
</filter>
</defs>
</svg>
