<svg width="18" height="19" viewBox="0 0 18 19" fill="none" xmlns="http://www.w3.org/2000/svg">
<g clip-path="url(#clip0_1493_1009)">
<path d="M0 14C0 14.5304 0.210714 15.0391 0.585786 15.4142C0.960859 15.7893 1.46957 16 2 16H16C16.5304 16 17.0391 15.7893 17.4142 15.4142C17.7893 15.0391 18 14.5304 18 14V11.5H0V14Z" fill="#138808"/>
<path d="M18 7.5V5C18 4.46957 17.7893 3.96086 17.4142 3.58579C17.0391 3.21071 16.5304 3 16 3H2C1.46957 3 0.960859 3.21071 0.585786 3.58579C0.210714 3.96086 0 4.46957 0 5L0 7.5H18Z" fill="#FF9933"/>
<path d="M0 7.3335H18V11.667H0V7.3335Z" fill="#F7F7F7"/>
<path d="M9 11.5C10.1046 11.5 11 10.6046 11 9.5C11 8.39543 10.1046 7.5 9 7.5C7.89543 7.5 7 8.39543 7 9.5C7 10.6046 7.89543 11.5 9 11.5Z" fill="#000080"/>
<path d="M9 11.1875C9.93198 11.1875 10.6875 10.432 10.6875 9.5C10.6875 8.56802 9.93198 7.8125 9 7.8125C8.06802 7.8125 7.3125 8.56802 7.3125 9.5C7.3125 10.432 8.06802 11.1875 9 11.1875Z" fill="#F7F7F7"/>
<path d="M9.0499 8.8749L8.9999 9.1999L8.9499 8.8749L8.9999 7.8999L9.0499 8.8749ZM8.5859 7.9544L8.7899 8.9089L8.9224 9.2099L8.8864 8.8834L8.5859 7.9544ZM8.1999 8.1144L8.6439 8.9834L8.8499 9.2399L8.7309 8.9334L8.1999 8.1144ZM7.8684 8.3684L8.5224 9.0934L8.7879 9.2879L8.5934 9.0224L7.8684 8.3684ZM7.6144 8.6999L8.4334 9.2309L8.7399 9.3499L8.4834 9.1439L7.6144 8.6999ZM7.4544 9.0859L8.3834 9.3864L8.7099 9.4224L8.4089 9.2899L7.4544 9.0859ZM7.3999 9.4999L8.3749 9.5499L8.6999 9.4999L8.3749 9.4499L7.3999 9.4999ZM7.4544 9.9139L8.4089 9.7099L8.7099 9.5774L8.3834 9.6134L7.4544 9.9139ZM7.6144 10.2999L8.4834 9.8559L8.7399 9.6499L8.4334 9.7689L7.6144 10.2999ZM7.8684 10.6314L8.5934 9.9774L8.7879 9.7119L8.5224 9.9064L7.8684 10.6314ZM8.1999 10.8854L8.7309 10.0664L8.8499 9.7599L8.6439 10.0164L8.1999 10.8854ZM8.5859 11.0454L8.8864 10.1164L8.9224 9.7899L8.7899 10.0909L8.5859 11.0454ZM8.9999 11.0999L9.0499 10.1249L8.9999 9.7999L8.9499 10.1249L8.9999 11.0999ZM9.4139 11.0454L9.2099 10.0909L9.0774 9.7899L9.1134 10.1164L9.4139 11.0454ZM9.7999 10.8854L9.3559 10.0164L9.1499 9.7599L9.2689 10.0664L9.7999 10.8854ZM10.1314 10.6314L9.4774 9.9064L9.2119 9.7119L9.4064 9.9774L10.1314 10.6314ZM10.3854 10.2999L9.5664 9.7689L9.2599 9.6499L9.5164 9.8559L10.3854 10.2999ZM10.5454 9.9139L9.6164 9.6134L9.2899 9.5774L9.5909 9.7099L10.5454 9.9139ZM10.5999 9.4999L9.6249 9.4499L9.2999 9.4999L9.6249 9.5499L10.5999 9.4999ZM10.5454 9.0859L9.5909 9.2899L9.2899 9.4224L9.6164 9.3864L10.5454 9.0859ZM10.3854 8.6999L9.5164 9.1439L9.2599 9.3499L9.5664 9.2309L10.3854 8.6999ZM10.1314 8.3684L9.4064 9.0224L9.2119 9.2879L9.4774 9.0934L10.1314 8.3684ZM9.7999 8.1144L9.2689 8.9334L9.1499 9.2399L9.3559 8.9834L9.7999 8.1144ZM9.4139 7.9544L9.1134 8.8834L9.0774 9.2099L9.2099 8.9089L9.4139 7.9544Z" fill="#6666B3"/>
<path d="M8.77993 7.92949C8.83516 7.92949 8.87993 7.88472 8.87993 7.82949C8.87993 7.77426 8.83516 7.72949 8.77993 7.72949C8.7247 7.72949 8.67993 7.77426 8.67993 7.82949C8.67993 7.88472 8.7247 7.92949 8.77993 7.92949Z" fill="#000080"/>
<path d="M8.35488 8.04326C8.41011 8.04326 8.45488 7.99849 8.45488 7.94326C8.45488 7.88803 8.41011 7.84326 8.35488 7.84326C8.29965 7.84326 8.25488 7.88803 8.25488 7.94326C8.25488 7.99849 8.29965 8.04326 8.35488 8.04326Z" fill="#000080"/>
<path d="M7.97402 8.26299C8.02925 8.26299 8.07402 8.21822 8.07402 8.16299C8.07402 8.10776 8.02925 8.06299 7.97402 8.06299C7.91879 8.06299 7.87402 8.10776 7.87402 8.16299C7.87402 8.21822 7.91879 8.26299 7.97402 8.26299Z" fill="#000080"/>
<path d="M7.66299 8.57402C7.71822 8.57402 7.76299 8.52925 7.76299 8.47402C7.76299 8.41879 7.71822 8.37402 7.66299 8.37402C7.60776 8.37402 7.56299 8.41879 7.56299 8.47402C7.56299 8.52925 7.60776 8.57402 7.66299 8.57402Z" fill="#000080"/>
<path d="M7.44351 8.95488C7.49873 8.95488 7.54351 8.91011 7.54351 8.85488C7.54351 8.79965 7.49873 8.75488 7.44351 8.75488C7.38828 8.75488 7.34351 8.79965 7.34351 8.85488C7.34351 8.91011 7.38828 8.95488 7.44351 8.95488Z" fill="#000080"/>
<path d="M7.32949 9.38018C7.38472 9.38018 7.42949 9.3354 7.42949 9.28018C7.42949 9.22495 7.38472 9.18018 7.32949 9.18018C7.27426 9.18018 7.22949 9.22495 7.22949 9.28018C7.22949 9.3354 7.27426 9.38018 7.32949 9.38018Z" fill="#000080"/>
<path d="M7.32949 9.82012C7.38472 9.82012 7.42949 9.77535 7.42949 9.72012C7.42949 9.66489 7.38472 9.62012 7.32949 9.62012C7.27426 9.62012 7.22949 9.66489 7.22949 9.72012C7.22949 9.77535 7.27426 9.82012 7.32949 9.82012Z" fill="#000080"/>
<path d="M7.44351 10.2449C7.49873 10.2449 7.54351 10.2002 7.54351 10.1449C7.54351 10.0897 7.49873 10.0449 7.44351 10.0449C7.38828 10.0449 7.34351 10.0897 7.34351 10.1449C7.34351 10.2002 7.38828 10.2449 7.44351 10.2449Z" fill="#000080"/>
<path d="M7.66299 10.6258C7.71822 10.6258 7.76299 10.581 7.76299 10.5258C7.76299 10.4706 7.71822 10.4258 7.66299 10.4258C7.60776 10.4258 7.56299 10.4706 7.56299 10.5258C7.56299 10.581 7.60776 10.6258 7.66299 10.6258Z" fill="#000080"/>
<path d="M7.97402 10.9368C8.02925 10.9368 8.07402 10.892 8.07402 10.8368C8.07402 10.7816 8.02925 10.7368 7.97402 10.7368C7.91879 10.7368 7.87402 10.7816 7.87402 10.8368C7.87402 10.892 7.91879 10.9368 7.97402 10.9368Z" fill="#000080"/>
<path d="M8.35488 11.1565C8.41011 11.1565 8.45488 11.1118 8.45488 11.0565C8.45488 11.0013 8.41011 10.9565 8.35488 10.9565C8.29965 10.9565 8.25488 11.0013 8.25488 11.0565C8.25488 11.1118 8.29965 11.1565 8.35488 11.1565Z" fill="#000080"/>
<path d="M8.77993 11.2703C8.83516 11.2703 8.87993 11.2255 8.87993 11.1703C8.87993 11.1151 8.83516 11.0703 8.77993 11.0703C8.7247 11.0703 8.67993 11.1151 8.67993 11.1703C8.67993 11.2255 8.7247 11.2703 8.77993 11.2703Z" fill="#000080"/>
<path d="M9.21987 11.2703C9.2751 11.2703 9.31987 11.2255 9.31987 11.1703C9.31987 11.1151 9.2751 11.0703 9.21987 11.0703C9.16464 11.0703 9.11987 11.1151 9.11987 11.1703C9.11987 11.2255 9.16464 11.2703 9.21987 11.2703Z" fill="#000080"/>
<path d="M9.64492 11.1565C9.70015 11.1565 9.74492 11.1118 9.74492 11.0565C9.74492 11.0013 9.70015 10.9565 9.64492 10.9565C9.58969 10.9565 9.54492 11.0013 9.54492 11.0565C9.54492 11.1118 9.58969 11.1565 9.64492 11.1565Z" fill="#000080"/>
<path d="M10.026 10.9368C10.0813 10.9368 10.126 10.892 10.126 10.8368C10.126 10.7816 10.0813 10.7368 10.026 10.7368C9.9708 10.7368 9.92603 10.7816 9.92603 10.8368C9.92603 10.892 9.9708 10.9368 10.026 10.9368Z" fill="#000080"/>
<path d="M10.3371 10.6258C10.3923 10.6258 10.4371 10.581 10.4371 10.5258C10.4371 10.4706 10.3923 10.4258 10.3371 10.4258C10.2818 10.4258 10.2371 10.4706 10.2371 10.5258C10.2371 10.581 10.2818 10.6258 10.3371 10.6258Z" fill="#000080"/>
<path d="M10.5565 10.2449C10.6118 10.2449 10.6565 10.2002 10.6565 10.1449C10.6565 10.0897 10.6118 10.0449 10.5565 10.0449C10.5013 10.0449 10.4565 10.0897 10.4565 10.1449C10.4565 10.2002 10.5013 10.2449 10.5565 10.2449Z" fill="#000080"/>
<path d="M10.6706 9.82012C10.7258 9.82012 10.7706 9.77535 10.7706 9.72012C10.7706 9.66489 10.7258 9.62012 10.6706 9.62012C10.6153 9.62012 10.5706 9.66489 10.5706 9.72012C10.5706 9.77535 10.6153 9.82012 10.6706 9.82012Z" fill="#000080"/>
<path d="M10.6706 9.38018C10.7258 9.38018 10.7706 9.3354 10.7706 9.28018C10.7706 9.22495 10.7258 9.18018 10.6706 9.18018C10.6153 9.18018 10.5706 9.22495 10.5706 9.28018C10.5706 9.3354 10.6153 9.38018 10.6706 9.38018Z" fill="#000080"/>
<path d="M10.5565 8.95488C10.6118 8.95488 10.6565 8.91011 10.6565 8.85488C10.6565 8.79965 10.6118 8.75488 10.5565 8.75488C10.5013 8.75488 10.4565 8.79965 10.4565 8.85488C10.4565 8.91011 10.5013 8.95488 10.5565 8.95488Z" fill="#000080"/>
<path d="M10.3371 8.57402C10.3923 8.57402 10.4371 8.52925 10.4371 8.47402C10.4371 8.41879 10.3923 8.37402 10.3371 8.37402C10.2818 8.37402 10.2371 8.41879 10.2371 8.47402C10.2371 8.52925 10.2818 8.57402 10.3371 8.57402Z" fill="#000080"/>
<path d="M10.026 8.26299C10.0813 8.26299 10.126 8.21822 10.126 8.16299C10.126 8.10776 10.0813 8.06299 10.026 8.06299C9.9708 8.06299 9.92603 8.10776 9.92603 8.16299C9.92603 8.21822 9.9708 8.26299 10.026 8.26299Z" fill="#000080"/>
<path d="M9.64492 8.04326C9.70015 8.04326 9.74492 7.99849 9.74492 7.94326C9.74492 7.88803 9.70015 7.84326 9.64492 7.84326C9.58969 7.84326 9.54492 7.88803 9.54492 7.94326C9.54492 7.99849 9.58969 8.04326 9.64492 8.04326Z" fill="#000080"/>
<path d="M9.21987 7.92949C9.2751 7.92949 9.31987 7.88472 9.31987 7.82949C9.31987 7.77426 9.2751 7.72949 9.21987 7.72949C9.16464 7.72949 9.11987 7.77426 9.11987 7.82949C9.11987 7.88472 9.16464 7.92949 9.21987 7.92949Z" fill="#000080"/>
<path d="M9.00005 9.9498C9.24858 9.9498 9.45005 9.74833 9.45005 9.4998C9.45005 9.25128 9.24858 9.0498 9.00005 9.0498C8.75152 9.0498 8.55005 9.25128 8.55005 9.4998C8.55005 9.74833 8.75152 9.9498 9.00005 9.9498Z" fill="#000080"/>
</g>
<defs>
<clipPath id="clip0_1493_1009">
<rect width="18" height="18" fill="white" transform="translate(0 0.5)"/>
</clipPath>
</defs>
</svg>
