<svg width="19" height="18" viewBox="0 0 19 18" fill="none" xmlns="http://www.w3.org/2000/svg">
<path d="M9.125 12.375H9.875V8.25H9.125V12.375ZM9.5 7.18275C9.631 7.18275 9.74075 7.1385 9.82925 7.05C9.91775 6.9615 9.96175 6.85175 9.96125 6.72075C9.96075 6.58975 9.9165 6.48025 9.8285 6.39225C9.7405 6.30425 9.631 6.26 9.5 6.2595C9.369 6.259 9.2595 6.30325 9.1715 6.39225C9.0835 6.48125 9.03925 6.591 9.03875 6.7215C9.03825 6.852 9.0825 6.9615 9.1715 7.05C9.2605 7.1385 9.37 7.18275 9.5 7.18275ZM9.50225 15.75C8.56875 15.75 7.69125 15.573 6.86975 15.219C6.04825 14.8645 5.3335 14.3835 4.7255 13.776C4.1175 13.1685 3.63625 12.4545 3.28175 11.634C2.92725 10.8135 2.75 9.93625 2.75 9.00225C2.75 8.06825 2.92725 7.19075 3.28175 6.36975C3.63575 5.54825 4.116 4.8335 4.7225 4.2255C5.329 3.6175 6.04325 3.13625 6.86525 2.78175C7.68725 2.42725 8.56475 2.25 9.49775 2.25C10.4307 2.25 11.3083 2.42725 12.1302 2.78175C12.9517 3.13575 13.6665 3.61625 14.2745 4.22325C14.8825 4.83025 15.3638 5.5445 15.7183 6.366C16.0728 7.1875 16.25 8.06475 16.25 8.99775C16.25 9.93075 16.073 10.8083 15.719 11.6302C15.365 12.4522 14.884 13.167 14.276 13.7745C13.668 14.382 12.954 14.8633 12.134 15.2183C11.314 15.5732 10.4368 15.7505 9.50225 15.75ZM9.5 15C11.175 15 12.5937 14.4187 13.7562 13.2562C14.9187 12.0937 15.5 10.675 15.5 9C15.5 7.325 14.9187 5.90625 13.7562 4.74375C12.5937 3.58125 11.175 3 9.5 3C7.825 3 6.40625 3.58125 5.24375 4.74375C4.08125 5.90625 3.5 7.325 3.5 9C3.5 10.675 4.08125 12.0937 5.24375 13.2562C6.40625 14.4187 7.825 15 9.5 15Z" fill="#8A8A8A"/>
</svg>
