<svg width="33" height="32" viewBox="0 0 33 32" fill="none" xmlns="http://www.w3.org/2000/svg">
<g clip-path="url(#clip0_4_747)">
<path d="M25.252 0H8.25195C4.10982 0 0.751953 3.35786 0.751953 7.5V24.5C0.751953 28.6421 4.10982 32 8.25195 32H25.252C29.3941 32 32.752 28.6421 32.752 24.5V7.5C32.752 3.35786 29.3941 0 25.252 0Z" fill="url(#paint0_radial_4_747)"/>
<path d="M25.252 0H8.25195C4.10982 0 0.751953 3.35786 0.751953 7.5V24.5C0.751953 28.6421 4.10982 32 8.25195 32H25.252C29.3941 32 32.752 28.6421 32.752 24.5V7.5C32.752 3.35786 29.3941 0 25.252 0Z" fill="url(#paint1_radial_4_747)"/>
<path d="M16.7531 3.5C13.3583 3.5 12.9322 3.51488 11.599 3.5755C10.2682 3.6365 9.35983 3.84712 8.56508 4.15625C7.74283 4.4755 7.04545 4.90262 6.3507 5.59762C5.65533 6.2925 5.2282 6.98987 4.90795 7.81175C4.59795 8.60675 4.38708 9.5155 4.3272 10.8456C4.26758 12.179 4.25195 12.6053 4.25195 16.0001C4.25195 19.395 4.26695 19.8197 4.32745 21.153C4.3887 22.4837 4.59933 23.3921 4.9082 24.1869C5.2277 25.0091 5.65483 25.7065 6.34983 26.4013C7.04445 27.0966 7.74183 27.5247 8.56345 27.844C9.35883 28.1531 10.2673 28.3637 11.5978 28.4247C12.9312 28.4854 13.357 28.5002 16.7516 28.5002C20.1467 28.5002 20.5715 28.4854 21.9047 28.4247C23.2355 28.3637 24.1448 28.1531 24.9402 27.844C25.7621 27.5247 26.4585 27.0966 27.153 26.4013C27.8483 25.7065 28.2753 25.0091 28.5957 24.1873C28.903 23.3921 29.114 22.4835 29.1765 21.1532C29.2363 19.82 29.252 19.395 29.252 16.0001C29.252 12.6053 29.2363 12.1792 29.1765 10.8459C29.114 9.51512 28.903 8.60688 28.5957 7.81213C28.2753 6.98988 27.8483 6.2925 27.153 5.59762C26.4577 4.90237 25.7623 4.47525 24.9395 4.15637C24.1426 3.84712 23.2337 3.63638 21.903 3.5755C20.5696 3.51488 20.1451 3.5 16.7492 3.5H16.7531ZM15.6317 5.75262C15.9646 5.75213 16.336 5.75262 16.7531 5.75262C20.0907 5.75262 20.4862 5.76463 21.8042 5.8245C23.023 5.88025 23.6845 6.08388 24.1251 6.255C24.7085 6.4815 25.1243 6.75238 25.5616 7.19C25.9991 7.6275 26.2698 8.04412 26.497 8.6275C26.6681 9.0675 26.872 9.729 26.9275 10.9478C26.9873 12.2655 27.0003 12.6612 27.0003 15.9972C27.0003 19.3333 26.9873 19.7291 26.9275 21.0467C26.8717 22.2655 26.6681 22.927 26.497 23.3671C26.2705 23.9505 25.9991 24.3659 25.5616 24.8031C25.1241 25.2406 24.7087 25.5114 24.1251 25.738C23.685 25.9099 23.023 26.113 21.8042 26.1688C20.4865 26.2286 20.0907 26.2416 16.7531 26.2416C13.4153 26.2416 13.0197 26.2286 11.7021 26.1688C10.4833 26.1125 9.82183 25.9089 9.38083 25.7377C8.79758 25.5111 8.38083 25.2404 7.94333 24.8029C7.50583 24.3654 7.23508 23.9498 7.00795 23.3661C6.83683 22.926 6.63295 22.2645 6.57745 21.0457C6.51758 19.728 6.50558 19.3323 6.50558 15.9941C6.50558 12.656 6.51758 12.2624 6.57745 10.9446C6.6332 9.72587 6.83683 9.06437 7.00795 8.62375C7.23458 8.04037 7.50583 7.62375 7.94345 7.18625C8.38108 6.74875 8.79758 6.47787 9.38095 6.25087C9.82158 6.079 10.4833 5.87587 11.7021 5.81987C12.8552 5.76775 13.3021 5.75212 15.6317 5.7495V5.75262ZM23.4256 7.82812C22.5975 7.82812 21.9256 8.49938 21.9256 9.32763C21.9256 10.1558 22.5975 10.8276 23.4256 10.8276C24.2537 10.8276 24.9256 10.1558 24.9256 9.32763C24.9256 8.4995 24.2537 7.82762 23.4256 7.82762V7.82812ZM16.7531 9.58075C13.2081 9.58075 10.3338 12.455 10.3338 16.0001C10.3338 19.5452 13.2081 22.4181 16.7531 22.4181C20.2982 22.4181 23.1715 19.5452 23.1715 16.0001C23.1715 12.4551 20.298 9.58075 16.7528 9.58075H16.7531ZM16.7531 11.8334C19.0542 11.8334 20.9198 13.6988 20.9198 16.0001C20.9198 18.3013 19.0542 20.1669 16.7531 20.1669C14.452 20.1669 12.5865 18.3013 12.5865 16.0001C12.5865 13.6988 14.4518 11.8334 16.7531 11.8334Z" fill="white"/>
</g>
<defs>
<radialGradient id="paint0_radial_4_747" cx="0" cy="0" r="1" gradientUnits="userSpaceOnUse" gradientTransform="translate(9.25195 34.4646) rotate(-90) scale(31.7144 29.4969)">
<stop stop-color="#FFDD55"/>
<stop offset="0.1" stop-color="#FFDD55"/>
<stop offset="0.5" stop-color="#FF543E"/>
<stop offset="1" stop-color="#C837AB"/>
</radialGradient>
<radialGradient id="paint1_radial_4_747" cx="0" cy="0" r="1" gradientUnits="userSpaceOnUse" gradientTransform="translate(-4.60817 2.30512) rotate(78.681) scale(14.1765 58.436)">
<stop stop-color="#3771C8"/>
<stop offset="0.128" stop-color="#3771C8"/>
<stop offset="1" stop-color="#6600FF" stop-opacity="0"/>
</radialGradient>
<clipPath id="clip0_4_747">
<rect width="32" height="32" fill="white" transform="translate(0.751953)"/>
</clipPath>
</defs>
</svg>
