<svg width="19" height="19" viewBox="0 0 19 19" fill="none" xmlns="http://www.w3.org/2000/svg">
<g clip-path="url(#clip0_1493_1055)">
<path d="M2.96802 3C2.43758 3 1.92888 3.21071 1.5538 3.58579C1.17873 3.96086 0.968018 4.46957 0.968018 5L0.968018 14C0.968018 14.5304 1.17873 15.0391 1.5538 15.4142C1.92888 15.7893 2.43758 16 2.96802 16H6.96802V3H2.96802Z" fill="#169B62"/>
<path d="M6.96802 3H12.968V16H6.96802V3Z" fill="#EEEEEE"/>
<path d="M16.968 3H12.968V16H16.968C17.4985 16 18.0072 15.7893 18.3822 15.4142C18.7573 15.0391 18.968 14.5304 18.968 14V5C18.968 4.46957 18.7573 3.96086 18.3822 3.58579C18.0072 3.21071 17.4985 3 16.968 3Z" fill="#FF883E"/>
</g>
<defs>
<clipPath id="clip0_1493_1055">
<rect width="18" height="18" fill="white" transform="translate(0.968018 0.5)"/>
</clipPath>
</defs>
</svg>
