<svg width="1440" height="923" viewBox="0 0 1440 923" fill="none" xmlns="http://www.w3.org/2000/svg">
<path d="M-232.18 763.372C33.5268 656.193 176.752 514.836 259.355 399.196C328.213 302.786 326.991 263.348 400.108 191.42C558.779 35.3358 862.73 -72.2987 1010.04 61.8337C1082.61 127.908 1055.77 211.642 1090.47 370.154C1121.7 512.747 1202.44 708.863 1427.84 922" stroke="#65CBE4" stroke-width="0.5" stroke-miterlimit="10"/>
<path d="M-231.648 728.792C26.7953 636.68 168.588 503.697 251.148 395.473C320.614 304.386 326.262 267.962 403.926 197.269C566.846 48.9703 852.295 -54.2759 999.813 70.8786C1075.8 135.339 1058.51 217.639 1099.18 375.688C1134.99 514.831 1217.37 707.593 1438.89 918.819" stroke="#65CBE4" stroke-width="0.5" stroke-miterlimit="10"/>
<path d="M-231.116 694.217C20.0596 617.167 160.53 492.525 242.956 391.751C313.174 305.9 325.41 272.571 407.759 203.119C574.569 62.4325 842.316 -36.4924 989.609 79.919C1069.18 142.812 1061.15 223.556 1107.91 381.216C1148.16 516.877 1232.33 706.309 1449.97 915.614" stroke="#65CBE4" stroke-width="0.5" stroke-miterlimit="10"/>
<path d="M-230.585 659.637C13.3232 597.649 152.611 481.319 234.763 388C305.825 307.323 324.418 277.146 411.61 208.973C581.98 75.7029 832.768 -18.9774 979.414 88.9638C1062.74 150.286 1063.67 229.406 1116.66 386.749C1161.15 518.894 1247.3 705.025 1461.04 912.423" stroke="#65CBE4" stroke-width="0.5" stroke-miterlimit="10"/>
<path d="M-230.052 625.062C6.61302 578.146 144.856 470.114 226.572 384.301C298.602 308.669 323.346 281.678 415.415 214.822C589.048 88.7769 823.567 -1.74986 969.178 98.0087C1056.42 157.774 1066.01 235.217 1125.36 392.283C1173.95 520.901 1262.23 703.746 1472.08 909.208" stroke="#65CBE4" stroke-width="0.5" stroke-miterlimit="10"/>
<path d="M-229.521 590.487C-0.142494 558.633 137.276 458.903 218.38 380.579C291.53 309.934 322.1 286.143 419.248 220.677C595.879 101.635 814.741 15.1858 958.963 107.049C1050.28 165.219 1068.19 240.999 1134.08 397.816C1186.62 522.913 1277.19 702.462 1483.15 906.042" stroke="#65CBE4" stroke-width="0.5" stroke-miterlimit="10"/>
<path d="M-228.989 555.912C-6.87887 539.144 129.908 447.741 210.187 376.856C284.621 311.132 320.773 290.531 423.075 226.526C602.49 114.283 806.232 31.8144 948.749 116.094C1044.29 172.596 1070.27 246.782 1142.8 403.345C1199.14 524.944 1292.16 701.178 1494.21 902.846" stroke="#65CBE4" stroke-width="0.5" stroke-miterlimit="10"/>
<path d="M-228.439 521.332C-13.5962 519.612 122.788 436.631 202.013 373.134C277.923 312.291 319.387 294.824 426.921 232.376C608.923 126.715 798.03 48.1415 938.553 125.139C1038.47 179.883 1072.18 252.574 1151.55 408.878C1211.5 527 1307.09 699.88 1505.27 899.656" stroke="#65CBE4" stroke-width="0.5" stroke-miterlimit="10"/>
<path d="M-227.926 486.757C-20.3509 500.099 115.88 425.627 193.802 369.407C271.413 313.431 317.845 298.982 430.735 238.23C615.18 138.936 790.044 64.1619 928.32 134.179C1032.76 187.05 1073.9 258.414 1160.25 414.411C1223.74 529.098 1322.04 698.615 1516.37 896.465" stroke="#65CBE4" stroke-width="0.5" stroke-miterlimit="10"/>
<path d="M-227.395 452.196C-27.0825 480.601 109.244 414.78 185.609 365.699C265.103 314.61 316.264 303.093 434.562 244.094C621.298 150.971 782.258 79.9045 918.106 143.239C1027.17 194.083 1075.48 264.326 1168.98 419.959C1235.85 531.264 1337 697.346 1527.4 893.289" stroke="#65CBE4" stroke-width="0.5" stroke-miterlimit="10"/>
<path d="M-226.861 417.602C-33.7927 461.074 102.869 404.087 177.423 361.962C259.049 315.836 314.627 307.026 438.397 249.934C627.336 162.78 774.657 95.3259 907.893 152.264C1021.71 200.905 1076.9 270.29 1177.7 425.478C1247.83 533.458 1351.95 696.047 1538.47 890.074" stroke="#65CBE4" stroke-width="0.5" stroke-miterlimit="10"/>
<path d="M-226.33 383.027C-40.553 441.566 96.7365 393.639 169.231 358.24C253.223 317.221 312.954 310.84 442.224 255.784C633.3 174.417 767.193 110.489 897.679 161.31C1016.35 207.526 1078.18 276.365 1186.42 431.007C1259.72 535.733 1366.9 694.768 1549.53 886.888" stroke="#65CBE4" stroke-width="0.5" stroke-miterlimit="10"/>
<path d="M-225.798 348.447C-47.2887 422.053 90.8153 383.458 161.039 354.512C247.618 318.826 311.201 314.524 446.057 261.633C639.216 185.877 759.824 125.383 887.47 170.354C1011.07 213.903 1079.32 282.55 1195.15 436.54C1271.52 538.081 1381.86 693.484 1560.6 883.698" stroke="#65CBE4" stroke-width="0.5" stroke-miterlimit="10"/>
<path d="M-225.267 313.872C-54.0202 402.54 85.0706 373.575 152.846 350.79C242.208 320.747 309.437 318.069 449.875 267.488C645.089 197.178 752.513 140.053 877.246 179.395C1005.89 219.997 1080.32 288.869 1203.86 442.073C1283.25 540.51 1396.81 692.215 1571.66 880.493" stroke="#65CBE4" stroke-width="0.5" stroke-miterlimit="10"/>
<path d="M-224.736 279.297C-60.7566 383.032 79.441 364.012 144.634 347.067C236.924 323.085 307.636 321.48 453.697 273.337C650.958 208.321 745.231 154.439 867.022 188.44C1000.76 225.774 1081.2 295.327 1212.58 447.621C1294.89 543.034 1411.74 690.935 1582.71 877.331" stroke="#65CBE4" stroke-width="0.5" stroke-miterlimit="10"/>
<path d="M-224.204 244.717C-67.4683 363.519 73.8599 354.776 136.461 343.345C231.75 325.945 305.858 324.752 457.544 279.192C656.841 219.307 737.978 168.625 856.828 197.48C995.688 231.202 1081.99 301.919 1221.32 453.135C1306.53 545.617 1426.72 689.637 1593.79 874.121" stroke="#65CBE4" stroke-width="0.5" stroke-miterlimit="10"/>
<path d="M-223.648 210.142C-74.2044 344.006 68.9251 328.532 128.292 339.618C225.397 357.756 304.086 327.885 461.401 285.041C662.757 230.191 730.676 182.6 846.613 206.525C990.62 236.228 1082.68 308.708 1230.04 458.669C1318.1 548.285 1441.67 688.353 1604.86 870.911" stroke="#65CBE4" stroke-width="0.5" stroke-miterlimit="10"/>
<path d="M-223.139 175.567C-80.9582 324.493 63.8768 322.927 120.077 335.895C218.581 358.623 302.266 330.889 465.206 290.891C668.694 240.923 723.29 196.368 836.4 215.57C985.538 240.856 1083.28 315.64 1238.77 464.212C1329.66 551.054 1456.62 687.084 1615.92 867.749" stroke="#65CBE4" stroke-width="0.5" stroke-miterlimit="10"/>
<path d="M-222.608 140.987C-87.6944 304.985 58.1659 317.872 111.885 332.173C212.161 358.862 300.479 333.759 469.038 296.721C674.663 251.563 715.811 209.979 826.186 224.586C980.416 245 1083.82 322.721 1247.49 469.712C1341.2 553.862 1471.58 685.776 1626.99 864.525" stroke="#65CBE4" stroke-width="0.5" stroke-miterlimit="10"/>
<path d="M-222.076 106.412C-94.4302 285.472 50.0646 320.56 103.697 328.451C209.339 343.958 298.721 336.509 472.871 302.58C680.695 262.113 708.204 223.451 815.977 233.641C975.213 248.713 1084.3 330.032 1256.23 475.269C1352.74 556.808 1486.54 684.507 1638.05 861.358" stroke="#65CBE4" stroke-width="0.5" stroke-miterlimit="10"/>
<path d="M-221.544 71.8368C-101.166 265.959 43.386 312.425 95.5001 324.723C202.646 350.004 296.972 339.134 476.693 308.435C686.764 272.566 700.423 236.774 805.758 242.686C969.895 251.894 1084.74 337.448 1264.94 480.788C1364.27 559.802 1501.48 683.213 1649.11 858.153" stroke="#65CBE4" stroke-width="0.5" stroke-miterlimit="10"/>
<path d="M-221.013 37.257C-107.898 246.447 36.2522 304.281 87.3076 321.001C195.34 356.395 295.256 341.644 480.526 314.294C692.906 282.943 692.46 249.992 795.548 251.736C964.424 254.61 1085.15 345.065 1273.67 486.326C1375.82 562.864 1516.43 681.943 1660.18 854.972" stroke="#65CBE4" stroke-width="0.5" stroke-miterlimit="10"/>
</svg>
