<svg width="33" height="32" viewBox="0 0 33 32" fill="none" xmlns="http://www.w3.org/2000/svg">
<g clip-path="url(#clip0_4_752)">
<path d="M25.252 0H8.25195C4.10982 0 0.751953 3.35786 0.751953 7.5V24.5C0.751953 28.6421 4.10982 32 8.25195 32H25.252C29.3941 32 32.752 28.6421 32.752 24.5V7.5C32.752 3.35786 29.3941 0 25.252 0Z" fill="white"/>
<path d="M25.252 0H8.25195C4.10982 0 0.751953 3.35786 0.751953 7.5V24.5C0.751953 28.6421 4.10982 32 8.25195 32H25.252C29.3941 32 32.752 28.6421 32.752 24.5V7.5C32.752 3.35786 29.3941 0 25.252 0Z" fill="#0A66C2"/>
<path d="M23.8413 27.2106H27.5001C27.6327 27.2106 27.7598 27.158 27.8536 27.0642C27.9474 26.9705 28 26.8433 28.0001 26.7108L28.002 18.9805C28.002 14.9401 27.1313 11.8345 22.4097 11.8345C20.6148 11.7678 18.9222 12.693 18.0088 14.238C18.0044 14.2455 17.9976 14.2513 17.9895 14.2546C17.9814 14.2579 17.9724 14.2584 17.964 14.2562C17.9556 14.2539 17.9481 14.2489 17.9428 14.242C17.9375 14.2351 17.9345 14.2266 17.9345 14.2179V12.7075C17.9345 12.5749 17.8818 12.4477 17.788 12.3539C17.6942 12.2602 17.5671 12.2075 17.4345 12.2075H13.9623C13.8297 12.2075 13.7025 12.2602 13.6088 12.3539C13.515 12.4477 13.4623 12.5749 13.4623 12.7075V26.71C13.4623 26.8426 13.515 26.9698 13.6088 27.0636C13.7025 27.1573 13.8297 27.21 13.9623 27.21H17.6208C17.7534 27.21 17.8806 27.1573 17.9744 27.0636C18.0682 26.9698 18.1208 26.8426 18.1208 26.71V19.7884C18.1208 17.8313 18.4921 15.9359 20.9185 15.9359C23.3103 15.9359 23.3413 18.1754 23.3413 19.9151V26.7106C23.3413 26.8432 23.394 26.9704 23.4878 27.0642C23.5815 27.1579 23.7087 27.2106 23.8413 27.2106ZM5.50195 7.4535C5.50195 8.9365 6.72283 10.1567 8.20595 10.1567C9.6887 10.1566 10.9088 8.93563 10.9088 7.45288C10.9086 5.97013 9.68833 4.75 8.20545 4.75C6.7222 4.75 5.50195 5.9705 5.50195 7.4535ZM6.37183 27.2106H10.0352C10.1678 27.2106 10.295 27.1579 10.3888 27.0642C10.4825 26.9704 10.5352 26.8432 10.5352 26.7106V12.7075C10.5352 12.5749 10.4825 12.4477 10.3888 12.3539C10.295 12.2602 10.1678 12.2075 10.0352 12.2075H6.37183C6.23922 12.2075 6.11204 12.2602 6.01827 12.3539C5.92451 12.4477 5.87183 12.5749 5.87183 12.7075V26.7106C5.87183 26.8432 5.92451 26.9704 6.01827 27.0642C6.11204 27.1579 6.23922 27.2106 6.37183 27.2106Z" fill="white"/>
</g>
<defs>
<clipPath id="clip0_4_752">
<rect width="32" height="32" fill="white" transform="translate(0.751953)"/>
</clipPath>
</defs>
</svg>
