<svg width="77" height="75" viewBox="0 0 77 75" fill="none" xmlns="http://www.w3.org/2000/svg">
<path d="M57.3134 74.6534C52.227 74.6473 47.3508 72.6229 43.7542 69.024C40.1575 65.4252 38.1344 60.5461 38.1282 55.4566C38.1344 50.3671 40.1575 45.4875 43.7542 41.8887C47.3508 38.2899 52.227 36.2655 57.3134 36.2593C62.3998 36.2655 67.2765 38.2899 70.8731 41.8887C74.4698 45.4875 76.4929 50.3671 76.4991 55.4566C76.4929 60.5461 74.4698 65.4252 70.8731 69.024C67.2765 72.6229 62.3998 74.6473 57.3134 74.6534ZM57.3134 38.5004C52.8206 38.505 48.5132 40.2934 45.3363 43.4722C42.1593 46.651 40.3726 50.9611 40.3679 55.4566C40.3726 59.9521 42.1593 64.2622 45.3363 67.441C48.5132 70.6198 52.8206 72.4077 57.3134 72.4123C61.8062 72.4077 66.1137 70.6198 69.2906 67.441C72.4675 64.2622 74.2547 59.9521 74.2594 55.4566C74.2547 50.9611 72.4675 46.651 69.2906 43.4722C66.1137 40.2934 61.8062 38.505 57.3134 38.5004Z" fill="#2C2C2C"/>
<path d="M19.4878 32.7991H10.4463V41.8461H19.4878V32.7991Z" fill="#2C2C2C"/>
<path d="M34.4878 32.7991H25.4463V41.8461H34.4878V32.7991Z" fill="#2C2C2C"/>
<path d="M19.4878 47.8079H10.4463V56.8549H19.4878V47.8079Z" fill="#2C2C2C"/>
<path d="M67.5702 56.5383H57.2978C57.0005 56.5383 56.7153 56.4204 56.5051 56.21C56.2949 55.9997 56.177 55.7143 56.177 55.4168V47.809C56.177 47.5115 56.2949 47.2262 56.5051 47.0158C56.7153 46.8055 57.0005 46.6875 57.2978 46.6875C57.595 46.6878 57.8799 46.806 58.0901 47.0163C58.3002 47.2266 58.4184 47.5116 58.4186 47.809V54.2939H67.5731C67.8704 54.2939 68.1556 54.4124 68.3658 54.6227C68.576 54.833 68.6944 55.1184 68.6944 55.4159C68.6945 55.5635 68.6652 55.7096 68.6088 55.846C68.5523 55.9824 68.4697 56.1062 68.3653 56.2105C68.2609 56.3148 68.137 56.3974 68.0006 56.4536C67.8642 56.5099 67.7177 56.5387 67.5702 56.5383Z" fill="#2C2C2C"/>
<path d="M34.3337 65.7341H4.08692C3.13595 65.7331 2.22407 65.3549 1.55163 64.6821C0.879198 64.0093 0.501031 63.0966 0.5 62.145V15.5273C0.501031 14.5758 0.879198 13.6636 1.55163 12.9907C2.22407 12.3179 3.13595 11.9393 4.08692 11.9382H53.5601C54.511 11.9393 55.4229 12.3179 56.0953 12.9907C56.7678 13.6636 57.1459 14.5758 57.147 15.5273V31.7251C57.147 32.0226 57.0288 32.3079 56.8186 32.5183C56.6084 32.7286 56.3232 32.8466 56.0259 32.8466C55.7287 32.8463 55.4438 32.7281 55.2337 32.5178C55.0235 32.3075 54.9054 32.0225 54.9051 31.7251V15.5273C54.9046 15.1708 54.7628 14.8292 54.5109 14.5771C54.2589 14.325 53.9173 14.1832 53.561 14.1827H4.08787C3.73159 14.1832 3.38993 14.325 3.138 14.5771C2.88607 14.8292 2.7443 15.1708 2.74379 15.5273V62.145C2.7443 62.5015 2.88607 62.8436 3.138 63.0957C3.38993 63.3478 3.73159 63.4897 4.08787 63.4902H34.3346C34.632 63.4902 34.9172 63.6082 35.1276 63.8185C35.338 64.0288 35.4564 64.3141 35.4566 64.6117C35.4566 64.7592 35.4275 64.9051 35.3711 65.0413C35.3146 65.1776 35.2319 65.3016 35.1276 65.4058C35.0233 65.5101 34.8996 65.5926 34.7633 65.649C34.6271 65.7053 34.4811 65.7343 34.3337 65.7341Z" fill="#2C2C2C"/>
<path d="M55.9863 26.108H2.12472C1.82743 26.108 1.54223 25.99 1.33202 25.7797C1.1218 25.5693 1.00366 25.2839 1.00366 24.9865C1.00366 24.6889 1.12183 24.4038 1.33202 24.1933C1.5422 23.9828 1.82734 23.8643 2.12472 23.864H55.9863C56.1336 23.864 56.2794 23.8928 56.4155 23.9492C56.5515 24.0056 56.6751 24.0885 56.7792 24.1928C56.8833 24.2971 56.966 24.4206 57.0222 24.5568C57.0785 24.693 57.1072 24.8391 57.1071 24.9865C57.1071 25.2839 56.9892 25.5693 56.779 25.7797C56.5688 25.99 56.2836 26.108 55.9863 26.108Z" fill="#2C2C2C"/>
<path d="M19.989 16.8186C19.6917 16.8186 19.4067 16.7007 19.1965 16.4903C18.9863 16.28 18.8682 15.9946 18.8682 15.6971V1.71525C18.8682 1.41778 18.9863 1.13241 19.1965 0.922064C19.4067 0.711719 19.6917 0.59375 19.989 0.59375C20.2864 0.59375 20.5716 0.711747 20.7819 0.922064C20.9923 1.13238 21.1107 1.41769 21.111 1.71525V15.6971C21.1107 15.9947 20.9923 16.28 20.7819 16.4903C20.5716 16.7006 20.2864 16.8186 19.989 16.8186Z" fill="#2C2C2C"/>
<path d="M37.6565 16.8186C37.3592 16.8186 37.0745 16.7007 36.8642 16.4903C36.654 16.28 36.5356 15.9946 36.5356 15.6971V1.71525C36.5356 1.41778 36.654 1.13241 36.8642 0.922064C37.0745 0.711719 37.3592 0.59375 37.6565 0.59375C37.9538 0.59375 38.2393 0.711747 38.4497 0.922064C38.66 1.13238 38.7785 1.41769 38.7787 1.71525V15.6971C38.7785 15.9947 38.66 16.28 38.4497 16.4903C38.2393 16.7006 37.9538 16.8186 37.6565 16.8186Z" fill="#2C2C2C"/>
<path d="M30.8842 39.9585C30.7979 39.9587 30.712 39.9486 30.6281 39.929C30.4827 39.8949 30.3456 39.8322 30.2248 39.7444C30.1041 39.6565 30.002 39.5454 29.9248 39.4175L27.8622 36.0068C27.7859 35.8808 27.7353 35.7409 27.7131 35.5953C27.6909 35.4496 27.6974 35.301 27.7326 35.158C27.7678 35.0149 27.8308 34.8803 27.918 34.7616C28.0053 34.6429 28.1149 34.5424 28.2409 34.4661C28.3669 34.3898 28.5067 34.339 28.6523 34.3167C28.7978 34.2945 28.9463 34.3015 29.0893 34.3367C29.2323 34.3719 29.367 34.4345 29.4856 34.5218C29.6042 34.6091 29.7045 34.7193 29.7807 34.8454L31.2503 37.2735L38.6762 32.5648C38.8005 32.4858 38.9391 32.4326 39.0842 32.4073C39.2293 32.382 39.378 32.3855 39.5217 32.4177C39.6654 32.45 39.8016 32.5099 39.9221 32.5947C40.0425 32.6796 40.1447 32.7871 40.2236 32.9116C40.3826 33.1629 40.4355 33.4675 40.3705 33.7576C40.3055 34.0478 40.1279 34.3002 39.8769 34.4595L31.484 39.7801C31.305 39.8952 31.097 39.9571 30.8842 39.9585Z" fill="#AAAAAA"/>
</svg>
