<svg width="40" height="40" viewBox="0 0 40 40" fill="none" xmlns="http://www.w3.org/2000/svg">
<path d="M30.3125 7.87495L32.1875 8.95745C32.2825 9.0123 32.3903 9.04118 32.5 9.04118C32.6097 9.04118 32.7175 9.0123 32.8125 8.95745L34.6875 7.87495C34.7825 7.82009 34.8614 7.7412 34.9163 7.64619C34.9711 7.55118 35 7.4434 35 7.3337V5.16744C35 5.05774 34.9711 4.94996 34.9163 4.85495C34.8614 4.75995 34.7825 4.68105 34.6875 4.62619L32.8125 3.5437C32.7175 3.48884 32.6097 3.45996 32.5 3.45996C32.3903 3.45996 32.2825 3.48884 32.1875 3.5437L30.3125 4.62495C30.2175 4.6798 30.1386 4.7587 30.0837 4.8537C30.0289 4.94871 30 5.05649 30 5.16619V7.33119C29.9996 7.44133 30.0282 7.54962 30.0831 7.6451C30.138 7.74059 30.2171 7.81988 30.3125 7.87495ZM31.25 5.52807L32.5 4.80682L33.75 5.52807V6.97182L32.5 7.69307L31.25 6.97182V5.52807Z" fill="white"/>
<path d="M38.125 28.75H35.9312C35.8644 28.5625 35.7872 28.3789 35.7 28.2L37.2562 26.65C37.3733 26.532 37.439 26.3725 37.439 26.2063C37.439 26.04 37.3733 25.8805 37.2562 25.7625L35.4875 23.9938C35.4232 23.9318 35.3465 23.8842 35.2625 23.854C35.1784 23.8238 35.089 23.8118 35 23.8188V21.25H38.125C38.2407 21.2513 38.3545 21.2197 38.453 21.1589C38.5515 21.098 38.6306 21.0104 38.6812 20.9063C38.7339 20.8025 38.7565 20.6861 38.7466 20.5701C38.7366 20.4542 38.6945 20.3433 38.625 20.25L34.875 15.25C34.8163 15.1729 34.7407 15.1102 34.654 15.0669C34.5673 15.0236 34.4719 15.0007 34.375 15H30.3312L32.0187 12.0875C32.1684 11.8414 32.3702 11.631 32.6099 11.4712C32.8496 11.3114 33.1214 11.206 33.4062 11.1625C34.145 11.0314 34.8442 10.7335 35.4507 10.2917C36.0572 9.84983 36.5549 9.27556 36.9062 8.61251C37.498 7.48273 37.6401 6.17077 37.3038 4.94051C36.9675 3.71025 36.1779 2.65294 35.0937 1.98126C34.2102 1.44283 33.1813 1.1921 32.1491 1.2637C31.1169 1.3353 30.1324 1.7257 29.3317 2.38096C28.531 3.03622 27.9535 3.92399 27.6792 4.92161C27.4048 5.91922 27.447 6.97743 27.8 7.95001C27.9026 8.21472 27.9453 8.49893 27.9247 8.78211C27.9042 9.06529 27.821 9.34038 27.6812 9.58751L24.5562 15H23.125V13.125C23.125 12.9592 23.0591 12.8003 22.9419 12.6831C22.8247 12.5659 22.6657 12.5 22.5 12.5H21.875V6.50626L22.9437 5.44376C23.0407 5.34446 23.1024 5.21608 23.1193 5.07833C23.1362 4.94059 23.1075 4.80109 23.0375 4.68126L21.1625 1.55626C21.1076 1.46254 21.0291 1.3849 20.9347 1.33114C20.8404 1.27738 20.7336 1.2494 20.625 1.25001H19.375C19.2664 1.2494 19.1595 1.27738 19.0652 1.33114C18.9708 1.3849 18.8923 1.46254 18.8375 1.55626L16.9625 4.68126C16.8925 4.80109 16.8637 4.94059 16.8806 5.07833C16.8976 5.21608 16.9593 5.34446 17.0562 5.44376L18.125 6.50626V12.5H17.5C17.3342 12.5 17.1752 12.5659 17.058 12.6831C16.9408 12.8003 16.875 12.9592 16.875 13.125V15H15.3437L12.3187 9.75626C12.1791 9.50909 12.096 9.23401 12.0754 8.95085C12.0549 8.66769 12.0974 8.3835 12.2 8.11876C12.4851 7.33183 12.5682 6.4859 12.4415 5.65854C12.3148 4.83117 11.9824 4.04885 11.4749 3.3833C10.9673 2.71774 10.3008 2.19026 9.53643 1.84921C8.77206 1.50815 7.9343 1.36445 7.09997 1.43126C6.9947 1.43995 6.89333 1.47505 6.80522 1.53331C6.71711 1.59156 6.64512 1.6711 6.5959 1.76455C6.54668 1.85801 6.52182 1.96237 6.52363 2.06798C6.52543 2.17359 6.55384 2.27704 6.60622 2.36876L8.41872 5.50626L7.74997 6.85001L6.24997 6.75626L4.44372 3.61876C4.3911 3.52674 4.3158 3.44972 4.225 3.39502C4.1342 3.34032 4.03092 3.30976 3.92497 3.30626C3.81984 3.30116 3.71517 3.3232 3.62104 3.37027C3.5269 3.41734 3.44646 3.48785 3.38747 3.57501C2.87784 4.31107 2.57532 5.17054 2.51155 6.06354C2.44778 6.95654 2.6251 7.85027 3.02496 8.65129C3.42483 9.4523 4.03256 10.1312 4.7846 10.6169C5.53665 11.1027 6.40538 11.3774 7.29997 11.4125C7.60384 11.4356 7.89704 11.5346 8.15261 11.7006C8.40817 11.8666 8.61789 12.0942 8.76247 12.3625L10.2875 15H5.62497C5.52806 15.0007 5.4326 15.0236 5.34592 15.0669C5.25924 15.1102 5.18365 15.1729 5.12497 15.25L1.37497 20.25C1.30543 20.3433 1.26332 20.4542 1.25338 20.5701C1.24344 20.6861 1.26607 20.8025 1.31872 20.9063C1.36931 21.0104 1.44847 21.098 1.54695 21.1589C1.64544 21.2197 1.7592 21.2513 1.87497 21.25H4.99997V35.625C4.99997 35.7908 5.06582 35.9497 5.18303 36.0669C5.30024 36.1842 5.45921 36.25 5.62497 36.25H24.7625L25.7625 37.2563C25.8805 37.3734 26.04 37.4391 26.2062 37.4391C26.3725 37.4391 26.532 37.3734 26.65 37.2563L28.2 35.7C28.3789 35.7872 28.5625 35.8644 28.75 35.9313V38.125C28.75 38.2908 28.8158 38.4497 28.933 38.5669C29.0502 38.6842 29.2092 38.75 29.375 38.75H31.875C32.0407 38.75 32.1997 38.6842 32.3169 38.5669C32.4341 38.4497 32.5 38.2908 32.5 38.125V35.9313C32.6875 35.8644 32.8711 35.7872 33.05 35.7L34.6 37.2563C34.718 37.3734 34.8775 37.4391 35.0437 37.4391C35.21 37.4391 35.3695 37.3734 35.4875 37.2563L37.2562 35.4875C37.3733 35.3695 37.439 35.21 37.439 35.0438C37.439 34.8775 37.3733 34.718 37.2562 34.6L35.7 33.05C35.7872 32.8711 35.8644 32.6875 35.9312 32.5H38.125C38.2907 32.5 38.4497 32.4342 38.5669 32.3169C38.6841 32.1997 38.75 32.0408 38.75 31.875V29.375C38.75 29.2092 38.6841 29.0503 38.5669 28.9331C38.4497 28.8159 38.2907 28.75 38.125 28.75ZM28.7625 10.2125C28.9941 9.80802 29.1333 9.35725 29.17 8.89258C29.2068 8.42792 29.1402 7.96088 28.975 7.52501C28.7077 6.79555 28.6742 6.00098 28.8791 5.25161C29.084 4.50224 29.5172 3.83527 30.1184 3.34328C30.7197 2.8513 31.4592 2.55872 32.2342 2.50616C33.0093 2.45361 33.7816 2.64369 34.4437 3.05001C35.258 3.55159 35.8515 4.34352 36.1044 5.26581C36.3573 6.1881 36.2507 7.17201 35.8062 8.01876C35.5423 8.51633 35.169 8.94753 34.7143 9.27989C34.2596 9.61225 33.7354 9.8371 33.1812 9.93751C32.7181 10.0137 32.2771 10.1895 31.8886 10.4528C31.5002 10.7161 31.1735 11.0606 30.9312 11.4625L28.8875 15H26L28.7625 10.2125ZM34.0625 16.25L36.875 20H24.0625L21.25 16.25H34.0625ZM19.7312 2.50001H20.2687L21.7125 4.90626L20.8062 5.80626C20.6911 5.92544 20.6262 6.08431 20.625 6.25001V12.5H19.375V6.25001C19.3737 6.08431 19.3088 5.92544 19.1937 5.80626L18.2875 4.90626L19.7312 2.50001ZM9.84997 11.7375C9.59787 11.2872 9.23702 10.9071 8.80033 10.632C8.36365 10.3569 7.86504 10.1955 7.34997 10.1625C6.77015 10.1393 6.20361 9.98192 5.69495 9.70265C5.18629 9.42338 4.74938 9.02987 4.4186 8.55309C4.08782 8.07631 3.87221 7.52927 3.78872 6.95503C3.70523 6.38078 3.75615 5.79499 3.93747 5.24376L5.33122 7.66876C5.38325 7.75859 5.45671 7.83415 5.54504 7.88867C5.63338 7.9432 5.73385 7.97501 5.83747 7.98126L8.08747 8.12501C8.21088 8.13256 8.33377 8.10334 8.44057 8.04104C8.54737 7.97874 8.6333 7.88616 8.68747 7.77501L9.68747 5.75626C9.73077 5.66376 9.75163 5.56235 9.74837 5.46027C9.74512 5.35819 9.71783 5.25831 9.66872 5.16876L8.26872 2.74376C8.7938 2.85404 9.2891 3.07571 9.72117 3.3938C10.1532 3.71189 10.512 4.11899 10.7733 4.58761C11.0346 5.05623 11.1922 5.57547 11.2356 6.11024C11.2791 6.64501 11.2072 7.18288 11.025 7.68751C10.8605 8.12431 10.7937 8.59187 10.8293 9.05726C10.8649 9.52266 11.0021 9.97459 11.2312 10.3813L13.9 15H11.7312L9.84997 11.7375ZM3.12497 20L5.93747 16.25H18.75L15.9375 20H3.12497ZM19.375 35H6.24997V21.25H16.25C16.3469 21.2493 16.4423 21.2265 16.529 21.1831C16.6157 21.1398 16.6913 21.0771 16.75 21L19.375 17.5V35ZM18.125 15V13.75H21.875V15H18.125ZM23.9937 34.6C23.8919 34.7098 23.8303 34.8508 23.8187 35H20.625V17.5L23.25 21C23.3087 21.0771 23.3842 21.1398 23.4709 21.1831C23.5576 21.2265 23.6531 21.2493 23.75 21.25H33.75V24.85L33.05 25.55C32.8711 25.4628 32.6875 25.3856 32.5 25.3188V23.125C32.5 22.9592 32.4341 22.8003 32.3169 22.6831C32.1997 22.5659 32.0407 22.5 31.875 22.5H29.375C29.2092 22.5 29.0502 22.5659 28.933 22.6831C28.8158 22.8003 28.75 22.9592 28.75 23.125V25.3188C28.5625 25.3856 28.3789 25.4628 28.2 25.55L26.65 23.9938C26.532 23.8767 26.3725 23.811 26.2062 23.811C26.04 23.811 25.8805 23.8767 25.7625 23.9938L23.9937 25.7625C23.8766 25.8805 23.8109 26.04 23.8109 26.2063C23.8109 26.3725 23.8766 26.532 23.9937 26.65L25.55 28.2C25.4627 28.3789 25.3855 28.5625 25.3187 28.75H23.125C22.9592 28.75 22.8002 28.8159 22.683 28.9331C22.5658 29.0503 22.5 29.2092 22.5 29.375V31.875C22.5 32.0408 22.5658 32.1997 22.683 32.3169C22.8002 32.4342 22.9592 32.5 23.125 32.5H25.3187C25.3855 32.6875 25.4627 32.8711 25.55 33.05L23.9937 34.6ZM37.5 31.25H35.4687C35.33 31.2498 35.1951 31.2957 35.0853 31.3806C34.9756 31.4654 34.8972 31.5844 34.8625 31.7188C34.7619 32.1126 34.6039 32.4896 34.3937 32.8375C34.3235 32.9584 34.2947 33.0989 34.3116 33.2376C34.3285 33.3764 34.3903 33.5058 34.4875 33.6063L35.9312 35.0438L35.0437 35.9313L33.6062 34.4875C33.5058 34.3903 33.3763 34.3286 33.2376 34.3116C33.0988 34.2947 32.9583 34.3235 32.8375 34.3938C32.4895 34.604 32.1126 34.7619 31.7187 34.8625C31.5844 34.8972 31.4654 34.9756 31.3805 35.0854C31.2957 35.1951 31.2497 35.33 31.25 35.4688V37.5H30V35.4688C30.0002 35.33 29.9543 35.1951 29.8694 35.0854C29.7845 34.9756 29.6656 34.8972 29.5312 34.8625C29.1374 34.7619 28.7604 34.604 28.4125 34.3938C28.2916 34.3235 28.1511 34.2947 28.0124 34.3116C27.8736 34.3286 27.7442 34.3903 27.6437 34.4875L26.2062 35.9313L25.3187 35.0438L26.7625 33.6063C26.8597 33.5058 26.9214 33.3764 26.9383 33.2376C26.9553 33.0989 26.9264 32.9584 26.8562 32.8375C26.646 32.4896 26.4881 32.1126 26.3875 31.7188C26.3528 31.5844 26.2744 31.4654 26.1646 31.3806C26.0549 31.2957 25.92 31.2498 25.7812 31.25H23.75V30H25.7812C25.92 30.0002 26.0549 29.9543 26.1646 29.8694C26.2744 29.7846 26.3528 29.6656 26.3875 29.5313C26.4881 29.1374 26.646 28.7604 26.8562 28.4125C26.9264 28.2916 26.9553 28.1512 26.9383 28.0124C26.9214 27.8736 26.8597 27.7442 26.7625 27.6438L25.3187 26.2063L26.2062 25.3188L27.6437 26.7625C27.7442 26.8597 27.8736 26.9215 28.0124 26.9384C28.1511 26.9553 28.2916 26.9265 28.4125 26.8563C28.7604 26.646 29.1374 26.4881 29.5312 26.3875C29.6656 26.3528 29.7845 26.2744 29.8694 26.1647C29.9543 26.0549 30.0002 25.92 30 25.7813V23.75H31.25V25.7813C31.2497 25.92 31.2957 26.0549 31.3805 26.1647C31.4654 26.2744 31.5844 26.3528 31.7187 26.3875C32.1126 26.4881 32.4895 26.646 32.8375 26.8563C32.9583 26.9265 33.0988 26.9553 33.2376 26.9384C33.3763 26.9215 33.5058 26.8597 33.6062 26.7625L35.0437 25.3188L35.9312 26.2063L34.4875 27.6438C34.3903 27.7442 34.3285 27.8736 34.3116 28.0124C34.2947 28.1512 34.3235 28.2916 34.3937 28.4125C34.6039 28.7604 34.7619 29.1374 34.8625 29.5313C34.8972 29.6656 34.9756 29.7846 35.0853 29.8694C35.1951 29.9543 35.33 30.0002 35.4687 30H37.5V31.25Z" fill="white"/>
<path d="M30.625 27.5C30.0069 27.5 29.4027 27.6833 28.8888 28.0267C28.3749 28.37 27.9744 28.8581 27.7379 29.4291C27.5014 30.0001 27.4395 30.6285 27.56 31.2347C27.6806 31.8408 27.9783 32.3977 28.4153 32.8347C28.8523 33.2717 29.4092 33.5694 30.0153 33.69C30.6215 33.8105 31.2499 33.7486 31.8209 33.5121C32.3919 33.2756 32.88 32.8751 33.2233 32.3612C33.5667 31.8473 33.75 31.2431 33.75 30.625C33.749 29.7965 33.4194 29.0022 32.8336 28.4164C32.2478 27.8306 31.4535 27.501 30.625 27.5ZM30.625 32.5C30.2542 32.5 29.8916 32.39 29.5833 32.184C29.275 31.978 29.0346 31.6851 28.8927 31.3425C28.7508 30.9999 28.7137 30.6229 28.786 30.2592C28.8584 29.8955 29.037 29.5614 29.2992 29.2992C29.5614 29.037 29.8955 28.8584 30.2592 28.786C30.6229 28.7137 30.9999 28.7508 31.3425 28.8927C31.6851 29.0346 31.978 29.275 32.184 29.5833C32.39 29.8916 32.5 30.2542 32.5 30.625C32.5 31.1223 32.3025 31.5992 31.9508 31.9508C31.5992 32.3025 31.1223 32.5 30.625 32.5Z" fill="white"/>
<path d="M8.75 30.625H8.125C7.95924 30.625 7.80027 30.6908 7.68306 30.8081C7.56585 30.9253 7.5 31.0842 7.5 31.25C7.5 31.4158 7.56585 31.5747 7.68306 31.6919C7.80027 31.8092 7.95924 31.875 8.125 31.875H8.75C8.91576 31.875 9.07473 31.8092 9.19194 31.6919C9.30915 31.5747 9.375 31.4158 9.375 31.25C9.375 31.0842 9.30915 30.9253 9.19194 30.8081C9.07473 30.6908 8.91576 30.625 8.75 30.625Z" fill="white"/>
<path d="M8.75 32.5H8.125C7.95924 32.5 7.80027 32.5658 7.68306 32.6831C7.56585 32.8003 7.5 32.9592 7.5 33.125C7.5 33.2908 7.56585 33.4497 7.68306 33.5669C7.80027 33.6842 7.95924 33.75 8.125 33.75H8.75C8.91576 33.75 9.07473 33.6842 9.19194 33.5669C9.30915 33.4497 9.375 33.2908 9.375 33.125C9.375 32.9592 9.30915 32.8003 9.19194 32.6831C9.07473 32.5658 8.91576 32.5 8.75 32.5Z" fill="white"/>
<path d="M14.375 30.625H10.625C10.4592 30.625 10.3003 30.6908 10.1831 30.8081C10.0658 30.9253 10 31.0842 10 31.25C10 31.4158 10.0658 31.5747 10.1831 31.6919C10.3003 31.8092 10.4592 31.875 10.625 31.875H14.375C14.5408 31.875 14.6997 31.8092 14.8169 31.6919C14.9342 31.5747 15 31.4158 15 31.25C15 31.0842 14.9342 30.9253 14.8169 30.8081C14.6997 30.6908 14.5408 30.625 14.375 30.625Z" fill="white"/>
<path d="M8.75 28.75H8.125C7.95924 28.75 7.80027 28.8158 7.68306 28.9331C7.56585 29.0503 7.5 29.2092 7.5 29.375C7.5 29.5408 7.56585 29.6997 7.68306 29.8169C7.80027 29.9342 7.95924 30 8.125 30H8.75C8.91576 30 9.07473 29.9342 9.19194 29.8169C9.30915 29.6997 9.375 29.5408 9.375 29.375C9.375 29.2092 9.30915 29.0503 9.19194 28.9331C9.07473 28.8158 8.91576 28.75 8.75 28.75Z" fill="white"/>
<path d="M14.375 28.75H10.625C10.4592 28.75 10.3003 28.8158 10.1831 28.9331C10.0658 29.0503 10 29.2092 10 29.375C10 29.5408 10.0658 29.6997 10.1831 29.8169C10.3003 29.9342 10.4592 30 10.625 30H14.375C14.5408 30 14.6997 29.9342 14.8169 29.8169C14.9342 29.6997 15 29.5408 15 29.375C15 29.2092 14.9342 29.0503 14.8169 28.9331C14.6997 28.8158 14.5408 28.75 14.375 28.75Z" fill="white"/>
<path d="M14.375 32.5H10.625C10.4592 32.5 10.3003 32.5658 10.1831 32.6831C10.0658 32.8003 10 32.9592 10 33.125C10 33.2908 10.0658 33.4497 10.1831 33.5669C10.3003 33.6842 10.4592 33.75 10.625 33.75H14.375C14.5408 33.75 14.6997 33.6842 14.8169 33.5669C14.9342 33.4497 15 33.2908 15 33.125C15 32.9592 14.9342 32.8003 14.8169 32.6831C14.6997 32.5658 14.5408 32.5 14.375 32.5Z" fill="white"/>
</svg>
