<svg width="47" height="47" viewBox="0 0 47 47" fill="none" xmlns="http://www.w3.org/2000/svg">
<rect width="47" height="47" rx="23.5" fill="white" fill-opacity="0.65"/>
<path d="M23.5 9.75C19.7187 9.75 16.625 12.8437 16.625 16.625V19.375H19.375V16.625C19.375 14.3562 21.2312 12.5 23.5 12.5C25.7687 12.5 27.625 14.3562 27.625 16.625V19.375H30.375V16.625C30.375 12.8437 27.2812 9.75 23.5 9.75Z" fill="#424242"/>
<path d="M31.75 37.25H15.25C13.7375 37.25 12.5 36.0125 12.5 34.5V22.125C12.5 20.6125 13.7375 19.375 15.25 19.375H31.75C33.2625 19.375 34.5 20.6125 34.5 22.125V34.5C34.5 36.0125 33.2625 37.25 31.75 37.25Z" fill="white"/>
<path d="M23.5 32.4375C25.7782 32.4375 27.625 30.5907 27.625 28.3125C27.625 26.0343 25.7782 24.1875 23.5 24.1875C21.2218 24.1875 19.375 26.0343 19.375 28.3125C19.375 30.5907 21.2218 32.4375 23.5 32.4375Z" fill="#EFEBE9"/>
<path d="M23.5 30.375C24.6391 30.375 25.5625 29.4516 25.5625 28.3125C25.5625 27.1734 24.6391 26.25 23.5 26.25C22.3609 26.25 21.4375 27.1734 21.4375 28.3125C21.4375 29.4516 22.3609 30.375 23.5 30.375Z" fill="#1E88E5"/>
<path d="M24.875 27.625C25.2547 27.625 25.5625 27.3172 25.5625 26.9375C25.5625 26.5578 25.2547 26.25 24.875 26.25C24.4953 26.25 24.1875 26.5578 24.1875 26.9375C24.1875 27.3172 24.4953 27.625 24.875 27.625Z" fill="white"/>
</svg>
