<svg width="30" height="26" viewBox="0 0 30 26" fill="none" xmlns="http://www.w3.org/2000/svg">
<path d="M18.79 0.449219H6.3963C6.24817 0.449219 6.06442 0.522344 5.9538 0.632344L0.498174 6.09484C0.382549 6.21047 0.315674 6.40484 0.315674 6.53672V23.4992C0.315674 23.8448 0.595049 24.1242 0.940674 24.1242H18.7907C19.1363 24.1242 19.4157 23.8448 19.4157 23.4992V20.6448C20.2975 20.568 21.145 20.313 21.9169 19.8998L22.8938 20.9411C22.8425 21.0298 22.8057 21.1255 22.8025 21.2298C22.7969 21.3955 22.8582 21.5561 22.9713 21.6773L25.9707 24.8723C26.375 25.303 26.9463 25.5505 27.5375 25.5505C28.0857 25.5505 28.6075 25.3436 29.0075 24.9686C29.8713 24.158 29.9144 22.7955 29.1038 21.9323L26.105 18.7367C25.9913 18.6161 25.8344 18.5448 25.6694 18.5405C25.5675 18.533 25.4675 18.5655 25.3744 18.613L24.3975 17.5711C24.9932 16.6098 25.3357 15.5086 25.3719 14.348C25.4275 12.6048 24.8007 10.9442 23.6069 9.67234C22.5082 8.50234 21.0057 7.78172 19.4163 7.64047V1.07422C19.415 0.728594 19.1357 0.449219 18.79 0.449219ZM5.7713 2.58422V5.91172H2.44817L5.7713 2.58422ZM1.56567 22.8742V7.16172H6.3963C6.74192 7.16172 7.0213 6.88234 7.0213 6.53672V1.69922H18.165V7.64734C16.7507 7.79359 15.4238 8.39422 14.375 9.37859C14.2982 9.45109 14.23 9.52922 14.1575 9.60422H5.02192C4.6763 9.60422 4.39692 9.88359 4.39692 10.2292C4.39692 10.5748 4.6763 10.8542 5.02192 10.8542H13.2038C12.7232 11.6798 12.4413 12.5898 12.3532 13.518H5.02192C4.6763 13.518 4.39692 13.7973 4.39692 14.143C4.39692 14.4886 4.6763 14.768 5.02192 14.768H12.3532C12.4413 15.6917 12.7244 16.5998 13.2069 17.4273H5.02192C4.6763 17.4273 4.39692 17.7067 4.39692 18.0523C4.39692 18.398 4.6763 18.6773 5.02192 18.6773H14.1519C15.2188 19.7798 16.6475 20.4748 18.165 20.6348V22.8742H1.56567ZM28.1907 22.788C28.5294 23.1486 28.5119 23.718 28.1507 24.0567C27.8007 24.3855 27.2094 24.3667 26.8819 24.0167L24.3107 21.2773L25.6207 20.0473L28.1907 22.788ZM24.4375 19.4417L23.78 20.0586L22.97 19.1955C23.0863 19.1005 23.2025 19.0061 23.3132 18.9023C23.4238 18.7986 23.525 18.6873 23.6269 18.5773L24.4375 19.4417ZM24.1219 14.308C24.0775 15.718 23.4863 17.0261 22.4575 17.9911C21.475 18.9142 20.1919 19.4217 18.8457 19.4217C17.3707 19.4217 16.0025 18.8298 14.9944 17.7548C13.0019 15.6317 13.1075 12.283 15.2313 10.2911C16.2138 9.36859 17.4963 8.86047 18.8432 8.86047C20.3175 8.86047 21.6857 9.45234 22.6944 10.528C23.6594 11.5555 24.1669 12.8986 24.1219 14.308Z" fill="white"/>
<path d="M9.72192 4.43066H15.9207C16.2663 4.43066 16.5457 4.15129 16.5457 3.80566C16.5457 3.46004 16.2663 3.18066 15.9207 3.18066H9.72192C9.3763 3.18066 9.09692 3.46004 9.09692 3.80566C9.09692 4.15129 9.3763 4.43066 9.72192 4.43066Z" fill="white"/>
<path d="M17.5731 14.0885C17.3812 13.801 16.9937 13.7235 16.7062 13.9154C16.4187 14.1072 16.3412 14.4947 16.5331 14.7822L17.7831 16.6572C17.8981 16.8291 18.0893 16.9329 18.2962 16.9354H18.3031C18.5068 16.9354 18.6987 16.836 18.815 16.6685L21.6275 12.6447C21.825 12.3616 21.7562 11.9722 21.4737 11.7741C21.1893 11.576 20.8006 11.6454 20.6031 11.9279L18.315 15.201L17.5731 14.0885Z" fill="white"/>
</svg>
