<svg width="77" height="73" viewBox="0 0 77 73" fill="none" xmlns="http://www.w3.org/2000/svg">
<g clip-path="url(#clip0_6_1825)">
<path d="M46.4227 72.7941C43.4689 72.7964 40.5308 72.3653 37.7031 71.5152L38.3385 69.4255C40.9602 70.2133 43.6842 70.6121 46.4227 70.6097C53.8152 70.6014 60.9025 67.6734 66.1299 62.4679C71.3572 57.2625 74.2976 50.2047 74.3059 42.8431C74.2976 35.4815 71.3572 28.4242 66.1299 23.2187C60.9025 18.0133 53.8152 15.0852 46.4227 15.0769C43.7109 15.0747 41.0132 15.4658 38.4148 16.2385L37.7862 14.1487C40.5886 13.3155 43.498 12.893 46.4227 12.8954C50.374 12.8847 54.2882 13.6547 57.9387 15.1604C61.5893 16.6662 64.9036 18.8782 67.69 21.668C70.4916 24.4427 72.7128 27.7429 74.2249 31.3782C75.737 35.0134 76.51 38.9116 76.4992 42.8463C76.51 46.7811 75.737 50.6788 74.2249 54.3141C72.7128 57.9493 70.4916 61.2499 67.69 64.0247C64.9034 66.814 61.5889 69.0251 57.9384 70.5304C54.2878 72.0357 50.3738 72.8051 46.4227 72.7941Z" fill="#2C2C2C"/>
<path d="M30.5805 72.7942C26.6291 72.805 22.7147 72.0353 19.064 70.5296C15.4133 69.0238 12.0988 66.8119 9.31224 64.022C6.51063 61.2473 4.28949 57.9467 2.7774 54.3114C1.2653 50.6761 0.492259 46.778 0.503041 42.8432C0.492259 38.9084 1.2653 35.0107 2.7774 31.3755C4.28949 27.7402 6.51063 24.4396 9.31224 21.6649C12.0988 18.8749 15.4133 16.6631 19.064 15.1573C22.7147 13.6515 26.6291 12.8819 30.5805 12.8927C34.5318 12.882 38.4461 13.652 42.0966 15.1578C45.7472 16.6635 49.0615 18.875 51.8479 21.6649C54.6495 24.4396 56.8707 27.7402 58.3828 31.3755C59.8949 35.0107 60.6679 38.9084 60.6571 42.8432C60.6679 46.778 59.8949 50.6761 58.3828 54.3114C56.8707 57.9467 54.6495 61.2473 51.8479 64.022C49.0615 66.8118 45.7472 69.0233 42.0966 70.5291C38.4461 72.0349 34.5318 72.8049 30.5805 72.7942ZM30.5805 15.077C23.188 15.0853 16.1005 18.0134 10.8732 23.2188C5.64585 28.4243 2.70549 35.4816 2.69716 42.8432C2.706 50.2045 5.64661 57.2621 10.8739 62.4671C16.1012 67.6721 23.1883 70.5997 30.5805 70.608C37.9731 70.5997 45.0606 67.6716 50.2879 62.4662C55.5152 57.2607 58.4556 50.203 58.4639 42.8413C58.4553 35.4799 55.5149 28.4227 50.2876 23.2174C45.0602 18.0122 37.9729 15.0839 30.5805 15.0756V15.077Z" fill="#2C2C2C"/>
<path d="M38.616 8.8807C38.3325 8.88041 38.0602 8.77089 37.856 8.57501C37.6518 8.37913 37.5317 8.11215 37.5209 7.83004L37.2862 1.72879C37.2751 1.43931 37.3799 1.15739 37.5776 0.944858C37.7753 0.732323 38.0496 0.606692 38.3403 0.595566C38.6303 0.584246 38.9129 0.687734 39.1263 0.883628C39.3396 1.07952 39.4663 1.35193 39.4785 1.64066L39.7131 7.74237C39.7242 8.03185 39.6194 8.31377 39.4217 8.5263C39.2241 8.73884 38.9497 8.86447 38.659 8.8756L38.616 8.8807Z" fill="#2C2C2C"/>
<path d="M49.7375 8.29189C49.5033 8.29183 49.2752 8.21681 49.0869 8.07805C48.853 7.90592 48.6971 7.6487 48.6537 7.3623C48.6102 7.0759 48.6827 6.78381 48.8551 6.55053L52.4955 1.63725C52.6682 1.40408 52.9268 1.24868 53.2145 1.20539C53.5022 1.1621 53.7954 1.2343 54.0296 1.40625C54.2637 1.57822 54.4197 1.83598 54.4631 2.12246C54.5066 2.40893 54.4341 2.70057 54.2614 2.93376L50.6209 7.84751C50.519 7.98536 50.3859 8.0973 50.2325 8.17453C50.079 8.25176 49.9095 8.2919 49.7375 8.29189Z" fill="#2C2C2C"/>
<path d="M27.2631 8.29052C27.0912 8.29078 26.9217 8.25069 26.7683 8.17362C26.6148 8.09655 26.4816 7.98485 26.3796 7.84706L22.7393 2.93331C22.5666 2.70012 22.494 2.40849 22.5375 2.12201C22.5809 1.83554 22.7369 1.57777 22.971 1.4058C23.2053 1.2341 23.4984 1.16213 23.786 1.20541C24.0736 1.24869 24.3322 1.40385 24.5051 1.63681L28.1456 6.55009C28.3182 6.78328 28.3907 7.07538 28.3473 7.36185C28.3038 7.64833 28.1479 7.90563 27.9137 8.0776C27.7253 8.21603 27.4972 8.29073 27.2631 8.29052Z" fill="#2C2C2C"/>
<path d="M30.6779 55.4763C29.0745 55.468 27.5153 54.9532 26.2247 54.0058C24.9545 53.099 23.9872 51.8328 23.4485 50.3719C23.3513 50.0986 23.3671 49.7982 23.4923 49.5365C23.6175 49.2748 23.842 49.0735 24.1164 48.9766C24.3908 48.8798 24.6925 48.8955 24.9553 49.0202C25.2181 49.1449 25.4204 49.3686 25.5178 49.6418C25.9132 50.6945 26.6163 51.6047 27.5364 52.2557C28.4565 52.9066 29.5515 53.2681 30.6799 53.2933C31.3331 53.3312 31.9869 53.231 32.5984 52.9992C33.21 52.7675 33.7654 52.4093 34.2281 51.9486C34.6908 51.4878 35.0503 50.935 35.2831 50.326C35.5158 49.717 35.6165 49.0658 35.5785 48.4153C35.5785 46.2721 33.8547 44.8231 30.4537 44.1106C26.2819 43.2357 23.585 40.5512 23.585 37.2709C23.585 34.2309 24.8156 30.6056 30.6779 30.6056C32.2655 30.5852 33.8166 31.08 35.0967 32.0153C36.338 32.9495 37.2396 34.2613 37.6649 35.7517C37.7058 35.8893 37.7191 36.0335 37.7039 36.1762C37.6888 36.3189 37.6456 36.4574 37.5768 36.5834C37.5079 36.7095 37.4148 36.8207 37.3027 36.9109C37.1907 37.0012 37.0619 37.0684 36.9237 37.109C36.7855 37.1497 36.6406 37.163 36.4973 37.148C36.354 37.1329 36.2151 37.0899 36.0885 37.0213C35.9619 36.9528 35.8501 36.8602 35.7595 36.7486C35.6689 36.637 35.6013 36.5086 35.5605 36.371C35.2668 35.3159 34.6259 34.3896 33.7406 33.7404C32.8553 33.0912 31.7768 32.7566 30.6779 32.7904C27.2435 32.7904 25.7791 34.1311 25.7791 37.2709C25.7791 39.4749 27.7911 41.3205 30.904 41.9731C32.7039 42.2729 34.3972 43.0252 35.8238 44.1584C36.4411 44.6824 36.9354 45.3349 37.2719 46.07C37.6083 46.805 37.7787 47.6043 37.7709 48.4121C37.7913 49.3475 37.6255 50.278 37.2832 51.1493C36.9408 52.0207 36.4286 52.8159 35.776 53.4891C35.1 54.1391 34.3016 54.6495 33.4266 54.9906C32.5515 55.3317 31.6173 55.4965 30.6779 55.4763Z" fill="#2C2C2C"/>
<path d="M30.4775 32.1927C30.1865 32.1927 29.9074 32.0775 29.7017 31.8726C29.4959 31.6677 29.3804 31.39 29.3804 31.1003V28.3138C29.3804 28.0241 29.4959 27.7464 29.7017 27.5415C29.9074 27.3366 30.1865 27.2214 30.4775 27.2214C30.7685 27.2214 31.0474 27.3366 31.2532 27.5415C31.4589 27.7464 31.5746 28.0241 31.5746 28.3138V31.1003C31.5746 31.39 31.4589 31.6677 31.2532 31.8726C31.0474 32.0775 30.7685 32.1927 30.4775 32.1927Z" fill="#2C2C2C"/>
<path d="M30.4775 58.4639C30.1865 58.4639 29.9074 58.3492 29.7017 58.1443C29.4959 57.9395 29.3804 57.6613 29.3804 57.3715V54.5851C29.3804 54.2953 29.4959 54.0176 29.7017 53.8127C29.9074 53.6079 30.1865 53.4927 30.4775 53.4927C30.7685 53.4927 31.0474 53.6079 31.2532 53.8127C31.4589 54.0176 31.5746 54.2953 31.5746 54.5851V57.3715C31.5746 57.6613 31.4589 57.9395 31.2532 58.1443C31.0474 58.3492 30.7685 58.4639 30.4775 58.4639Z" fill="#2C2C2C"/>
</g>
<defs>
<clipPath id="clip0_6_1825">
<rect width="76" height="72.2" fill="white" transform="translate(0.5 0.59375)"/>
</clipPath>
</defs>
</svg>
