<svg width="75" height="77" viewBox="0 0 75 77" fill="none" xmlns="http://www.w3.org/2000/svg">
<g clip-path="url(#clip0_6_1864)">
<mask id="mask0_6_1864" style="mask-type:luminance" maskUnits="userSpaceOnUse" x="0" y="0" width="75" height="77">
<path d="M74.85 0.59375H0.5V76.5938H74.85V0.59375Z" fill="white"/>
</mask>
<g mask="url(#mask0_6_1864)">
<path d="M73.6711 76.5938H1.67889C1.36623 76.5938 1.06637 76.4709 0.845288 76.2522C0.624204 76.0334 0.5 75.7367 0.5 75.4274L0.5 19.3559C0.5 19.0465 0.624204 18.7499 0.845288 18.5311C1.06637 18.3124 1.36623 18.1895 1.67889 18.1895H10.1265C10.4391 18.1895 10.739 18.3124 10.9601 18.5311C11.1811 18.7499 11.3053 19.0465 11.3053 19.3559C11.3053 19.6653 11.1811 19.962 10.9601 20.1807C10.739 20.3995 10.4391 20.5223 10.1265 20.5223H2.8561V74.2626H72.4872V20.5223H65.0232C64.7105 20.5223 64.4106 20.3995 64.1896 20.1807C63.9685 19.962 63.8443 19.6653 63.8443 19.3559C63.8443 19.0465 63.9685 18.7499 64.1896 18.5311C64.4106 18.3124 64.7105 18.1895 65.0232 18.1895H73.6711C73.9838 18.1895 74.2836 18.3124 74.5047 18.5311C74.7258 18.7499 74.85 19.0465 74.85 19.3559V75.4274C74.85 75.7367 74.7258 76.0334 74.5047 76.2522C74.2836 76.4709 73.9838 76.5938 73.6711 76.5938Z" fill="#2C2C2C"/>
<path d="M37.7718 75.2325C37.6588 75.233 37.5463 75.2174 37.4378 75.1862L10.1398 67.3004C9.89492 67.2296 9.67989 67.0821 9.52695 66.8802C9.374 66.6782 9.29138 66.4326 9.2915 66.1802V1.76029C9.29172 1.57986 9.33423 1.40193 9.4157 1.24051C9.49718 1.07908 9.61539 0.938562 9.76105 0.829995C9.9067 0.721427 10.0758 0.647773 10.2551 0.614826C10.4344 0.581879 10.619 0.590536 10.7943 0.640117L38.1024 8.52429C38.3473 8.59507 38.5623 8.74252 38.7152 8.94449C38.8682 9.14647 38.9508 9.39208 38.9507 9.64446V74.0677C38.9507 74.377 38.8265 74.6737 38.6054 74.8925C38.3843 75.1112 38.0845 75.2325 37.7718 75.2325ZM11.6476 65.3062L36.5929 72.513V10.5218L11.6493 3.31499L11.6476 65.3062Z" fill="#2C2C2C"/>
<path d="M37.7268 75.2325C37.4141 75.2325 37.1142 75.1096 36.8931 74.8908C36.6721 74.6721 36.5479 74.3754 36.5479 74.066V9.64612C36.5477 9.39374 36.6304 9.14812 36.7833 8.94615C36.9363 8.74417 37.1513 8.59672 37.3962 8.52594L64.6975 0.640117C64.8729 0.590536 65.0575 0.581879 65.2368 0.614826C65.4161 0.647773 65.5852 0.721427 65.7308 0.829995C65.8765 0.938562 65.9947 1.07908 66.0762 1.24051C66.1576 1.40193 66.2002 1.57986 66.2004 1.76029V66.1852C66.2005 66.4375 66.1179 66.6832 65.9649 66.8851C65.812 67.0871 65.5969 67.2346 65.3521 67.3053L38.049 75.1928C37.944 75.2207 37.8355 75.234 37.7268 75.2325ZM38.904 10.5201V72.5113L63.8493 65.3046V3.31499L38.904 10.5201Z" fill="#2C2C2C"/>
</g>
<path d="M17.4936 11.7756C17.5727 11.7755 17.6515 11.7833 17.729 11.7988L31.5734 14.5843C31.8398 14.638 32.0792 14.7812 32.2512 14.9896C32.4231 15.1979 32.517 15.4587 32.5169 15.7276V21.1798C32.5168 21.3543 32.4771 21.5265 32.4008 21.6837C32.3246 21.841 32.2136 21.9793 32.0761 22.0886C31.9387 22.1978 31.7782 22.2751 31.6065 22.3148C31.4349 22.3546 31.2563 22.3557 31.0842 22.3182L17.2398 19.3029C16.9776 19.2458 16.7431 19.1018 16.5749 18.8948C16.4067 18.6878 16.3149 18.4302 16.3147 18.1646V12.9437C16.3147 12.6344 16.4389 12.3377 16.66 12.1189C16.8811 11.9002 17.1809 11.7756 17.4936 11.7756ZM30.1591 16.6809L18.6725 14.3679V17.2245L30.1591 19.7275V16.6809Z" fill="#2C2C2C"/>
<path d="M31.3364 30.0734C31.2471 30.0734 31.158 30.0635 31.0709 30.0436L16.4417 26.7129C16.1371 26.6436 15.8727 26.4574 15.7067 26.1953C15.5408 25.9332 15.4868 25.6166 15.5567 25.3151C15.6267 25.0137 15.8149 24.7521 16.0798 24.5879C16.3447 24.4237 16.6647 24.3703 16.9694 24.4395L31.5986 27.7703C31.9033 27.8395 32.1677 28.0257 32.3336 28.2878C32.4996 28.5499 32.5535 28.8665 32.4836 29.168C32.424 29.425 32.2781 29.6544 32.0698 29.8188C31.8614 29.9832 31.6029 30.073 31.3364 30.0734Z" fill="#2C2C2C"/>
<path d="M31.3364 36.973C31.2471 36.9731 31.158 36.9631 31.0709 36.9433L16.4417 33.6125C16.1371 33.5433 15.8727 33.3571 15.7067 33.095C15.5408 32.8329 15.4868 32.5163 15.5567 32.2148C15.6267 31.9133 15.8149 31.6517 16.0798 31.4875C16.3447 31.3233 16.6647 31.2699 16.9694 31.3391L31.5986 34.6699C31.9033 34.7392 32.1677 34.9253 32.3336 35.1875C32.4996 35.4496 32.5535 35.7662 32.4836 36.0677C32.424 36.3246 32.2781 36.5541 32.0698 36.7185C31.8614 36.8829 31.6029 36.9726 31.3364 36.973Z" fill="#2C2C2C"/>
<path d="M24.0227 42.2071C23.9333 42.2071 23.8443 42.1971 23.7572 42.1773L16.4417 40.5119C16.1371 40.4427 15.8727 40.2565 15.7067 39.9944C15.5408 39.7323 15.4868 39.4157 15.5567 39.1142C15.6267 38.8128 15.8149 38.5512 16.0798 38.3869C16.3447 38.2227 16.6647 38.1694 16.9694 38.2385L24.2848 39.9039C24.5895 39.9732 24.8539 40.1594 25.0199 40.4215C25.1858 40.6836 25.2398 41.0002 25.1698 41.3017C25.1102 41.5587 24.9643 41.7881 24.756 41.9525C24.5477 42.1169 24.2892 42.2067 24.0227 42.2071Z" fill="#2C2C2C"/>
<path d="M44.1038 30.7543C43.8373 30.7539 43.5788 30.6642 43.3705 30.4997C43.1622 30.3353 43.0163 30.1059 42.9566 29.8489C42.8867 29.5474 42.9407 29.2308 43.1066 28.9687C43.2726 28.7066 43.537 28.5204 43.8416 28.4512L58.4708 25.1204C58.7755 25.0512 59.0955 25.1046 59.3604 25.2688C59.6253 25.433 59.8135 25.6946 59.8835 25.996C59.9534 26.2975 59.8995 26.6141 59.7335 26.8762C59.5676 27.1383 59.3032 27.3245 58.9985 27.3938L44.3693 30.7246C44.2822 30.7444 44.1931 30.7543 44.1038 30.7543Z" fill="#2C2C2C"/>
<path d="M44.1038 23.6598C43.8373 23.6594 43.5788 23.5697 43.3705 23.4052C43.1622 23.2408 43.0163 23.0114 42.9566 22.7544C42.8867 22.453 42.9407 22.1363 43.1066 21.8742C43.2726 21.6121 43.537 21.426 43.8416 21.3567L58.4708 18.0259C58.7755 17.9567 59.0955 18.0101 59.3604 18.1743C59.6253 18.3385 59.8135 18.6001 59.8835 18.9016C59.9534 19.203 59.8995 19.5196 59.7335 19.7817C59.5676 20.0439 59.3032 20.23 58.9985 20.2993L44.3693 23.6301C44.2822 23.6499 44.1931 23.6599 44.1038 23.6598Z" fill="#2C2C2C"/>
<path d="M44.1038 16.8578C43.8373 16.8574 43.5788 16.7677 43.3705 16.6032C43.1622 16.4388 43.0163 16.2094 42.9566 15.9524C42.8867 15.651 42.9407 15.3343 43.1066 15.0722C43.2726 14.8101 43.537 14.624 43.8416 14.5547L58.4708 11.2239C58.7755 11.1547 59.0955 11.2081 59.3604 11.3723C59.6253 11.5365 59.8135 11.7981 59.8835 12.0996C59.9534 12.401 59.8995 12.7176 59.7335 12.9797C59.5676 13.2419 59.3032 13.428 58.9985 13.4973L44.3693 16.8281C44.2822 16.8479 44.1931 16.8579 44.1038 16.8578Z" fill="#2C2C2C"/>
<path d="M44.1038 37.8471C43.8373 37.8467 43.5788 37.7569 43.3705 37.5925C43.1622 37.4281 43.0163 37.1987 42.9566 36.9417C42.8867 36.6402 42.9407 36.3236 43.1066 36.0615C43.2726 35.7994 43.537 35.6132 43.8416 35.5439L58.4708 32.2132C58.7755 32.144 59.0955 32.1973 59.3604 32.3616C59.6253 32.5258 59.8135 32.7874 59.8835 33.0888C59.9534 33.3903 59.8995 33.7069 59.7335 33.969C59.5676 34.2311 59.3032 34.4173 58.9985 34.4865L44.3693 37.8173C44.2822 37.8371 44.1931 37.8471 44.1038 37.8471Z" fill="#2C2C2C"/>
<path d="M44.1038 44.7464C43.8373 44.746 43.5788 44.6563 43.3705 44.4919C43.1622 44.3274 43.0163 44.098 42.9566 43.841C42.8867 43.5396 42.9407 43.223 43.1066 42.9609C43.2726 42.6987 43.537 42.5126 43.8416 42.4433L51.1471 40.7796C51.4517 40.7104 51.7717 40.7638 52.0366 40.928C52.3016 41.0922 52.4897 41.3538 52.5597 41.6552C52.6297 41.9567 52.5757 42.2733 52.4097 42.5354C52.2438 42.7975 51.9794 42.9837 51.6747 43.053L44.3743 44.72C44.2855 44.7391 44.1947 44.7479 44.1038 44.7464Z" fill="#2C2C2C"/>
<path d="M23.976 59.6853C23.8628 59.6847 23.7503 59.6681 23.642 59.6358L16.5119 57.521C16.2126 57.432 15.9612 57.229 15.8131 56.9566C15.665 56.6843 15.6323 56.3649 15.7221 56.0687C15.8121 55.7725 16.0172 55.5239 16.2925 55.3773C16.5677 55.2308 16.8905 55.1984 17.1899 55.2872L24.3199 57.402C24.6193 57.491 24.8706 57.694 25.0187 57.9664C25.1668 58.2387 25.1996 58.5581 25.1098 58.8543C25.0366 59.0953 24.8867 59.3064 24.6824 59.4562C24.4781 59.6059 24.2303 59.6863 23.976 59.6853Z" fill="#2C2C2C"/>
<path d="M19.6543 63.2805C19.5372 63.2805 19.4207 63.2632 19.3087 63.2293L16.5 62.3784C16.352 62.3335 16.2144 62.2602 16.095 62.1626C15.9756 62.0651 15.8768 61.9452 15.8043 61.8099C15.7317 61.6746 15.6868 61.5265 15.6721 61.374C15.6574 61.2215 15.6732 61.0676 15.7186 60.9212C15.764 60.7747 15.8381 60.6385 15.9366 60.5204C16.0352 60.4023 16.1563 60.3045 16.2931 60.2327C16.4299 60.1609 16.5796 60.1165 16.7337 60.102C16.8878 60.0874 17.0433 60.103 17.1913 60.148L20 60.9988C20.148 61.0437 20.2856 61.117 20.405 61.2146C20.5244 61.3121 20.6232 61.432 20.6957 61.5673C20.7683 61.7026 20.8132 61.8507 20.8279 62.0032C20.8426 62.1557 20.8268 62.3096 20.7814 62.456C20.7075 62.6947 20.558 62.9036 20.3552 63.052C20.1523 63.2004 19.9066 63.2805 19.6543 63.2805Z" fill="#2C2C2C"/>
<path d="M26.3338 65.4184C26.2166 65.4184 26.1001 65.4012 25.9881 65.3672L23.1795 64.5163C23.0315 64.4714 22.8938 64.3981 22.7745 64.3006C22.6551 64.203 22.5563 64.0832 22.4837 63.9479C22.4111 63.8125 22.3662 63.6644 22.3515 63.5119C22.3368 63.3594 22.3526 63.2056 22.398 63.0591C22.4434 62.9127 22.5175 62.7765 22.6161 62.6584C22.7147 62.5402 22.8358 62.4425 22.9725 62.3707C23.1093 62.2989 23.259 62.2544 23.4131 62.2399C23.5673 62.2253 23.7228 62.241 23.8708 62.2859L26.6794 63.1368C26.8274 63.1817 26.9651 63.255 27.0844 63.3525C27.2038 63.4501 27.3026 63.5699 27.3752 63.7052C27.4477 63.8405 27.4927 63.9887 27.5074 64.1412C27.5221 64.2937 27.5063 64.4475 27.4609 64.594C27.3869 64.8326 27.2375 65.0415 27.0346 65.1899C26.8317 65.3383 26.5861 65.4184 26.3338 65.4184Z" fill="#2C2C2C"/>
<path d="M33.1097 67.4589C32.9925 67.459 32.876 67.4417 32.764 67.4077L29.9571 66.5569C29.8091 66.5119 29.6714 66.4386 29.552 66.3411C29.4327 66.2436 29.3339 66.1237 29.2613 65.9884C29.1887 65.8531 29.1438 65.7049 29.1291 65.5524C29.1144 65.4 29.1302 65.2461 29.1756 65.0996C29.221 64.9532 29.2951 64.817 29.3937 64.6989C29.4922 64.5808 29.6134 64.483 29.7501 64.4112C29.8869 64.3394 30.0366 64.295 30.1907 64.2804C30.3448 64.2659 30.5004 64.2815 30.6484 64.3264L33.457 65.1773C33.605 65.2222 33.7426 65.2955 33.862 65.393C33.9814 65.4906 34.0802 65.6104 34.1528 65.7458C34.2253 65.8811 34.2703 66.0292 34.285 66.1817C34.2997 66.3342 34.2839 66.4881 34.2385 66.6345C34.1644 66.8734 34.0147 67.0825 33.8115 67.231C33.6083 67.3794 33.3623 67.4593 33.1097 67.4589Z" fill="#2C2C2C"/>
<path d="M44.1439 61.8232C43.891 61.8234 43.6449 61.7433 43.4416 61.5945C43.2384 61.4458 43.0888 61.2364 43.0151 60.9971C42.9252 60.7009 42.958 60.3815 43.1061 60.1092C43.2542 59.8369 43.5055 59.6339 43.8049 59.5448L50.935 57.4301C51.2343 57.3412 51.5571 57.3736 51.8324 57.5201C52.1076 57.6667 52.3128 57.9154 52.4027 58.2115C52.4926 58.5078 52.4598 58.8271 52.3117 59.0995C52.1636 59.3718 51.9122 59.5748 51.6129 59.6638L44.4828 61.7786C44.3726 61.8097 44.2584 61.8247 44.1439 61.8232Z" fill="#2C2C2C"/>
<path d="M57.6008 63.2804C57.3483 63.2803 57.1025 63.2 56.8996 63.0513C56.6967 62.9026 56.5474 62.6933 56.4737 62.4543C56.4283 62.3079 56.4125 62.154 56.4272 62.0015C56.4419 61.849 56.4868 61.7009 56.5594 61.5656C56.632 61.4303 56.7308 61.3104 56.8501 61.2129C56.9695 61.1153 57.1071 61.042 57.2552 60.9971L60.0638 60.1462C60.2118 60.1013 60.3673 60.0857 60.5214 60.1002C60.6756 60.1148 60.8253 60.1592 60.962 60.231C61.0988 60.3028 61.2199 60.4006 61.3185 60.5187C61.4171 60.6368 61.4912 60.773 61.5366 60.9195C61.582 61.0659 61.5978 61.2198 61.5831 61.3723C61.5683 61.5248 61.5234 61.6729 61.4509 61.8082C61.3783 61.9435 61.2795 62.0634 61.1601 62.1609C61.0407 62.2585 60.9031 62.3318 60.7551 62.3767L57.9465 63.2275C57.8345 63.2621 57.7181 63.2799 57.6008 63.2804Z" fill="#2C2C2C"/>
<path d="M50.9216 65.4184C50.6691 65.4183 50.4233 65.3379 50.2204 65.1892C50.0175 65.0405 49.8682 64.8312 49.7945 64.5923C49.7491 64.4458 49.7333 64.292 49.748 64.1395C49.7627 63.987 49.8076 63.8388 49.8802 63.7035C49.9528 63.5682 50.0516 63.4483 50.1709 63.3508C50.2903 63.2533 50.4279 63.18 50.576 63.1351L53.3846 62.2842C53.5326 62.2393 53.6881 62.2236 53.8422 62.2382C53.9964 62.2527 54.1461 62.2972 54.2828 62.369C54.4196 62.4408 54.5407 62.5385 54.6393 62.6566C54.7379 62.7748 54.812 62.9109 54.8574 63.0574C54.9028 63.2039 54.9186 63.3577 54.9039 63.5102C54.8892 63.6627 54.8442 63.8108 54.7717 63.9462C54.6991 64.0815 54.6003 64.2013 54.4809 64.2989C54.3615 64.3964 54.2239 64.4697 54.0759 64.5146L51.2673 65.3655C51.1553 65.4 51.0389 65.4178 50.9216 65.4184Z" fill="#2C2C2C"/>
<path d="M44.1438 67.4589C43.8913 67.4588 43.6455 67.3785 43.4425 67.2297C43.2396 67.081 43.0903 66.8718 43.0167 66.6328C42.9713 66.4863 42.9555 66.3325 42.9702 66.18C42.9849 66.0275 43.0298 65.8794 43.1024 65.744C43.1749 65.6087 43.2737 65.4889 43.3931 65.3913C43.5125 65.2938 43.6501 65.2205 43.7981 65.1756L46.6068 64.3247C46.7548 64.2798 46.9103 64.2642 47.0644 64.2787C47.2185 64.2933 47.3682 64.3377 47.505 64.4095C47.6418 64.4813 47.7629 64.5791 47.8615 64.6972C47.96 64.8153 48.0341 64.9515 48.0795 65.0979C48.1249 65.2444 48.1407 65.3982 48.126 65.5507C48.1113 65.7032 48.0664 65.8514 47.9938 65.9867C47.9213 66.122 47.8225 66.2418 47.7031 66.3394C47.5837 66.4369 47.4461 66.5102 47.2981 66.5551L44.4894 67.406C44.3775 67.4405 44.261 67.4584 44.1438 67.4589Z" fill="#2C2C2C"/>
</g>
<defs>
<clipPath id="clip0_6_1864">
<rect width="74.35" height="76" fill="white" transform="translate(0.5 0.59375)"/>
</clipPath>
</defs>
</svg>
