<svg width="194" height="72" viewBox="0 0 194 72" fill="none" xmlns="http://www.w3.org/2000/svg">
<path d="M33.5164 69.989L39.9899 66.4655C54.5296 58.5516 63.5966 43.2068 63.5966 26.5141V9.66173C63.5966 8.3498 62.5681 7.26087 61.2708 7.22526C45.9729 6.80623 36.4826 2.34244 33.3588 0.614645C32.6489 0.221876 31.786 0.221876 31.0759 0.614645C27.9521 2.34244 18.4618 6.80605 3.1639 7.22526C1.8666 7.26087 0.838135 8.3498 0.838135 9.66173V26.5141C0.838135 43.2068 9.90515 58.5516 24.4448 66.4655L30.9183 69.989C31.7292 70.4304 32.7055 70.4304 33.5164 69.989Z" fill="#DADADB"/>
<path d="M60.4943 11.6457V25.9469C60.4943 41.8665 51.8891 56.4374 38.0382 63.9781L33.4461 66.4765C33.0643 66.684 32.641 66.7898 32.2177 66.7898C31.7945 66.7898 31.3712 66.684 30.9894 66.4765L26.3972 63.9781C12.5465 56.4374 3.94116 41.8665 3.94116 25.9469V11.6457C3.94116 10.9693 4.47655 10.4152 5.15085 10.3674C18.182 9.48142 27.1295 6.02847 31.6573 3.81658C31.8378 3.72738 32.0266 3.68384 32.2175 3.68384C32.4085 3.68384 32.5973 3.72738 32.7778 3.81658C37.3056 6.02864 46.2552 9.48142 59.2842 10.3674C59.9589 10.4152 60.4943 10.9693 60.4943 11.6457Z" fill="#105BAB"/>
<path d="M60.4938 11.6457V25.9469C60.4938 41.8665 51.8887 56.4374 38.0378 63.9781L33.4457 66.4765C33.0638 66.684 32.6406 66.7898 32.2173 66.7898V3.68384C32.4082 3.68384 32.597 3.72738 32.7775 3.81658C37.3053 6.02864 46.2549 9.48142 59.284 10.3674C59.9585 10.4152 60.4938 10.9693 60.4938 11.6457Z" fill="#38419A"/>
<path d="M42.9704 29.5782H21.4647C20.1843 29.5782 19.1448 30.6178 19.1448 31.8982V49.0462C19.1448 50.3266 20.1843 51.3662 21.4647 51.3662H42.9704C44.2508 51.3662 45.2904 50.3266 45.2904 49.0462V31.8982C45.2902 30.6178 44.2506 29.5782 42.9704 29.5782ZM34.2927 41.5595V43.2735C34.2927 44.4189 33.3631 45.3486 32.2176 45.3486C31.0721 45.3486 30.1425 44.419 30.1425 43.2735V41.5595C29.2605 40.9204 28.6899 39.8807 28.6899 38.7084C28.6899 36.7599 30.2691 35.1809 32.2174 35.1809C34.1657 35.1809 35.7449 36.7599 35.7449 38.7084C35.7451 39.8809 35.1744 40.9204 34.2927 41.5595Z" fill="white"/>
<path d="M39.8952 23.1539V25.8431C39.8952 26.76 39.1519 27.5032 38.2351 27.5032C37.3182 27.5032 36.575 26.76 36.575 25.8431V23.2609C36.575 20.9011 34.7433 18.8886 32.3853 18.7995C29.9063 18.7059 27.8598 20.6953 27.8598 23.154V27.9184H24.5398V23.279C24.5398 19.0948 27.8366 15.5841 32.0193 15.4788C34.2185 15.4235 36.2123 16.2922 37.6457 17.7256C39.0361 19.1158 39.8952 21.0331 39.8952 23.1539Z" fill="white"/>
<path d="M77.0367 9.32007V5.99207H83.6927V29.3201H80.0127V9.32007H77.0367ZM88.7042 17.3521C88.7042 13.6614 89.3228 10.7814 90.5602 8.71207C91.8188 6.6214 93.9735 5.57607 97.0242 5.57607C100.075 5.57607 102.219 6.6214 103.456 8.71207C104.715 10.7814 105.344 13.6614 105.344 17.3521C105.344 21.0854 104.715 24.0081 103.456 26.1201C102.219 28.2107 100.075 29.2561 97.0242 29.2561C93.9735 29.2561 91.8188 28.2107 90.5602 26.1201C89.3228 24.0081 88.7042 21.0854 88.7042 17.3521ZM101.76 17.3521C101.76 15.6241 101.643 14.1627 101.408 12.9681C101.195 11.7734 100.747 10.8027 100.064 10.0561C99.3815 9.28807 98.3682 8.90407 97.0242 8.90407C95.6802 8.90407 94.6668 9.28807 93.9842 10.0561C93.3015 10.8027 92.8428 11.7734 92.6082 12.9681C92.3948 14.1627 92.2882 15.6241 92.2882 17.3521C92.2882 19.1441 92.3948 20.6481 92.6082 21.8641C92.8215 23.0801 93.2695 24.0614 93.9522 24.8081C94.6562 25.5547 95.6802 25.9281 97.0242 25.9281C98.3682 25.9281 99.3815 25.5547 100.064 24.8081C100.768 24.0614 101.227 23.0801 101.44 21.8641C101.654 20.6481 101.76 19.1441 101.76 17.3521ZM109.204 17.3521C109.204 13.6614 109.823 10.7814 111.06 8.71207C112.319 6.6214 114.474 5.57607 117.524 5.57607C120.575 5.57607 122.719 6.6214 123.956 8.71207C125.215 10.7814 125.844 13.6614 125.844 17.3521C125.844 21.0854 125.215 24.0081 123.956 26.1201C122.719 28.2107 120.575 29.2561 117.524 29.2561C114.474 29.2561 112.319 28.2107 111.06 26.1201C109.823 24.0081 109.204 21.0854 109.204 17.3521ZM122.26 17.3521C122.26 15.6241 122.143 14.1627 121.908 12.9681C121.695 11.7734 121.247 10.8027 120.564 10.0561C119.882 9.28807 118.868 8.90407 117.524 8.90407C116.18 8.90407 115.167 9.28807 114.484 10.0561C113.802 10.8027 113.343 11.7734 113.108 12.9681C112.895 14.1627 112.788 15.6241 112.788 17.3521C112.788 19.1441 112.895 20.6481 113.108 21.8641C113.322 23.0801 113.77 24.0614 114.452 24.8081C115.156 25.5547 116.18 25.9281 117.524 25.9281C118.868 25.9281 119.882 25.5547 120.564 24.8081C121.268 24.0614 121.727 23.0801 121.94 21.8641C122.154 20.6481 122.26 19.1441 122.26 17.3521ZM129.128 11.6241C129.128 10.0667 129.576 8.85073 130.472 7.97607C131.39 7.08007 132.563 6.63207 133.992 6.63207C135.422 6.63207 136.584 7.08007 137.48 7.97607C138.398 8.85073 138.856 10.0667 138.856 11.6241C138.856 13.1814 138.398 14.4081 137.48 15.3041C136.584 16.2001 135.422 16.6481 133.992 16.6481C132.563 16.6481 131.39 16.2001 130.472 15.3041C129.576 14.4081 129.128 13.1814 129.128 11.6241ZM148.648 7.04807L135.88 29.3201H132.296L145.064 7.04807H148.648ZM133.992 8.84007C132.648 8.84007 131.976 9.76807 131.976 11.6241C131.976 13.5014 132.648 14.4401 133.992 14.4401C134.632 14.4401 135.123 14.2161 135.464 13.7681C135.827 13.2987 136.008 12.5841 136.008 11.6241C136.008 9.76807 135.336 8.84007 133.992 8.84007ZM142.152 24.7121C142.152 23.1547 142.6 21.9387 143.496 21.0641C144.414 20.1681 145.587 19.7201 147.016 19.7201C148.424 19.7201 149.576 20.1681 150.472 21.0641C151.39 21.9387 151.848 23.1547 151.848 24.7121C151.848 26.2694 151.39 27.4961 150.472 28.3921C149.576 29.2881 148.424 29.7361 147.016 29.7361C145.587 29.7361 144.414 29.2881 143.496 28.3921C142.6 27.4961 142.152 26.2694 142.152 24.7121ZM146.984 21.9281C145.64 21.9281 144.968 22.8561 144.968 24.7121C144.968 26.5681 145.64 27.4961 146.984 27.4961C148.328 27.4961 149 26.5681 149 24.7121C149 22.8561 148.328 21.9281 146.984 21.9281ZM93.5487 47.7041C93.5487 48.8347 93.282 49.9014 92.7487 50.9041C92.2153 51.9067 91.362 52.7281 90.1887 53.3681C89.0153 53.9867 87.5113 54.2961 85.6767 54.2961H81.6447V63.3201H77.9967V41.0801H85.6767C87.3833 41.0801 88.8233 41.3787 89.9967 41.9761C91.1913 42.5521 92.0767 43.3414 92.6527 44.3441C93.25 45.3467 93.5487 46.4667 93.5487 47.7041ZM85.6767 51.3201C87.0633 51.3201 88.098 51.0107 88.7807 50.3921C89.4633 49.7521 89.8047 48.8561 89.8047 47.7041C89.8047 45.2721 88.4287 44.0561 85.6767 44.0561H81.6447V51.3201H85.6767ZM100.676 48.2481C101.209 47.3521 101.913 46.6587 102.788 46.1681C103.684 45.6561 104.74 45.4001 105.956 45.4001V49.1761H105.028C103.599 49.1761 102.511 49.5387 101.764 50.2641C101.039 50.9894 100.676 52.2481 100.676 54.0401V63.3201H97.0279V45.6881H100.676V48.2481ZM111.165 43.3521C110.504 43.3521 109.949 43.1281 109.501 42.6801C109.053 42.2321 108.829 41.6774 108.829 41.0161C108.829 40.3547 109.053 39.8001 109.501 39.3521C109.949 38.9041 110.504 38.6801 111.165 38.6801C111.805 38.6801 112.349 38.9041 112.797 39.3521C113.245 39.8001 113.469 40.3547 113.469 41.0161C113.469 41.6774 113.245 42.2321 112.797 42.6801C112.349 43.1281 111.805 43.3521 111.165 43.3521ZM112.957 45.6881V63.3201H109.309V45.6881H112.957ZM124.563 60.0561L129.555 45.6881H133.427L126.707 63.3201H122.355L115.667 45.6881H119.571L124.563 60.0561ZM134.968 54.4241C134.968 52.6534 135.331 51.0854 136.056 49.7201C136.803 48.3547 137.806 47.2987 139.064 46.5521C140.344 45.7841 141.752 45.4001 143.288 45.4001C144.675 45.4001 145.88 45.6774 146.904 46.2321C147.95 46.7654 148.782 47.4374 149.4 48.2481V45.6881H153.08V63.3201H149.4V60.6961C148.782 61.5281 147.939 62.2214 146.872 62.7761C145.806 63.3307 144.59 63.6081 143.224 63.6081C141.71 63.6081 140.323 63.2241 139.064 62.4561C137.806 61.6667 136.803 60.5787 136.056 59.1921C135.331 57.7841 134.968 56.1947 134.968 54.4241ZM149.4 54.4881C149.4 53.2721 149.144 52.2161 148.632 51.3201C148.142 50.4241 147.491 49.7414 146.68 49.2721C145.87 48.8027 144.995 48.5681 144.056 48.5681C143.118 48.5681 142.243 48.8027 141.432 49.2721C140.622 49.7201 139.96 50.3921 139.448 51.2881C138.958 52.1627 138.712 53.2081 138.712 54.4241C138.712 55.6401 138.958 56.7067 139.448 57.6241C139.96 58.5414 140.622 59.2454 141.432 59.7361C142.264 60.2054 143.139 60.4401 144.056 60.4401C144.995 60.4401 145.87 60.2054 146.68 59.7361C147.491 59.2667 148.142 58.5841 148.632 57.6881C149.144 56.7707 149.4 55.7041 149.4 54.4881ZM156.656 54.4881C156.656 52.6747 157.018 51.0854 157.744 49.7201C158.49 48.3334 159.514 47.2667 160.816 46.5201C162.117 45.7734 163.61 45.4001 165.296 45.4001C167.429 45.4001 169.189 45.9121 170.576 46.9361C171.984 47.9387 172.933 49.3787 173.424 51.2561H169.488C169.168 50.3814 168.656 49.6987 167.952 49.2081C167.248 48.7174 166.362 48.4721 165.296 48.4721C163.802 48.4721 162.608 49.0054 161.712 50.0721C160.837 51.1174 160.4 52.5894 160.4 54.4881C160.4 56.3867 160.837 57.8694 161.712 58.9361C162.608 60.0027 163.802 60.5361 165.296 60.5361C167.408 60.5361 168.805 59.6081 169.488 57.7521H173.424C172.912 59.5441 171.952 60.9734 170.544 62.0401C169.136 63.0854 167.386 63.6081 165.296 63.6081C163.61 63.6081 162.117 63.2347 160.816 62.4881C159.514 61.7201 158.49 60.6534 157.744 59.2881C157.018 57.9014 156.656 56.3014 156.656 54.4881ZM192.931 45.6881L182.115 71.6081H178.339L181.923 63.0321L174.979 45.6881H179.043L184.003 59.1281L189.155 45.6881H192.931Z" fill="#105BAB"/>
</svg>
