<svg width="77" height="77" viewBox="0 0 77 77" fill="none" xmlns="http://www.w3.org/2000/svg">
<g clip-path="url(#clip0_6_1930)">
<path d="M38.4989 76.5908C35.1089 76.5908 32.3879 74.8909 30.1989 73.525C29.2931 72.8978 28.3204 72.373 27.2989 71.9601C26.1441 71.6925 24.9633 71.5532 23.7779 71.5451H23.766C21.077 71.4021 18.0299 71.2381 15.3759 69.3781C12.6589 67.4892 11.4879 64.5782 10.5459 62.2402C10.1859 61.2027 9.70596 60.2106 9.11594 59.2843C8.37268 58.4565 7.53841 57.7152 6.62894 57.0744L6.61893 57.0676C4.58693 55.4867 2.05793 53.5195 0.993927 50.3906C-0.0520733 47.3197 0.774911 44.3089 1.43991 41.8909V41.8783C1.78931 40.8128 2.01218 39.7098 2.10391 38.5923C2.01321 37.4803 1.79241 36.3828 1.44595 35.3224L1.43796 35.2926C0.772957 32.8737 -0.0540733 29.8628 0.993927 26.7929C2.05493 23.669 4.58394 21.7027 6.61594 20.1218L6.63992 20.1027C7.53985 19.4682 8.36572 18.7351 9.10196 17.9163C9.6992 16.9845 10.1839 15.9852 10.5459 14.9394C11.4829 12.6065 12.6459 9.70128 15.3619 7.80636C18.0299 5.96043 21.203 5.78772 23.753 5.64873C24.949 5.63942 26.1403 5.4969 27.305 5.22443C28.3287 4.81221 29.3033 4.28739 30.2109 3.65955C32.3939 2.2946 35.1109 0.595703 38.4919 0.595703C41.8729 0.595703 44.5819 2.28884 46.7639 3.64978L46.7799 3.65955C47.6848 4.28762 48.6576 4.8116 49.68 5.2215C50.8387 5.49272 52.024 5.63381 53.214 5.64238C55.769 5.77737 58.9489 5.9425 61.6139 7.80343C64.3279 9.70335 65.4939 12.6032 66.4309 14.9301C66.7909 15.9737 67.2725 16.9713 67.8659 17.9021C68.6091 18.7285 69.4431 19.4685 70.352 20.1081L70.3619 20.1159C72.4009 21.6979 74.9399 23.668 75.9939 26.8159C77.0339 29.8717 76.2079 32.8796 75.5439 35.2965V35.3102C75.1939 36.3765 74.9708 37.4805 74.8789 38.5991C74.9707 39.7169 75.1936 40.8202 75.5429 41.8861V41.8983C76.2079 44.3202 77.0339 47.3309 75.9859 50.4028C74.9429 53.5227 72.4029 55.4944 70.3629 57.0783L70.352 57.0866C69.4478 57.7223 68.6179 58.4575 67.878 59.2784C67.281 60.2097 66.7969 61.2088 66.4359 62.2544C65.4989 64.5883 64.3359 67.492 61.6199 69.3879C58.9509 71.2448 55.77 71.4139 53.214 71.5499C52.0302 71.5586 50.8509 71.6985 49.6979 71.9669C48.6704 72.3823 47.6916 72.9089 46.779 73.5377C44.602 74.8986 41.8819 76.5908 38.4989 76.5908ZM38.4989 2.85782C35.7679 2.85782 33.5579 4.23952 31.4209 5.57646C30.3536 6.31747 29.1993 6.92476 27.9839 7.3845C26.6427 7.72007 25.2664 7.89526 23.8839 7.90645C21.4959 8.03644 18.7959 8.1843 16.6589 9.66224C14.5039 11.1672 13.5589 13.5123 12.6529 15.7782C12.2236 17.0144 11.6378 18.1906 10.9099 19.2781C10.0609 20.258 9.0958 21.1312 8.03592 21.8781L8.01291 21.8961C6.03291 23.4371 3.98695 25.0278 3.14395 27.5097C2.32095 29.9246 2.98496 32.3433 3.62796 34.6832L3.63693 34.7145C4.04546 35.9674 4.29342 37.2672 4.37491 38.5825C4.29239 39.9044 4.04205 41.2103 3.62991 42.4691V42.4822C2.98691 44.8211 2.32295 47.24 3.14395 49.6519C3.98895 52.1378 6.03595 53.7299 8.01395 55.2698L8.02396 55.2776C9.09408 56.0314 10.0679 56.9132 10.9239 57.9035C11.6443 58.9855 12.2246 60.1544 12.6509 61.3824C13.5659 63.6563 14.5119 66.0061 16.6759 67.5101C18.8019 69 21.3879 69.1382 23.8889 69.2722H23.8999C25.2745 69.2828 26.643 69.4553 27.977 69.7868C29.1872 70.2497 30.3375 70.8565 31.4029 71.5939C33.5439 72.9308 35.759 74.315 38.503 74.315C41.247 74.315 43.451 72.9347 45.5919 71.5997C46.6641 70.862 47.8198 70.2538 49.0349 69.7878C50.3677 69.4548 51.7352 69.2813 53.1089 69.2702C55.4959 69.1432 58.202 68.9989 60.339 67.512C62.496 66.0051 63.4389 63.6615 64.3479 61.3946C64.7764 60.1582 65.3618 58.9819 66.0899 57.8947C66.9427 56.9107 67.9126 56.0341 68.9779 55.2854L68.9879 55.2766C70.9739 53.7347 73.0269 52.1409 73.8549 49.666C74.6799 47.2471 74.0159 44.829 73.3739 42.49V42.4739C72.9618 41.2152 72.7114 39.9093 72.6289 38.5874C72.7114 37.2643 72.9621 35.9571 73.3749 34.6974V34.6876C74.0179 32.3457 74.682 29.9286 73.865 27.5307V27.5248C73.03 25.0249 70.9769 23.437 68.9919 21.8971L68.9819 21.8888C67.912 21.1359 66.9382 20.255 66.0819 19.2659C65.358 18.1802 64.776 17.0067 64.3499 15.7733C63.4369 13.5024 62.4959 11.1604 60.3369 9.65247C58.2019 8.16453 55.4979 8.02168 53.1119 7.89668C51.7344 7.88542 50.3632 7.71054 49.0269 7.37571C47.8128 6.91821 46.6592 6.31344 45.5919 5.57549L45.5769 5.5667C43.4379 4.23975 41.2259 2.86173 38.4989 2.86173V2.85782Z" fill="#2C2C2C"/>
<path d="M38.4969 57.8273C33.3976 57.8215 28.5087 55.7931 24.9029 52.1874C21.2971 48.5818 19.2688 43.6934 19.2629 38.5942C19.2688 33.495 21.2971 28.6062 24.9029 25.0005C28.5087 21.3948 33.3976 19.3669 38.4969 19.3611C42.9223 19.364 47.2118 20.8895 50.645 23.6817C50.771 23.7845 50.8755 23.9111 50.9526 24.0543C51.0297 24.1974 51.0779 24.3544 51.0943 24.5162C51.1107 24.6779 51.0951 24.8414 51.0484 24.9971C51.0017 25.1528 50.9247 25.2978 50.822 25.4238C50.7192 25.5498 50.5926 25.6543 50.4495 25.7314C50.3063 25.8085 50.1494 25.8566 49.9876 25.873C49.8258 25.8895 49.6625 25.8739 49.5067 25.8271C49.351 25.7804 49.206 25.7034 49.08 25.6006C46.0889 23.1686 42.352 21.8397 38.4969 21.8375C34.054 21.8426 29.7945 23.6099 26.6528 26.7514C23.5112 29.8929 21.744 34.1524 21.739 38.5952C21.744 43.0379 23.5112 47.2971 26.6529 50.4385C29.7946 53.5798 34.0541 55.3466 38.4969 55.3514C42.9398 55.3466 47.1993 53.5798 50.341 50.4385C53.4827 47.2971 55.2499 43.0379 55.2549 38.5952C55.2555 37.3924 55.1274 36.1928 54.8729 35.0172C54.8384 34.8583 54.8354 34.6943 54.8643 34.5343C54.8932 34.3743 54.9534 34.2214 55.0413 34.0846C55.1293 33.9478 55.2433 33.8297 55.3769 33.737C55.5105 33.6443 55.661 33.5786 55.8199 33.5441C55.9788 33.5095 56.143 33.5069 56.303 33.5358C56.4631 33.5647 56.6158 33.6246 56.7526 33.7126C56.8894 33.8005 57.0076 33.9144 57.1003 34.048C57.193 34.1816 57.2585 34.3324 57.293 34.4913C57.5849 35.8384 57.7321 37.2129 57.7319 38.5913C57.7269 43.6912 55.6988 48.5806 52.0927 52.1869C48.4866 55.7933 43.597 57.8218 38.4969 57.8273Z" fill="#2C2C2C"/>
<path d="M37.735 43.139L31.276 35.5819C31.1703 35.4583 31.0901 35.3155 31.0397 35.161C30.9894 35.0064 30.9701 34.8431 30.9828 34.681C30.9955 34.5189 31.0401 34.361 31.1139 34.2161C31.1877 34.0713 31.2894 33.9428 31.413 33.8372C31.5366 33.7315 31.6797 33.6508 31.8344 33.6004C31.989 33.55 32.152 33.5307 32.3142 33.5433C32.4763 33.5559 32.6344 33.6004 32.7794 33.6742C32.9243 33.7479 33.0533 33.8494 33.159 33.973L38.059 39.7059L55.744 25.5262C56.0001 25.3209 56.3273 25.2257 56.6536 25.2616C56.9799 25.2974 57.2786 25.4611 57.484 25.7171C57.5858 25.844 57.6617 25.9897 57.7072 26.1458C57.7527 26.302 57.767 26.4656 57.7493 26.6273C57.7315 26.789 57.6821 26.9456 57.6038 27.0882C57.5255 27.2308 57.4199 27.3561 57.293 27.4578L37.735 43.139Z" fill="#2C2C2C"/>
</g>
<defs>
<clipPath id="clip0_6_1930">
<rect width="76" height="76" fill="white" transform="translate(0.5 0.59375)"/>
</clipPath>
</defs>
</svg>
