<svg width="72" height="77" viewBox="0 0 72 77" fill="none" xmlns="http://www.w3.org/2000/svg">
<g clip-path="url(#clip0_6_1853)">
<path d="M40.6586 76.5938C39.8497 76.5945 39.0653 76.3179 38.4373 75.8106C37.8051 76.3187 37.0168 76.5951 36.2043 76.5938H22.3499C21.5372 76.5947 20.7488 76.3176 20.1169 75.809C19.4882 76.3175 18.7025 76.5947 17.8923 76.5938H4.03623C3.09877 76.5925 2.20008 76.2213 1.53719 75.5616C0.874307 74.9019 0.501318 74.0076 0.5 73.0746L0.5 22.8981C0.501318 21.9652 0.874307 21.0708 1.53719 20.4112C2.20008 19.7515 3.09877 19.3803 4.03623 19.379H17.8923C18.2029 19.3788 18.5121 19.4193 18.812 19.4996V4.07986C18.8182 3.15116 19.194 2.26276 19.8571 1.60932C20.5203 0.955879 21.4167 0.590688 22.3499 0.593769H36.206C37.1392 0.590688 38.0356 0.955879 38.6987 1.60932C39.3619 2.26276 39.7377 3.15116 39.7439 4.07986V19.5062C40.0428 19.4268 40.3509 19.3868 40.6603 19.3872H42.2325C42.5451 19.3872 42.8449 19.5108 43.066 19.7308C43.287 19.9508 43.4112 20.2492 43.4112 20.5603C43.4112 20.8714 43.287 21.1698 43.066 21.3898C42.8449 21.6097 42.5451 21.7333 42.2325 21.7333H40.6603C40.4845 21.7332 40.3109 21.7723 40.1523 21.8478C39.9937 21.9233 39.8541 22.0332 39.7439 22.1695V51.793H55.6951V48.8488C55.6951 48.5377 55.8193 48.2393 56.0403 48.0193C56.2614 47.7994 56.5612 47.6758 56.8738 47.6758C57.1864 47.6758 57.4863 47.7994 57.7073 48.0193C57.9284 48.2393 58.0526 48.5377 58.0526 48.8488V73.0746C58.0512 74.0079 57.678 74.9024 57.0148 75.5622C56.3515 76.2219 55.4524 76.5929 54.5147 76.5938H40.6586ZM22.3499 74.2692H36.206C36.4003 74.2695 36.5918 74.2221 36.7633 74.131C36.9348 74.0399 37.0809 73.908 37.1888 73.7471C37.1455 73.525 37.1238 73.2992 37.1241 73.073V22.8981C37.1242 22.4449 37.2127 21.996 37.3847 21.5764V4.07986C37.3821 3.77136 37.2567 3.47646 37.0361 3.25971C36.8155 3.04296 36.5176 2.92201 36.2076 2.92333H22.3499C22.0398 2.92201 21.7417 3.04291 21.5208 3.25961C21.2999 3.47632 21.1742 3.77121 21.1712 4.07986V21.5764C21.3432 21.996 21.4318 22.4449 21.4318 22.8981V73.0746C21.432 73.3009 21.4104 73.5266 21.3671 73.7487C21.4752 73.9092 21.6215 74.0407 21.793 74.1315C21.9644 74.2223 22.1557 74.2696 22.3499 74.2692ZM40.6603 74.246H54.5163C54.829 74.2456 55.1287 74.1219 55.3499 73.9021C55.5712 73.6822 55.6959 73.3841 55.6967 73.073V67.2045H39.7439V73.1077C39.7442 73.3177 39.7253 73.5273 39.6874 73.7339C39.795 73.8917 39.9397 74.0211 40.109 74.1106C40.2783 74.2002 40.4669 74.2472 40.6586 74.2477L40.6603 74.246ZM2.85749 73.073C2.85836 73.3841 2.98306 73.6822 3.20429 73.9021C3.42551 74.1219 3.72525 74.2456 4.03789 74.246H17.8939C18.0865 74.2464 18.2761 74.1997 18.4463 74.1101C18.6165 74.0205 18.7621 73.8908 18.8701 73.7322C18.8324 73.5262 18.8135 73.3171 18.8137 73.1077V67.2045H2.85583L2.85749 73.073ZM55.6951 64.8633V54.1391H39.7439V64.8633H55.6951ZM18.8104 64.8633V54.1391H2.85583V64.8633H18.8104ZM18.8104 51.7979V22.1712C18.6999 22.0341 18.5599 21.9236 18.4007 21.8478C18.2414 21.772 18.0671 21.7329 17.8906 21.7333H4.03623C3.72359 21.7338 3.42385 21.8574 3.20263 22.0773C2.9814 22.2971 2.8567 22.5952 2.85583 22.9064V51.793L18.8104 51.7979ZM31.7599 63.6738V10.8901C31.754 10.7325 31.7801 10.5753 31.8366 10.4279C31.8931 10.2805 31.9789 10.146 32.0889 10.0323C32.1988 9.91872 32.3307 9.82834 32.4766 9.76661C32.6224 9.70488 32.7793 9.67306 32.9379 9.67306C33.0964 9.67306 33.2533 9.70488 33.3991 9.76661C33.545 9.82834 33.6769 9.91872 33.7868 10.0323C33.8968 10.146 33.9826 10.2805 34.0391 10.4279C34.0957 10.5753 34.1217 10.7325 34.1158 10.8901V63.6688C34.1217 63.8264 34.0957 63.9837 34.0391 64.1311C33.9826 64.2784 33.8968 64.413 33.7868 64.5266C33.6769 64.6402 33.545 64.7306 33.3991 64.7923C33.2533 64.854 33.0964 64.8859 32.9379 64.8859C32.7793 64.8859 32.6224 64.854 32.4766 64.7923C32.3307 64.7306 32.1988 64.6402 32.0889 64.5266C31.9789 64.413 31.8931 64.2784 31.8366 64.1311C31.7801 63.9837 31.754 63.8264 31.7599 63.6688V63.6738ZM24.563 63.6738V10.8901C24.5744 10.5864 24.7037 10.2989 24.9237 10.0881C25.1436 9.87726 25.4371 9.75947 25.7425 9.75947C26.0479 9.75947 26.3415 9.87726 26.5614 10.0881C26.7814 10.2989 26.9107 10.5864 26.9221 10.8901V63.6688C26.9281 63.8267 26.902 63.9841 26.8454 64.1317C26.7888 64.2793 26.7028 64.414 26.5927 64.5278C26.4826 64.6415 26.3505 64.7321 26.2045 64.7939C26.0584 64.8557 25.9013 64.8876 25.7425 64.8876C25.5838 64.8876 25.4267 64.8557 25.2806 64.7939C25.1345 64.7321 25.0025 64.6415 24.8924 64.5278C24.7822 64.414 24.6963 64.2793 24.6397 64.1317C24.5831 63.9841 24.557 63.8267 24.563 63.6688V63.6738ZM7.30683 62.3586C7.05 62.1814 6.87431 61.91 6.81829 61.604C6.76227 61.2979 6.83049 60.9823 7.00799 60.7263L9.66431 56.9131C9.77254 56.7549 9.91854 56.6259 10.0892 56.5376C10.2599 56.4494 10.4499 56.4047 10.6422 56.4075C10.8341 56.4095 11.0227 56.4577 11.1919 56.5481C11.361 56.6384 11.5056 56.7682 11.6134 56.9263L14.1767 60.7329C14.264 60.8607 14.325 61.0043 14.3564 61.1556C14.3879 61.3069 14.389 61.4628 14.3599 61.6146C14.3308 61.7663 14.2719 61.9108 14.1866 62.0399C14.1014 62.169 13.9914 62.2801 13.863 62.3669C13.7346 62.4537 13.5902 62.5145 13.4382 62.5457C13.2862 62.577 13.1295 62.5782 12.977 62.5492C12.8245 62.5202 12.6793 62.4616 12.5496 62.3767C12.4199 62.2919 12.3082 62.1824 12.221 62.0546L10.6073 59.6689L8.94711 62.0679C8.85904 62.1946 8.74676 62.3028 8.61666 62.3863C8.48656 62.4699 8.34119 62.5271 8.18887 62.5547C8.03655 62.5823 7.88026 62.5798 7.72891 62.5473C7.57757 62.5148 7.43414 62.4529 7.30683 62.3652V62.3586ZM44.9303 62.5668C44.6826 62.5667 44.4412 62.489 44.2402 62.3448C44.0393 62.2005 43.8891 61.997 43.8109 61.7631C43.7326 61.5291 43.7303 61.2766 43.8043 61.0413C43.8783 60.806 44.0248 60.5999 44.2231 60.452L46.5108 58.7503H44.922C44.6094 58.7503 44.3096 58.6267 44.0885 58.4067C43.8675 58.1867 43.7433 57.8884 43.7433 57.5772C43.7433 57.2661 43.8675 56.9678 44.0885 56.7478C44.3096 56.5278 44.6094 56.4042 44.922 56.4042H50.0686C50.316 56.4053 50.5567 56.4838 50.7568 56.6284C50.9569 56.7731 51.1063 56.9766 51.1839 57.2103C51.2615 57.444 51.2634 57.696 51.1893 57.9309C51.1152 58.1657 50.9688 58.3714 50.7709 58.519L48.4798 60.2207H50.072C50.3846 60.2207 50.6844 60.3443 50.9055 60.5643C51.1265 60.7843 51.2507 61.0827 51.2507 61.3938C51.2507 61.7049 51.1265 62.0032 50.9055 62.2232C50.6844 62.4432 50.3846 62.5668 50.072 62.5668H44.9303ZM54.5263 45.0686C54.3716 45.0689 54.2183 45.0387 54.0753 44.9799C53.9323 44.9212 53.8024 44.8349 53.6929 44.7261C53.5834 44.6173 53.4966 44.4881 53.4373 44.3459C53.378 44.2037 53.3475 44.0512 53.3475 43.8972V41.1976C52.9142 41.2868 52.4195 41.3744 51.9065 41.4471C49.4627 41.7973 48.0366 41.5925 47.2779 40.7862C46.8396 40.2153 46.5194 39.5636 46.3356 38.8689C46.1518 38.1741 46.1081 37.45 46.207 36.7384C46.2203 36.4344 46.2452 36.1419 46.2751 35.8726H43.0311C42.8291 35.8725 42.6306 35.8209 42.4544 35.7226C42.2783 35.6243 42.1304 35.4827 42.025 35.3113C41.9195 35.1399 41.8601 34.9444 41.8522 34.7436C41.8443 34.5428 41.8884 34.3433 41.9801 34.1643L46.2734 25.8076C46.3359 22.2719 47.6829 18.8784 50.0653 16.2547C51.3512 15.0413 52.8765 14.1071 54.5444 13.5115C56.2124 12.9159 57.9865 12.672 59.7543 12.7951C61.4205 12.7214 63.0825 13.0156 64.621 13.6566C66.1596 14.2975 67.5364 15.2695 68.6529 16.5026C72.4282 20.937 71.462 27.6481 71.4172 27.9323C71.4172 27.9719 71.4039 28.0132 71.3939 28.0546C71.0019 29.4984 70.4261 30.8864 69.6806 32.185L69.6524 32.2296C68.2418 34.1726 67.5502 36.5414 67.695 38.9341C67.695 38.9457 67.695 38.9589 67.695 38.9705L67.7913 43.8609C67.796 44.0166 67.7689 44.1717 67.7119 44.3168C67.6548 44.4618 67.5689 44.5939 67.4593 44.7052C67.3493 44.8161 67.2182 44.9042 67.0737 44.9644C66.9292 45.0245 66.7742 45.0554 66.6175 45.0554L54.5263 45.0686ZM55.2435 38.7904C55.3873 38.8996 55.504 39.0403 55.5843 39.2016C55.6646 39.3629 55.7065 39.5405 55.7067 39.7206V42.7242H65.4122L65.3375 39.0498C65.1694 36.1828 65.9809 33.3435 67.6402 30.9938L67.6718 30.9492C68.2833 29.8703 68.7573 28.7197 69.0829 27.5242C69.1626 26.9013 69.747 21.4293 66.835 18.0093C65.9304 17.0414 64.8232 16.2829 63.5916 15.7876C62.3601 15.2923 61.0342 15.0722 59.7078 15.1428C58.2605 15.0313 56.8057 15.2183 55.4345 15.6922C54.0632 16.1662 52.8051 16.9167 51.7388 17.897C49.7469 20.1608 48.6381 23.0613 48.6143 26.0703C48.6179 26.2642 48.5735 26.456 48.4848 26.6287L44.9436 33.5232H47.6414C47.8191 33.5229 47.9946 33.5627 48.1546 33.6396C48.3146 33.7165 48.455 33.8285 48.5653 33.9671C48.6755 34.1058 48.7528 34.2675 48.7912 34.4402C48.8296 34.6129 48.8281 34.7919 48.787 34.9639C48.3764 36.3389 48.4348 37.8104 48.953 39.1489C49.8826 39.35 50.8468 39.3296 51.767 39.0894C53.0554 38.8912 54.2026 38.5938 54.2125 38.5938C54.3127 38.5674 54.416 38.5541 54.5196 38.5541C54.7785 38.553 55.0303 38.6379 55.2352 38.7953L55.2435 38.7904ZM56.482 32.3155V29.3812C55.3751 28.6955 54.5208 27.6719 54.0465 26.4632C53.5723 25.2546 53.5036 23.9257 53.8506 22.6749C54.1977 21.4242 54.9419 20.3187 55.9722 19.5235C57.0026 18.7284 58.2637 18.2861 59.5673 18.2628C60.8709 18.2396 62.1472 18.6365 63.2055 19.3944C64.2638 20.1523 65.0474 21.2305 65.4394 22.468C65.8313 23.7055 65.8105 25.036 65.3802 26.2609C64.9498 27.4857 64.1329 28.5391 63.0514 29.2639V32.5501L63.0298 32.6559C62.8515 33.3926 62.4166 34.0427 61.8024 34.4906C61.1881 34.9386 60.4343 35.1554 59.6746 35.1027C58.8818 35.146 58.1036 34.8785 57.5068 34.3574C56.9099 33.8364 56.5421 33.1033 56.482 32.3155ZM55.9839 24.2777C55.985 24.9814 56.1889 25.6701 56.5714 26.2619C56.954 26.8538 57.4992 27.324 58.1422 27.6167L58.8312 27.929V32.1833C58.8663 32.3681 58.9731 32.5318 59.1283 32.6391C59.2836 32.7463 59.475 32.7885 59.6613 32.7566C60.3586 32.7566 60.596 32.4609 60.6773 32.2726V27.8778L61.3215 27.5473C61.9072 27.2536 62.4036 26.8097 62.7593 26.2613C63.1151 25.713 63.3174 25.0801 63.3453 24.4279C63.3732 23.7758 63.2257 23.1281 62.9181 22.5516C62.6105 21.9752 62.1539 21.4908 61.5954 21.1486C61.0368 20.8064 60.3967 20.6187 59.741 20.6049C59.0852 20.591 58.4377 20.7516 57.8651 21.07C57.2925 21.3884 56.8157 21.8531 56.4839 22.4161C56.152 22.9791 55.9772 23.62 55.9773 24.2727L55.9839 24.2777Z" fill="#2C2C2C"/>
</g>
<defs>
<clipPath id="clip0_6_1853">
<rect width="71.05" height="76" fill="white" transform="translate(0.5 0.59375)"/>
</clipPath>
</defs>
</svg>
