<svg width="32" height="32" viewBox="0 0 32 32" fill="none" xmlns="http://www.w3.org/2000/svg">
<g clip-path="url(#clip0_207_446)">
<g clip-path="url(#clip1_207_446)">
<path d="M2.90872 0.00195312C1.30987 0.00195312 0 1.31183 0 2.91068V29.0892C0 30.688 1.30987 31.9979 2.90872 31.9979H23.2698C24.8686 31.9979 26.1785 30.688 26.1785 29.0892V27.5979H24.7242V29.0892C24.7242 29.9075 24.0881 30.5436 23.2698 30.5436H2.90872C2.09043 30.5436 1.45436 29.9075 1.45436 29.0892V2.91068C1.45436 2.09238 2.09043 1.45632 2.90872 1.45632H23.2698C24.0881 1.45632 24.7242 2.09238 24.7242 2.91068V5.8194H26.1785V2.91068C26.1785 1.31183 24.8686 0.00195312 23.2698 0.00195312H2.90872Z" fill="white"/>
<path d="M13.0897 2.91064C9.08219 2.91064 5.81787 6.17497 5.81787 10.1825C5.81787 14.1899 9.08219 17.4543 13.0897 17.4543C17.0972 17.4543 20.3615 14.1899 20.3615 10.1825C20.3615 6.17497 17.0972 2.91064 13.0897 2.91064ZM13.0897 4.36501C16.3112 4.36501 18.9071 6.96096 18.9071 10.1825C18.9071 11.4228 18.5204 12.5692 17.8632 13.5116C17.3978 12.2581 16.4522 11.234 15.2513 10.6668C15.7147 10.1509 15.9984 9.47059 15.9984 8.72809C15.9984 7.13027 14.6875 5.81937 13.0897 5.81937C11.4919 5.81937 10.181 7.13027 10.181 8.72809C10.181 9.47064 10.4646 10.1509 10.928 10.6668C9.72704 11.2339 8.78156 12.2581 8.31614 13.5116C7.65894 12.5692 7.27223 11.4228 7.27223 10.1825C7.27223 6.96096 9.86819 4.36501 13.0897 4.36501ZM13.0897 7.27373C13.9015 7.27373 14.544 7.91626 14.544 8.72809C14.544 9.53993 13.9015 10.1825 13.0897 10.1825C12.2779 10.1825 11.6353 9.53993 11.6353 8.72809C11.6353 7.91626 12.2779 7.27373 13.0897 7.27373ZM13.0897 11.6368C14.9306 11.6368 16.4394 12.9866 16.6887 14.7557C15.6993 15.5344 14.4513 15.9999 13.0897 15.9999C11.7286 15.9999 10.4798 15.5353 9.4907 14.7572C9.73932 12.9873 11.2483 11.6368 13.0897 11.6368Z" fill="white"/>
<path d="M7.27173 19.6357V21.0901H19.6338V19.6357H7.27173Z" fill="white"/>
<path d="M7.27173 23.272V24.7263H19.6338V23.272H7.27173Z" fill="white"/>
<path d="M7.27173 26.9077V28.3621H19.6338V26.9077H7.27173Z" fill="white"/>
<path d="M4.36304 19.6357V21.0901H5.8174V19.6357H4.36304Z" fill="white"/>
<path d="M4.36304 23.272V24.7263H5.8174V23.272H4.36304Z" fill="white"/>
<path d="M4.36304 26.9077V28.3621H5.8174V26.9077H4.36304Z" fill="white"/>
<path d="M27.0438 6.08227C25.1674 11.549 23.2897 17.0156 21.4124 22.4822C21.3773 22.5838 21.3652 22.692 21.3769 22.7989L21.8541 27.135C21.9218 27.752 22.6815 28.0062 23.1068 27.554L26.0681 24.3996C26.1385 24.3246 26.1922 24.2355 26.2257 24.1382L31.8571 7.73831C32.8888 4.67527 28.0248 3.15276 27.0438 6.08227ZM30.4823 7.26678L29.7792 9.3134L27.7156 8.60326L28.4186 6.55664C28.8259 5.38124 30.8839 6.0518 30.4823 7.26678ZM27.2441 9.97808L29.3063 10.6882L24.9006 23.5176L23.1267 25.408L22.8398 22.8018L27.2441 9.97808Z" fill="white"/>
</g>
</g>
<defs>
<clipPath id="clip0_207_446">
<rect width="32" height="32" fill="white"/>
</clipPath>
<clipPath id="clip1_207_446">
<rect width="32" height="32" fill="white"/>
</clipPath>
</defs>
</svg>
