<svg width="40" height="40" viewBox="0 0 40 40" fill="none" xmlns="http://www.w3.org/2000/svg">
<path d="M34.05 33.3332C31.7 31.2332 29.4834 28.9999 27.3834 26.6666C26.35 25.5666 25.3667 24.3666 24.3 23.3332C24.4667 23.1499 24.6667 22.9999 24.8334 22.7999C26.2754 21.1066 27.1558 19.0071 27.3529 16.7917C27.5499 14.5763 27.0539 12.3545 25.9334 10.4332C24.8973 8.65237 23.4477 7.14713 21.7072 6.04477C19.9666 4.9424 17.9862 4.27531 15.9334 4.09988H15.6667C14.929 4.04158 14.1878 4.04158 13.45 4.09988C13.3146 4.12047 13.1856 4.17171 13.073 4.24969C12.9603 4.32768 12.867 4.43035 12.8 4.54988C11.2462 4.88233 9.80495 5.61157 8.6167 6.66655C6.74359 8.41521 5.4767 10.7155 5.00003 13.2332C4.56061 15.7105 4.98239 18.2636 6.19524 20.468C7.40808 22.6723 9.33892 24.3951 11.6667 25.3499C13.4833 26.1849 15.4854 26.5347 17.4775 26.3653C19.4696 26.1959 21.3838 25.513 23.0334 24.3832C24.1334 25.4832 25.1334 26.6999 26.2 27.8332C28.3667 30.1332 30.6 32.3832 32.95 34.4999C33.6834 35.1999 34.85 34.0165 34.05 33.3332ZM14.05 24.4999C11.8958 24.0502 9.95851 22.8814 8.55625 21.1854C7.15399 19.4893 6.37012 17.3669 6.33336 15.1666C6.41991 12.5542 7.49166 10.0713 9.33336 8.21655C11.0418 6.69073 13.2279 5.80687 15.5167 5.71655C17.0101 5.79858 18.4718 6.18023 19.8146 6.83878C21.1575 7.49733 22.3542 8.41933 23.3334 9.54988C24.6186 10.9866 25.4311 12.7837 25.6606 14.6977C25.8902 16.6117 25.5257 18.55 24.6167 20.2499C23.5739 22.0096 21.9799 23.3765 20.0817 24.1388C18.1836 24.9011 16.087 25.0163 14.1167 24.4666L14.05 24.4999Z" fill="white"/>
<path d="M19.7334 11.9169L15.1667 16.6669V16.7502L13.0334 14.7169C12.8765 14.5599 12.6636 14.4718 12.4417 14.4718C12.2198 14.4718 12.007 14.5599 11.8501 14.7169C11.6931 14.8738 11.605 15.0866 11.605 15.3085C11.605 15.5304 11.6931 15.7433 11.8501 15.9002L14.5167 18.5669C14.6753 18.7206 14.8875 18.8066 15.1084 18.8066C15.3293 18.8066 15.5415 18.7206 15.7001 18.5669L20.2501 13.7835L20.9001 13.1002C21.6667 12.3169 20.4667 11.1335 19.7334 11.9169Z" fill="white"/>
</svg>
