<svg width="373" height="177" viewBox="0 0 373 177" fill="none" xmlns="http://www.w3.org/2000/svg">
<path d="M372.921 111.912H331.665V154.116H293.255V111.912H251.999V75.6352H293.255V33.1942H331.665V75.6352H372.921V111.912Z" fill="#38419A"/>
<path d="M94.0088 87.7272C94.0088 60.5397 99.225 39.1216 109.657 23.473C120.248 7.82432 137.24 0 160.634 0C184.028 0 200.941 7.82432 211.374 23.473C221.964 39.1216 227.259 60.5397 227.259 87.7272C227.259 115.231 221.964 136.807 211.374 152.456C200.941 168.104 184.028 175.929 160.634 175.929C137.24 175.929 120.248 168.104 109.657 152.456C99.225 136.807 94.0088 115.231 94.0088 87.7272ZM187.426 87.7272C187.426 71.7625 185.688 59.5123 182.21 50.9766C178.733 42.283 171.541 37.9361 160.634 37.9361C149.727 37.9361 142.535 42.283 139.058 50.9766C135.58 59.5123 133.842 71.7625 133.842 87.7272C133.842 98.4758 134.474 107.407 135.738 114.52C137.003 121.475 139.532 127.165 143.326 131.591C147.277 135.859 153.047 137.993 160.634 137.993C168.221 137.993 173.912 135.859 177.705 131.591C181.657 127.165 184.265 121.475 185.53 114.52C186.794 107.407 187.426 98.4758 187.426 87.7272Z" fill="#38419A"/>
<path d="M0.59668 41.2556V3.55664H66.2736V176.64H24.0696V41.2556H0.59668Z" fill="#38419A"/>
</svg>
