<svg width="15" height="14" viewBox="0 0 15 14" fill="none" xmlns="http://www.w3.org/2000/svg">
<path d="M7.125 10.375H7.875V6.25H7.125V10.375ZM7.5 5.18275C7.631 5.18275 7.74075 5.1385 7.82925 5.05C7.91775 4.9615 7.96175 4.85175 7.96125 4.72075C7.96075 4.58975 7.9165 4.48025 7.8285 4.39225C7.7405 4.30425 7.631 4.26 7.5 4.2595C7.369 4.259 7.2595 4.30325 7.1715 4.39225C7.0835 4.48125 7.03925 4.591 7.03875 4.7215C7.03825 4.852 7.0825 4.9615 7.1715 5.05C7.2605 5.1385 7.37 5.18275 7.5 5.18275ZM7.50225 13.75C6.56875 13.75 5.69125 13.573 4.86975 13.219C4.04825 12.8645 3.3335 12.3835 2.7255 11.776C2.1175 11.1685 1.63625 10.4545 1.28175 9.634C0.92725 8.8135 0.75 7.93625 0.75 7.00225C0.75 6.06825 0.92725 5.19075 1.28175 4.36975C1.63575 3.54825 2.116 2.8335 2.7225 2.2255C3.329 1.6175 4.04325 1.13625 4.86525 0.78175C5.68725 0.42725 6.56475 0.25 7.49775 0.25C8.43075 0.25 9.30825 0.42725 10.1302 0.78175C10.9517 1.13575 11.6665 1.61625 12.2745 2.22325C12.8825 2.83025 13.3638 3.5445 13.7183 4.366C14.0728 5.1875 14.25 6.06475 14.25 6.99775C14.25 7.93075 14.073 8.80825 13.719 9.63025C13.365 10.4522 12.884 11.167 12.276 11.7745C11.668 12.382 10.954 12.8633 10.134 13.2183C9.314 13.5732 8.43675 13.7505 7.50225 13.75ZM7.5 13C9.175 13 10.5937 12.4187 11.7562 11.2562C12.9187 10.0937 13.5 8.675 13.5 7C13.5 5.325 12.9187 3.90625 11.7562 2.74375C10.5937 1.58125 9.175 1 7.5 1C5.825 1 4.40625 1.58125 3.24375 2.74375C2.08125 3.90625 1.5 5.325 1.5 7C1.5 8.675 2.08125 10.0937 3.24375 11.2562C4.40625 12.4187 5.825 13 7.5 13Z" fill="#8A8A8A"/>
</svg>
