<svg width="32" height="32" viewBox="0 0 32 32" fill="none" xmlns="http://www.w3.org/2000/svg">
<g clip-path="url(#clip0_207_412)">
<mask id="mask0_207_412" style="mask-type:luminance" maskUnits="userSpaceOnUse" x="0" y="0" width="32" height="32">
<path d="M0 3.8147e-06H32V32H0V3.8147e-06Z" fill="white"/>
</mask>
<g mask="url(#mask0_207_412)">
<path d="M31.0625 31.0625H0.9375V6.65963H31.0625V31.0625Z" stroke="white" stroke-width="2" stroke-miterlimit="10"/>
</g>
<path d="M24.625 6.65953V14.3711H7.37524V6.65953" stroke="white" stroke-width="2" stroke-miterlimit="10"/>
<path d="M11.1252 26.4668H7.37524V18.9668H11.1252V26.4668Z" stroke="white" stroke-width="2" stroke-miterlimit="10"/>
<path d="M25.5623 26.4668H21.4692V22.7168H24.6248V18.9668H20.5317" stroke="white" stroke-width="2" stroke-miterlimit="10"/>
<path d="M16.2974 21.5879V19.7129" stroke="white" stroke-width="2" stroke-miterlimit="10"/>
<path d="M16.2974 25.7207V23.8457" stroke="white" stroke-width="2" stroke-miterlimit="10"/>
<path d="M11.4683 10.5156H20.5319" stroke="white" stroke-width="2" stroke-miterlimit="10"/>
<mask id="mask1_207_412" style="mask-type:luminance" maskUnits="userSpaceOnUse" x="0" y="0" width="32" height="32">
<path d="M0 3.8147e-06H32V32H0V3.8147e-06Z" fill="white"/>
</mask>
<g mask="url(#mask1_207_412)">
<path d="M4.15625 0.937543V6.65967" stroke="white" stroke-width="2" stroke-miterlimit="10"/>
<path d="M27.8438 6.65967V0.937543" stroke="white" stroke-width="2" stroke-miterlimit="10"/>
<path d="M0 0.9375H32" stroke="white" stroke-width="2" stroke-miterlimit="10"/>
</g>
</g>
<defs>
<clipPath id="clip0_207_412">
<rect width="32" height="32" fill="white"/>
</clipPath>
</defs>
</svg>
